<?xml version="1.0" encoding="UTF-8"?>
<!-- Generator: Adobe Illustrator 25.4.1, SVG Export Plug-In . SVG Version: 6.00 Build 0)  -->
<svg xmlns="http://www.w3.org/2000/svg" xmlns:xlink="http://www.w3.org/1999/xlink" version="1.1" x="0px" y="0px" viewBox="0 0 743 947" style="enable-background:new 0 0 743 947;" xml:space="preserve">
<g id="_x31_1">
	<path style="fill:#0063A9;" d="M404.73,851.8c-3.41,3.9-6.23,8.59-8.3,13.79c-1.99-5.21-4.74-9.89-8.15-13.79   c-7.26-8.3-17.15-13.29-27.95-12.99l0.17,8.96c16.61-0.46,30.57,14.55,32.25,34.01c0.19,1.37,0.19,2.04,0.17,3.07l0,0h7.16l0,0   c0.4-20.93,14.95-37.56,32.42-37.08l0.17-8.96C421.88,838.51,411.99,843.5,404.73,851.8z"></path>
</g>
<g id="_x31_0">
	<path style="fill:#0063A9;" d="M404.73,802.14c-3.41,3.9-6.23,8.59-8.3,13.79c-1.99-5.21-4.74-9.89-8.15-13.79   c-7.26-8.3-17.15-13.29-27.95-12.99l0.17,8.96c16.61-0.46,30.57,14.55,32.25,34.01c0.19,1.37,0.19,2.04,0.17,3.07l0,0h7.16l0,0   c0.4-20.93,14.95-37.56,32.42-37.08l0.17-8.96C421.88,788.85,411.99,793.84,404.73,802.14z"></path>
</g>
<g id="_x30_9">
	<path style="fill:#0063A9;" d="M404.73,752.48c-3.41,3.9-6.23,8.59-8.3,13.79c-1.99-5.21-4.74-9.89-8.15-13.79   c-7.26-8.3-17.15-13.29-27.95-12.99l0.17,8.96c16.61-0.46,30.57,14.55,32.25,34.01c0.19,1.37,0.19,2.04,0.17,3.07l0,0h7.16l0,0   c0.4-20.93,14.95-37.56,32.42-37.08l0.17-8.96C421.88,739.19,411.99,744.18,404.73,752.48z"></path>
</g>
<g id="_x30_8_00000178889872891227805040000011507575966884688770_">
	<path style="fill:#0063A9;" d="M404.73,702.82c-3.41,3.9-6.23,8.59-8.3,13.79c-1.99-5.21-4.74-9.89-8.15-13.79   c-7.26-8.3-17.15-13.29-27.95-12.99l0.17,8.96c16.61-0.46,30.57,14.55,32.25,34.01c0.19,1.37,0.19,2.04,0.17,3.07l0,0h7.16l0,0   c0.4-20.93,14.95-37.56,32.42-37.08l0.17-8.96C421.88,689.53,411.99,694.52,404.73,702.82z"></path>
</g>
<g id="_x30_7_00000176723216725562451470000008292627439095393703_">
	<path style="fill:#E54719;" d="M404.73,631.73c-3.41,3.9-6.23,8.59-8.3,13.79c-1.99-5.21-4.74-9.89-8.15-13.79   c-7.26-8.3-17.15-13.29-27.95-12.99l0.17,8.96c16.61-0.46,30.57,14.55,32.25,34.01c0.12,1.06,0.19,2.04,0.17,3.07l0,0h7.16l0,0   c0.4-20.93,14.95-37.56,32.42-37.08l0.17-8.96C421.88,618.44,411.99,623.43,404.73,631.73z"></path>
</g>
<g id="_x30_6_00000013879172045620994860000018180468823594413218_">
	<path style="fill:#E54719;" d="M404.73,578.84c-3.41,3.9-6.23,8.59-8.3,13.79c-1.99-5.21-4.74-9.89-8.15-13.79   c-7.26-8.3-17.15-13.29-27.95-12.99l0.17,8.96c16.61-0.46,30.57,14.55,32.25,34.01c0.12,1.06,0.19,2.04,0.17,3.07l0,0h7.16l0,0   c0.4-20.93,14.95-37.56,32.42-37.08l0.17-8.96C421.88,565.55,411.99,570.54,404.73,578.84z"></path>
</g>
<g id="_x30_5_00000096771235868668623510000009830427825309365668_">
	<path style="fill:#E54719;" d="M404.73,525.94c-3.41,3.9-6.23,8.59-8.3,13.79c-1.99-5.21-4.74-9.89-8.15-13.79   c-7.26-8.3-17.15-13.29-27.95-12.99l0.17,8.96c16.61-0.46,30.57,14.55,32.25,34.01c0.12,1.06,0.19,2.04,0.17,3.07l0,0h7.16l0,0   c0.4-20.93,14.95-37.56,32.42-37.08l0.17-8.96C421.88,512.65,411.99,517.64,404.73,525.94z"></path>
</g>
<g id="_x30_4_00000011748969894516095910000007909361179287470497_">
	<path style="fill:#E54719;" d="M404.73,473.05c-3.41,3.9-6.23,8.59-8.3,13.79c-1.99-5.21-4.74-9.89-8.15-13.79   c-7.26-8.3-17.15-13.29-27.95-12.99l0.17,8.96c16.61-0.46,30.57,14.55,32.25,34.01c0.12,1.06,0.19,2.04,0.17,3.07l0,0h7.16l0,0   c0.4-20.93,14.95-37.56,32.42-37.08l0.17-8.96C421.88,459.76,411.99,464.75,404.73,473.05z"></path>
</g>
<g id="_x30_3_00000157288576302267623940000009383594371735898554_">
	<path style="fill:#E54719;" d="M404.73,420.15c-3.41,3.9-6.23,8.59-8.3,13.79c-1.99-5.21-4.74-9.89-8.15-13.79   c-7.26-8.3-17.15-13.29-27.95-12.99l0.17,8.96c16.61-0.46,30.57,14.55,32.25,34.01c0.12,1.06,0.19,2.04,0.17,3.07l0,0h7.16l0,0   c0.4-20.93,14.95-37.56,32.42-37.08l0.17-8.96C421.88,406.86,411.99,411.85,404.73,420.15z"></path>
</g>
<g id="_x30_2">
	<path style="fill:#E54719;" d="M404.73,367.26c-3.41,3.9-6.23,8.59-8.3,13.79c-1.99-5.21-4.74-9.89-8.15-13.79   c-7.26-8.3-17.15-13.29-27.95-12.99l0.17,8.96c16.61-0.46,30.57,14.55,32.25,34.01c0.12,1.06,0.19,2.04,0.17,3.07l0,0h7.16l0,0   c0.4-20.93,14.95-37.56,32.42-37.08l0.17-8.96C421.88,353.97,411.99,358.96,404.73,367.26z"></path>
</g>
<g id="_x30_1">
	<path style="fill:#E54719;" d="M404.73,314.36c-3.41,3.9-6.23,8.59-8.3,13.79c-1.99-5.21-4.74-9.89-8.15-13.79   c-7.26-8.3-17.15-13.29-27.95-12.99l0.17,8.96c16.61-0.46,30.57,14.55,32.25,34.01c0.12,1.06,0.19,2.04,0.17,3.07l0,0h7.16l0,0   c0.4-20.93,14.95-37.56,32.42-37.08l0.17-8.96C421.88,301.07,411.99,306.06,404.73,314.36z"></path>
</g>
</svg>
