<svg width="60" height="60" viewBox="0 0 60 60" fill="none" xmlns="http://www.w3.org/2000/svg">
<path fill-rule="evenodd" clip-rule="evenodd" d="M0.0429903 9.94965C0.0849264 19.6789 0.0914863 19.9244 0.342049 21.0333C1.10896 24.427 2.59641 27.2899 4.79618 29.6068C8.25778 33.2523 12.6769 35.1567 17.6417 35.1425C21.5576 35.1314 25.2435 33.8845 28.2298 31.5609C28.6558 31.2295 29.0802 30.9002 29.173 30.8291C29.2658 30.7582 29.0979 31.0017 28.7999 31.3704C26.9948 33.6034 25.8105 36.1341 25.1852 39.0942C24.8402 40.7274 24.8074 43.8713 25.1177 45.5512C25.7414 48.9266 27.3544 52.104 29.6929 54.5633C32.0635 57.0565 34.8604 58.6869 38.3469 59.608L39.5469 59.9251L49.7735 59.9625L60 60L59.957 50.1047C59.9147 40.3543 59.9103 40.1924 59.6509 39.0355C58.2235 32.6657 53.8998 27.7425 48.018 25.7889C45.981 25.1125 44.8813 24.9483 42.4168 24.9533C40.5089 24.957 39.936 25.0006 38.9392 25.2175C36.0707 25.8419 33.3271 27.1492 31.2885 28.8633C30.9342 29.1612 30.7047 29.3265 30.7786 29.2307C33.1606 26.1414 34.302 23.7523 34.8762 20.6545C35.1886 18.9696 35.1586 15.8265 34.8148 14.2054C34.454 12.5043 33.9598 11.0742 33.2435 9.65768C30.6094 4.44923 25.655 0.91302 19.8882 0.125148C19.3023 0.0450816 15.5518 0 9.48599 0H0L0.0429903 9.94965ZM48.1648 0.12057C46.1382 0.546967 44.5796 1.371 43.0769 2.81044C38.7921 6.9151 39.0311 13.7677 43.5954 17.6708C44.5768 18.5101 46.3948 19.4136 47.7467 19.7339C48.6352 19.9443 49.0496 19.9752 50.3823 19.9297C51.7751 19.8823 52.0998 19.83 53.1051 19.4915C59.764 17.2488 62.1199 9.18679 57.7316 3.65959C56.5716 2.19855 54.59 0.891419 52.7035 0.342926C51.7338 0.0609306 49.069 -0.0696182 48.1648 0.12057ZM7.64888 42.6203C3.94879 43.1239 0.950356 45.9197 0.198669 49.5675C-0.592611 53.4066 1.33821 57.3799 4.83038 59.0988C6.44281 59.8926 7.10735 60.0274 9.08338 59.9616C10.4703 59.9156 10.8658 59.8586 11.5868 59.6015C13.9054 58.7747 15.6152 57.2221 16.6514 55.0019C18.211 51.6608 17.522 47.7256 14.9212 45.1191C14.203 44.3993 13.0381 43.6127 12.1148 43.2242C10.8426 42.6888 8.98803 42.438 7.64888 42.6203Z" fill="#2395E8"/>
</svg>
