<svg width="60" height="60" viewBox="0 0 60 60" fill="none" xmlns="http://www.w3.org/2000/svg">
<path fill-rule="evenodd" clip-rule="evenodd" d="M7.64408 0.0297066C7.51499 0.0568144 7.12127 0.137551 6.76921 0.209135C4.21758 0.727235 1.73379 2.83824 0.642513 5.41619C0.0176031 6.89245 0.0160775 6.91299 0.0160775 14.1001C0.0160775 21.2872 0.0176031 21.3077 0.642513 22.784C1.72944 25.3517 4.03627 27.3241 6.76393 28.0179C7.70863 28.2582 20.4885 28.2582 21.4332 28.0179C24.65 27.1997 27.1986 24.6511 28.0168 21.4345C28.2572 20.4898 28.2572 7.71038 28.0168 6.76571C27.213 3.60571 24.883 1.22316 21.6092 0.213477C21.1149 0.061039 19.9871 0.0284157 14.4506 0.00647127C10.8361 -0.00796277 7.77317 0.00259872 7.64408 0.0297066ZM39.447 0.0297066C39.3179 0.0568144 38.9242 0.137551 38.5721 0.209135C36.0477 0.721719 33.5353 2.84106 32.4689 5.35751C31.8301 6.86476 31.8441 6.69108 31.7562 14.2174C31.7109 18.09 31.6352 21.4169 31.588 21.6105C30.8998 24.433 29.8557 26.3988 28.1267 28.1277C26.3977 29.8567 24.4318 30.9007 21.6092 31.589C21.4156 31.6362 18.0886 31.7119 14.2159 31.7571C8.42413 31.8247 7.07057 31.8711 6.5879 32.0178C3.33133 33.0082 0.98413 35.4076 0.180256 38.5676C-0.0600852 39.5122 -0.0600852 52.2916 0.180256 53.2363C0.998447 56.453 3.54714 59.0016 6.76393 59.8198C7.70863 60.0601 20.4885 60.0601 21.4332 59.8198C24.1328 59.133 26.4693 57.1502 27.5311 54.6445C28.1699 53.1373 28.1559 53.3109 28.2438 45.7846C28.2891 41.912 28.3648 38.5852 28.412 38.3915C29.1002 35.569 30.1443 33.6032 31.8733 31.8743C33.6023 30.1453 35.5682 29.1013 38.3908 28.413C38.5844 28.3659 41.9114 28.2902 45.7841 28.2449C51.5759 28.1773 52.9294 28.1309 53.4121 27.9842C56.6687 26.9938 59.0159 24.5945 59.8197 21.4345C60.0601 20.4898 60.0601 7.71038 59.8197 6.76571C59.0159 3.60571 56.6859 1.22316 53.4121 0.213477C52.9178 0.061039 51.79 0.0284157 46.2535 0.00647127C42.639 -0.00796277 39.5761 0.00259872 39.447 0.0297066ZM39.447 31.8315C39.3179 31.8587 38.9242 31.9394 38.5721 32.011C36.0205 32.5291 33.5367 34.6401 32.4454 37.218C31.8205 38.6943 31.819 38.7148 31.819 45.9019C31.819 53.089 31.8205 53.1096 32.4454 54.5858C33.5324 57.1536 35.8392 59.126 38.5668 59.8198C39.5115 60.0601 52.2914 60.0601 53.2361 59.8198C56.4529 59.0016 59.0016 56.453 59.8197 53.2363C60.0601 52.2916 60.0601 39.5122 59.8197 38.5676C59.0159 35.4076 56.6859 33.025 53.4121 32.0153C52.9178 31.8629 51.79 31.8303 46.2535 31.8083C42.639 31.7939 39.5761 31.8044 39.447 31.8315Z" fill="#2395E8"/>
</svg>
