<?xml version="1.0" encoding="UTF-8"?>
<svg xmlns="http://www.w3.org/2000/svg" width="60" height="60" viewBox="0 0 60 60" fill="none">
  <path fill-rule="evenodd" clip-rule="evenodd" d="M10.3445 0.179711C5.79846 0.991351 2.10436 4.17557 0.6094 8.57116C-0.0432177 10.4899 -0.186655 13.1157 0.25186 15.1148C1.19733 19.4254 4.38272 22.9522 8.59608 24.3535C10.0432 24.8348 11.3089 24.9946 13.0805 24.92C18.6381 24.6858 23.1339 21.0028 24.6012 15.4819C24.9078 14.3287 25.016 11.9729 24.824 10.6374C24.661 9.50397 24.1633 7.93272 23.6336 6.8792C22.4226 4.47053 20.1287 2.24315 17.748 1.1642C15.4057 0.102601 12.7523 -0.25025 10.3445 0.179711ZM50.8328 0.1735C49.5318 0.452875 48.212 1.19162 47.1929 2.21069C44.2416 5.16205 44.2398 9.82541 47.189 12.7649C50.1534 15.7198 54.8117 15.7246 57.7455 12.7757C60.7103 9.79565 60.7103 5.1869 57.7455 2.20682C55.9305 0.382445 53.3685 -0.37107 50.8328 0.1735ZM33.6648 5.23694C32.8262 5.51198 31.7337 6.62233 31.4624 7.47545C30.7187 9.81416 32.1505 12.1271 34.557 12.4742C35.2193 12.5697 36.3428 12.3036 36.9825 11.8998C38.5037 10.9395 39.1264 8.85592 38.3795 7.22479C37.5639 5.44319 35.583 4.60799 33.6648 5.23694ZM37.5366 17.5825C34.4762 18.0284 31.8341 20.0704 30.6368 22.9153C29.7788 24.9539 29.7788 27.5287 30.6368 29.5673C31.6772 32.0391 33.9299 34.0086 36.5023 34.6954C37.8051 35.0432 39.6696 35.0411 40.9289 34.6905C43.538 33.9641 45.4043 32.424 46.5528 30.0499C47.1763 28.761 47.4344 27.646 47.4344 26.2413C47.4344 24.8385 47.1767 23.7232 46.5545 22.4327C45.2457 19.7179 42.7844 17.9484 39.7957 17.5736C38.7103 17.4376 38.527 17.4383 37.5366 17.5825ZM13.3328 30.0646C10.9869 30.3616 8.54663 31.2547 6.71171 32.4877C5.73389 33.1449 5.4435 33.3882 4.33198 34.4823C2.31495 36.4679 0.889361 39.1178 0.25479 42.0616C-0.0454443 43.4544 -0.0454443 46.5282 0.25479 47.921C1.54901 53.9246 6.0401 58.4157 12.0437 59.7099C13.4365 60.0101 16.5103 60.0101 17.9031 59.7099C23.9165 58.4136 28.3957 53.9343 29.6921 47.921C29.9923 46.5282 29.9923 43.4544 29.6921 42.0616C28.3949 36.0442 23.9048 31.556 17.9031 30.2777C17.0469 30.0953 14.1551 29.9605 13.3328 30.0646ZM54.1347 30.1246C53.9205 30.1864 53.5157 30.4664 53.2353 30.7468C52.4151 31.5669 52.2585 32.5608 52.7836 33.6146C53.5664 35.1854 55.6339 35.459 56.7906 34.1449C58.5023 32.2004 56.6518 29.3995 54.1347 30.1246ZM48.7787 40.0679C44.5193 40.6634 41.2661 43.565 40.264 47.6621C39.9216 49.0621 39.9266 51.1137 40.2759 52.4327C41.0717 55.4387 42.9975 57.7292 45.8554 59.0684C50.2314 61.1191 55.5691 59.5954 58.2848 55.5203C59.3266 53.9572 59.8352 52.3897 59.9331 50.4405C60.1687 45.7541 57.0127 41.4746 52.4666 40.3162C51.3996 40.0443 49.7446 39.9329 48.7787 40.0679Z" fill="#2395E8"></path>
</svg>
