<svg width="60" height="60" viewBox="0 0 60 60" fill="none" xmlns="http://www.w3.org/2000/svg">
<path fill-rule="evenodd" clip-rule="evenodd" d="M27.1923 0.0704105C21.354 0.6352 15.5671 3.00884 11.0294 6.70006C9.69464 7.78584 7.58133 9.91572 6.5168 11.2483C3.82513 14.6176 1.61939 19.175 0.704595 23.2568C0.130115 25.8208 0 27.0672 0 30.0085C0 32.9497 0.130115 34.1962 0.704595 36.7601C1.63936 40.931 3.90263 45.5536 6.68379 48.9718C7.76969 50.3064 9.8998 52.4195 11.2325 53.4839C14.6021 56.1753 19.1601 58.3808 23.2424 59.2955C25.8066 59.8699 27.0532 60 29.9947 60C32.9363 60 34.1828 59.8699 36.7471 59.2955C39.8164 58.6077 43.8297 56.893 46.467 55.1423C51.041 52.106 54.554 48.111 56.9525 43.2182C58.4217 40.2211 59.2562 37.5369 59.7818 34.1182C60.0727 32.2266 60.0727 27.7904 59.7818 25.8988C59.2562 22.4801 58.4217 19.7959 56.9525 16.7988C55.3847 13.6005 53.6371 11.1673 51.114 8.67013C48.6369 6.2184 46.3678 4.60728 43.2059 3.05522C40.2441 1.60133 37.5022 0.743931 34.2223 0.245953C32.7473 0.0220336 28.7292 -0.0783605 27.1923 0.0704105ZM39.7417 20.3215L49.4295 30.0087L39.712 39.725L29.9947 49.4412L20.2774 39.725L10.56 30.0087L20.2477 20.3215C25.576 14.9934 29.9621 10.6342 29.9947 10.6342C30.0274 10.6342 34.4135 14.9934 39.7417 20.3215ZM25.3559 25.4293L20.777 30.0088L25.3859 34.6172L29.9947 39.2256L34.6036 34.6172L39.2125 30.0088L34.6335 25.4293C32.1151 22.9106 30.0276 20.8497 29.9947 20.8497C29.9618 20.8497 27.8744 22.9106 25.3559 25.4293Z" fill="#2395E8"/>
</svg>
