<svg width="60" height="60" viewBox="0 0 60 60" fill="none" xmlns="http://www.w3.org/2000/svg">
<path fill-rule="evenodd" clip-rule="evenodd" d="M8.33323 0.113627C7.35776 0.275794 5.99327 0.768976 5.02918 1.30789C3.82553 1.98059 1.98404 3.82117 1.31101 5.02422C-1.6384 10.2954 0.610993 16.9027 6.13792 19.2023C7.3601 19.7109 8.24078 19.89 10.1914 20.0268C12.0886 20.1597 12.9083 20.343 14.1354 20.9086C15.3784 21.4817 16.2522 22.1227 17.3043 23.2336C18.0485 24.0195 18.3769 24.4872 18.8562 25.4443C19.7049 27.139 19.9537 28.1715 19.9537 29.9999C19.9537 31.8283 19.7049 32.8609 18.8562 34.5556C17.6291 37.0057 15.2404 38.9554 12.596 39.6653C12.2088 39.7692 11.1119 39.9085 10.1584 39.9747C8.18318 40.112 7.07162 40.3612 5.78715 40.9544C0.435373 43.4258 -1.61822 50.0413 1.39348 55.1083C2.44204 56.8725 4.45528 58.5884 6.31964 59.3071C8.90596 60.304 11.6677 60.2231 14.1414 59.0781C16.4038 58.0309 18.0448 56.4085 19.0573 54.218C19.7418 52.7372 19.9236 51.8002 20.0476 49.1128C20.163 46.6088 20.3499 45.0858 20.7514 43.379C22.1006 37.6445 24.718 32.9327 28.837 28.8237C32.907 24.7637 37.6126 22.1268 43.1564 20.7997C45.0678 20.3422 46.53 20.1554 49.1395 20.0352C51.8404 19.9108 52.8488 19.7143 54.2909 19.0314C56.4737 17.9976 58.0697 16.3751 59.1101 14.1319C59.811 12.6207 59.9877 11.7762 59.985 9.94901C59.9826 8.24749 59.7928 7.30041 59.1746 5.90318C58.5262 4.43747 57.1713 2.79963 55.7677 1.78454C53.7552 0.329028 50.7686 -0.320223 48.2596 0.152439C44.3994 0.879549 41.3058 3.75773 40.3484 7.51265C40.2214 8.01064 40.0633 9.19786 39.9969 10.1509C39.9306 11.104 39.7913 12.2003 39.6873 12.5873C38.9791 15.2229 36.9791 17.6672 34.5529 18.8625C32.8615 19.6959 31.8291 19.9414 30.0172 19.9414C28.8947 19.9414 28.3307 19.883 27.6122 19.6922C25.7631 19.2013 24.1624 18.2654 22.8477 16.9068C21.9227 15.9507 21.4465 15.2638 20.9242 14.1321C20.3528 12.8937 20.1717 12.0805 20.0375 10.1509C19.9001 8.17667 19.6508 7.06566 19.0573 5.78182C18.0289 3.55687 16.1904 1.78325 13.8465 0.754905C12.3463 0.0967425 10.0454 -0.170955 8.33323 0.113627ZM41.1621 27.7047C37.6435 28.3371 34.7551 29.8291 32.3007 32.2823C30.0229 34.5589 28.5048 37.3642 27.8248 40.553C27.5571 41.8085 27.5264 45.4493 27.7728 46.709C29.0688 53.3325 34.1477 58.4233 40.7785 59.7453C42.2253 60.0337 45.4222 60.0331 46.7932 59.7442C53.4544 58.3401 58.2425 53.6139 59.7165 46.9882C60.068 45.4082 60.0977 42.3616 59.7772 40.7559C58.4846 34.2791 53.7124 29.3653 47.2624 27.8699C45.9545 27.5667 42.457 27.472 41.1621 27.7047Z" fill="#2395E8"/>
</svg>
