<svg width="150" height="151" viewBox="0 0 150 151" fill="none" xmlns="http://www.w3.org/2000/svg">
<circle cx="75" cy="75.75" r="50" fill="#F3F5F8"/>
<path d="M59.0999 129.073C59.3801 129.908 60.2842 130.358 61.1193 130.078C61.9543 129.797 62.4041 128.893 62.1237 128.058L59.0999 129.073ZM60.6118 108.789L62.0571 109.464L60.6118 108.789ZM59.3359 82.6338L57.8025 83.0719L57.8249 83.1504L57.8553 83.2261L59.3359 82.6338ZM66.9912 46.9091L68.0864 48.0685L68.0952 48.0601L68.1041 48.0516L66.9912 46.9091ZM76.2055 63.7965C76.0192 62.9356 75.1704 62.3886 74.3095 62.5747C73.4486 62.7608 72.9016 63.6096 73.0877 64.4705L76.2055 63.7965ZM82.3018 92.2029L83.7091 91.4524L82.3018 92.2029ZM88.4442 129.07C88.7227 129.906 89.6259 130.357 90.4616 130.079C91.2971 129.8 91.7488 128.897 91.4702 128.061L88.4442 129.07ZM79.7276 49.9032C78.915 49.5634 77.9807 49.9466 77.6409 50.7592C77.301 51.5718 77.6842 52.506 78.4968 52.8461L79.7276 49.9032ZM92.5089 71.7888L94.1026 71.8526L92.5089 71.7888ZM95.6986 103.686L97.2263 103.228L95.6986 103.686ZM84.8536 54.5532L83.8616 55.802L84.8536 54.5532ZM80.6972 25.3951C80.7945 24.5197 80.1638 23.7312 79.2883 23.6339C78.4129 23.5366 77.6244 24.1675 77.5271 25.0429L80.6972 25.3951ZM102.367 29.3554C102.537 28.4914 101.975 27.6526 101.111 27.482C100.247 27.3114 99.4081 27.8737 99.2376 28.7379L102.367 29.3554ZM60.6118 128.566C62.1237 128.058 62.1239 128.058 62.124 128.059C62.124 128.059 62.124 128.059 62.1242 128.059C62.1242 128.059 62.1242 128.059 62.1242 128.059C62.124 128.059 62.1237 128.058 62.1231 128.056C62.122 128.053 62.1199 128.046 62.117 128.037C62.1113 128.02 62.102 127.991 62.0897 127.953C62.0653 127.875 62.0287 127.757 61.9826 127.602C61.8904 127.291 61.7609 126.832 61.6162 126.253C61.3264 125.092 60.9785 123.461 60.7469 121.584C60.2775 117.782 60.3152 113.196 62.0571 109.464L59.1665 108.115C57.0478 112.655 57.0854 117.958 57.5813 121.975C57.8321 124.009 58.2082 125.77 58.5216 127.025C58.6785 127.654 58.8205 128.158 58.9244 128.508C58.9763 128.684 59.0189 128.821 59.049 128.916C59.0641 128.964 59.0761 129.001 59.0847 129.027C59.089 129.04 59.0925 129.051 59.0949 129.058C59.0962 129.062 59.0973 129.065 59.0981 129.068C59.0986 129.069 59.0989 129.07 59.0992 129.071C59.0992 129.072 59.0996 129.072 59.0996 129.072C59.0997 129.073 59.0999 129.073 60.6118 128.566ZM62.0571 109.464C64.4615 104.312 64.6621 98.7678 64.0273 93.9101C63.3918 89.047 61.9049 84.762 60.8167 82.0415L57.8553 83.2261C58.8935 85.8218 60.2774 89.8299 60.8646 94.3234C61.4524 98.822 61.2277 103.698 59.1665 108.115L62.0571 109.464ZM60.8695 82.1957C58.3707 73.4501 57.2666 58.2872 68.0864 48.0685L65.8962 45.7496C53.7501 57.2209 55.1977 73.9551 57.8025 83.0719L60.8695 82.1957ZM68.1041 48.0516L81.0476 35.4449L78.822 33.1598L65.8785 45.7665L68.1041 48.0516ZM73.0877 64.4705C74.7293 72.0628 75.6518 83.1228 80.8947 92.9535L83.7091 91.4524C78.745 82.1448 77.9662 71.9401 76.2055 63.7965L73.0877 64.4705ZM80.8947 92.9535C82.398 95.7722 82.527 98.3023 82.4816 101.349C82.436 104.393 82.2085 107.974 83.3064 112.366L86.4009 111.592C85.4255 107.691 85.6233 104.574 85.6708 101.397C85.7183 98.2245 85.6081 95.0131 83.7091 91.4524L80.8947 92.9535ZM83.3064 112.366C84.3447 116.519 87.1725 125.255 88.4442 129.07L91.4702 128.061C90.1901 124.221 87.4041 115.605 86.4009 111.592L83.3064 112.366ZM90.9153 71.725C90.2707 87.8429 92.2044 97.5889 94.171 104.144L97.2263 103.228C95.3653 97.024 93.4714 87.6318 94.1026 71.8526L90.9153 71.725ZM94.171 104.144C94.8677 106.466 95.2414 110.939 95.3965 115.778C95.5493 120.547 95.486 125.455 95.3806 128.511L98.5685 128.621C98.6757 125.509 98.74 120.529 98.5845 115.676C98.4312 110.893 98.0607 106.009 97.2263 103.228L94.171 104.144ZM79.1121 51.3746C78.4968 52.8461 78.4967 52.8459 78.4965 52.8459C78.4963 52.8457 78.4963 52.8457 78.4963 52.8459C78.4965 52.8459 78.4968 52.8461 78.4973 52.8462C78.4984 52.8467 78.5003 52.8475 78.5032 52.8486C78.5088 52.851 78.5177 52.8548 78.53 52.8599C78.5544 52.8705 78.5917 52.8864 78.6407 52.9076C78.7388 52.95 78.8831 53.0132 79.0638 53.0945C79.4255 53.2575 79.9292 53.4917 80.4941 53.7744C81.6497 54.3532 82.963 55.0881 83.8616 55.802L85.8458 53.3046C84.6783 52.377 83.1211 51.5228 81.9224 50.9225C81.3101 50.6158 80.7658 50.363 80.3738 50.1863C80.1775 50.098 80.0186 50.0283 79.9076 49.9803C79.8521 49.9562 79.8084 49.9375 79.778 49.9246C79.7628 49.9181 79.7509 49.9131 79.7424 49.9096C79.7383 49.9077 79.7349 49.9063 79.7323 49.9053C79.7311 49.9048 79.7301 49.9043 79.7293 49.904C79.7288 49.9039 79.7285 49.9037 79.7282 49.9036C79.7282 49.9036 79.728 49.9034 79.7279 49.9034C79.7277 49.9034 79.7276 49.9032 79.1121 51.3746ZM83.8616 55.802C87.5987 58.7708 91.2295 63.8732 90.9153 71.725L94.1026 71.8526C94.4648 62.7976 90.2214 56.7807 85.8458 53.3046L83.8616 55.802ZM86.4419 54.4087C86.3518 53.4189 86.4087 51.4231 86.8649 49.1785C87.3213 46.9323 88.1463 44.596 89.4822 42.8147L86.9304 40.9009C85.2043 43.2024 84.2466 46.0461 83.7391 48.5431C83.2313 51.0418 83.1428 53.3521 83.2654 54.6978L86.4419 54.4087ZM79.1121 25.219C77.5271 25.0429 77.527 25.0434 77.527 25.0439C77.527 25.0442 77.5268 25.0448 77.5268 25.0452C77.5267 25.0462 77.5267 25.0473 77.5265 25.0486C77.5262 25.0512 77.5259 25.0545 77.5254 25.0585C77.5246 25.0665 77.5235 25.0773 77.522 25.0907C77.5193 25.1176 77.5157 25.1552 77.5112 25.2031C77.5024 25.2987 77.4909 25.435 77.4788 25.6072C77.4547 25.9514 77.4284 26.4404 77.4179 27.0349C77.397 28.219 77.4383 29.8451 77.6937 31.5902C78.1861 34.9553 79.5649 39.3493 83.5024 41.3181L84.929 38.4653C82.4871 37.2444 81.3141 34.302 80.8497 31.1283C80.6266 29.6038 80.5881 28.1598 80.6071 27.0913C80.6165 26.5594 80.64 26.1263 80.6607 25.8301C80.6711 25.6821 80.6808 25.5686 80.6877 25.4945C80.691 25.4574 80.6937 25.4302 80.6953 25.4134C80.6963 25.405 80.6969 25.3993 80.6972 25.3962C80.6974 25.3947 80.6974 25.3938 80.6974 25.3936C80.6974 25.3935 80.6974 25.3936 80.6974 25.3939C80.6974 25.394 80.6974 25.3943 80.6974 25.3944C80.6974 25.3947 80.6972 25.3951 79.1121 25.219ZM83.5024 41.3181C86.5917 42.8627 89.1978 44.2263 91.3368 44.7432C92.4548 45.0134 93.5875 45.0939 94.6956 44.782C95.8246 44.4641 96.7625 43.7857 97.5619 42.8265L95.1114 40.7845C94.6348 41.3564 94.2171 41.603 93.831 41.7117C93.424 41.8264 92.8821 41.8352 92.0863 41.6428C90.3976 41.2347 88.2192 40.1103 84.929 38.4653L83.5024 41.3181ZM97.5619 42.8265C98.3644 41.8634 99.037 40.4931 99.5908 39.1147C100.158 37.7039 100.653 36.1465 101.061 34.7137C101.469 33.2766 101.794 31.941 102.018 30.9659C102.13 30.4776 102.216 30.0781 102.275 29.7991C102.305 29.6597 102.327 29.5503 102.343 29.4751C102.35 29.4374 102.356 29.4084 102.36 29.3883C102.362 29.3783 102.364 29.3704 102.365 29.3649C102.366 29.3621 102.366 29.3601 102.366 29.3585C102.367 29.3577 102.367 29.357 102.367 29.3566C102.367 29.3562 102.367 29.3561 102.367 29.3559C102.367 29.3556 102.367 29.3554 100.802 29.0467C99.2376 28.7379 99.2376 28.7378 99.2376 28.7376C99.2376 28.7378 99.2376 28.7376 99.2376 28.7378C99.2376 28.7378 99.2376 28.7381 99.2374 28.7384C99.2373 28.7392 99.2369 28.7406 99.2366 28.7425C99.2358 28.7464 99.2346 28.7526 99.233 28.7609C99.2296 28.7776 99.2244 28.8035 99.2175 28.8376C99.2035 28.9059 99.1824 29.0078 99.1547 29.1395C99.099 29.4028 99.0162 29.7848 98.9087 30.2533C98.6936 31.1921 98.3813 32.4721 97.9922 33.8419C97.6019 35.2161 97.1407 36.6568 96.631 37.9256C96.1083 39.2265 95.5847 40.2166 95.1114 40.7845L97.5619 42.8265Z" fill="#2395E8"/>
<path d="M52.15 89.0521C52.5238 89.8496 53.4735 90.1931 54.271 89.8192C55.0685 89.4454 55.4121 88.4958 55.0382 87.6983L52.15 89.0521ZM72.2345 34.8296C72.841 34.1907 72.8147 33.1813 72.1759 32.575C71.537 31.9684 70.5276 31.9948 69.9213 32.6335L72.2345 34.8296ZM69.1822 35.7283L68.0256 34.6303L69.1822 35.7283ZM52.9203 81.488C52.7094 80.6327 51.8453 80.1102 50.9902 80.3211C50.1349 80.5318 49.6124 81.3959 49.8232 82.2512L52.9203 81.488ZM48.554 74.2197C48.618 75.0981 49.3819 75.7584 50.2605 75.6944C51.139 75.6305 51.7993 74.8665 51.7353 73.9881L48.554 74.2197ZM52.8035 61.815C53.0533 60.9704 52.5712 60.0832 51.7264 59.8334C50.8817 59.5837 49.9945 60.066 49.7448 60.9106L52.8035 61.815ZM52.4488 54.3178C52.0404 55.0981 52.3418 56.0619 53.1222 56.4705C53.9026 56.879 54.8663 56.5774 55.2748 55.797L52.4488 54.3178ZM61.8191 46.226C62.3795 45.5464 62.2832 44.5413 61.6038 43.9807C60.9242 43.4201 59.9191 43.5166 59.3586 44.196L61.8191 46.226ZM63.9187 39.0008C63.3221 39.6486 63.3636 40.6577 64.0115 41.2543C64.6594 41.851 65.6684 41.8095 66.2651 41.1615L63.9187 39.0008ZM70.9421 36.191C71.5485 35.5522 71.5222 34.5427 70.8835 33.9363C70.2447 33.33 69.2352 33.3561 68.6288 33.995L70.9421 36.191ZM69.3181 33.2689C68.7116 33.9076 68.7379 34.9172 69.3766 35.5235C70.0155 36.1301 71.0249 36.1037 71.6314 35.465L69.3181 33.2689ZM55.0382 87.6983C54.3252 86.1774 53.5515 84.05 52.9203 81.488L49.8232 82.2512C50.4982 84.9902 51.3375 87.3187 52.15 89.0521L55.0382 87.6983ZM51.7353 73.9881C51.5812 71.8724 51.5699 69.6432 51.7583 67.3533L48.5794 67.0918C48.3764 69.56 48.3891 71.9545 48.554 74.2197L51.7353 73.9881ZM51.7583 67.3533C51.915 65.4473 52.2744 63.6046 52.8035 61.815L49.7448 60.9106C49.1575 62.8963 48.7552 64.9543 48.5794 67.0918L51.7583 67.3533ZM55.2748 55.797C57.0202 52.4628 59.2855 49.2969 61.8191 46.226L59.3586 44.196C56.7412 47.3687 54.3309 50.7222 52.4488 54.3178L55.2748 55.797ZM66.2651 41.1615C67.6116 39.6992 68.9782 38.2597 70.339 36.8264L68.0256 34.6303C66.6676 36.0607 65.2844 37.5177 63.9187 39.0008L66.2651 41.1615ZM70.339 36.8264L70.9421 36.191L68.6288 33.995L68.0256 34.6303L70.339 36.8264ZM71.6314 35.465L72.2345 34.8296L69.9213 32.6335L69.3181 33.2689L71.6314 35.465Z" fill="#2395E8"/>
<path d="M55.0182 44.2104C55.6412 44.8332 56.6509 44.8332 57.2737 44.2104C57.8966 43.5876 57.8966 42.5778 57.2738 41.955L55.0182 44.2104ZM42.9887 28.3301C42.1079 28.3301 41.3939 29.0441 41.3939 29.925L41.3936 44.2787C41.3936 45.1594 42.1076 45.8735 42.9884 45.8735C43.8692 45.8735 44.5833 45.1595 44.5833 44.2787L44.5836 31.5198L57.3424 31.52C58.2231 31.52 58.9373 30.806 58.9373 29.9251C58.9373 29.0443 58.2233 28.3303 57.3424 28.3303L42.9887 28.3301ZM57.2738 41.955L44.1165 28.7973L41.861 31.0527L55.0182 44.2104L57.2738 41.955Z" fill="#2395E8"/>
<path fill-rule="evenodd" clip-rule="evenodd" d="M44.3442 128.566C44.3442 127.685 45.0583 126.971 45.9391 126.971H104.949C105.83 126.971 106.544 127.685 106.544 128.566C106.544 129.446 105.83 130.16 104.949 130.16H45.9391C45.0583 130.16 44.3442 129.446 44.3442 128.566Z" fill="#2395E8"/>
</svg>
