<svg width="150" height="151" viewBox="0 0 150 151" fill="none" xmlns="http://www.w3.org/2000/svg">
<circle cx="75" cy="75.75" r="50" fill="#F3F5F8"/>
<path fill-rule="evenodd" clip-rule="evenodd" d="M97.4521 65.0994C107.552 65.0994 115.74 56.9118 115.74 46.8119C115.74 36.712 107.552 28.5244 97.4521 28.5244C87.3522 28.5244 79.1646 36.712 79.1646 46.8119C79.1646 56.9118 87.3522 65.0994 97.4521 65.0994ZM97.4521 67.9129C109.106 67.9129 118.553 58.4656 118.553 46.8119C118.553 35.1582 109.106 25.7109 97.4521 25.7109C85.7984 25.7109 76.3512 35.1582 76.3512 46.8119C76.3512 53.0274 79.0385 58.6152 83.3147 62.4768L72.8325 72.9589C72.6969 72.8208 72.5601 72.6828 72.4221 72.5448L48.1548 48.2775C45.8569 45.9796 42.1332 45.9817 39.8363 48.2787C38.9923 49.1227 38.4584 50.1593 38.2345 51.247C35.7711 49.7046 32.4836 50.0046 30.3409 52.1473C28.9192 53.5691 28.3087 55.4949 28.5094 57.3495C26.6548 57.1487 24.729 57.7592 23.3073 59.181C21.4044 61.0838 20.9548 63.8895 21.9583 66.2191C20.5392 66.2877 19.1409 66.8643 18.0589 67.9463C15.7466 70.2586 15.7466 74.0074 18.0589 76.3197L30.3415 88.6023C29.5057 88.7985 28.7013 89.1789 27.9912 89.747C25.2692 91.9246 24.9982 95.9669 27.4051 98.4884L37.5153 109.08C38.5182 110.131 39.8107 110.86 41.2287 111.175L48.7429 112.845C54.7812 114.187 60.2535 117.371 64.4034 121.958L69.2795 127.347H52.4367C51.6598 127.347 51.03 127.977 51.03 128.754C51.03 129.531 51.6598 130.161 52.4367 130.161H132.269C133.046 130.161 133.675 129.531 133.675 128.754C133.675 127.977 133.046 127.347 132.269 127.347H120.619C120.558 127.112 120.436 126.888 120.251 126.704L85.3229 91.7758C84.2806 88.6617 80.9968 81.9493 74.7599 75.0104L85.5394 64.2309C88.9295 66.5539 93.0321 67.9129 97.4521 67.9129ZM70.843 74.9484L66.9161 78.8754C66.3667 79.4247 66.3667 80.3154 66.9161 80.8648C67.4654 81.4142 68.3561 81.4142 68.9055 80.8648L72.7675 77.0028C78.9169 83.8778 81.9688 90.4265 82.7435 92.9441L82.8462 93.278L116.915 127.347H73.0736L66.4897 120.07C61.9486 115.051 55.9606 111.567 49.3533 110.098L41.839 108.429C40.9651 108.234 40.1685 107.785 39.5504 107.137L29.4402 96.5457C28.1731 95.2183 28.3158 93.0903 29.7488 91.944C30.984 90.9558 32.7606 91.0463 33.8889 92.1497L42.2982 100.559C42.8475 101.108 43.7383 101.108 44.2877 100.559C44.837 100.009 44.837 99.1187 44.2877 98.5693L35.9035 90.1852L35.8692 90.1511L20.0483 74.3303C18.8348 73.1167 18.8348 71.1493 20.0483 69.9357C21.2473 68.7367 23.1861 68.7203 24.4053 69.8988L42.3152 87.2117C42.8738 87.7517 43.7643 87.7366 44.3043 87.178C44.8388 86.6251 44.8294 85.747 44.2875 85.2055L25.2967 66.2146C23.9038 64.8217 23.9038 62.5633 25.2967 61.1704C26.6896 59.7775 28.948 59.7775 30.3409 61.1704L49.3318 80.1613C49.8812 80.7106 50.7718 80.7106 51.3212 80.1613C51.8706 79.6119 51.8706 78.7212 51.3212 78.1718L32.3303 59.181C30.9374 57.7881 30.9374 55.5297 32.3303 54.1367C33.7233 52.7438 35.9817 52.7438 37.3746 54.1367L39.8363 56.5984L55.662 72.4241C56.2114 72.9735 57.1021 72.9736 57.6515 72.4242C58.2009 71.8749 58.2009 70.9842 57.6515 70.4348L41.8257 54.609C40.627 53.4103 40.627 51.4668 41.8257 50.2681C43.0249 49.0689 44.9672 49.0687 46.1654 50.2669L70.4327 74.5342C70.5707 74.6722 70.7075 74.8103 70.843 74.9484ZM94.6387 38.3715C94.6387 39.9253 93.3791 41.185 91.8252 41.185C90.2714 41.185 89.0118 39.9253 89.0118 38.3715C89.0118 36.8177 90.2714 35.5581 91.8252 35.5581C93.3791 35.5581 94.6387 36.8177 94.6387 38.3715ZM97.4521 38.3715C97.4521 41.4792 94.9329 43.9984 91.8252 43.9984C88.7176 43.9984 86.1983 41.4792 86.1983 38.3715C86.1983 35.2639 88.7176 32.7446 91.8252 32.7446C94.9329 32.7446 97.4521 35.2639 97.4521 38.3715ZM104.486 56.659C106.817 56.659 108.706 54.7696 108.706 52.4388C108.706 50.1081 106.817 48.2186 104.486 48.2186C102.155 48.2186 100.266 50.1081 100.266 52.4388C100.266 54.7696 102.155 56.659 104.486 56.659ZM104.486 59.4725C108.37 59.4725 111.519 56.3234 111.519 52.4388C111.519 48.5542 108.37 45.4052 104.486 45.4052C100.601 45.4052 97.4521 48.5542 97.4521 52.4388C97.4521 56.3234 100.601 59.4725 104.486 59.4725ZM87.605 55.2523C88.3819 55.2523 89.0118 54.6225 89.0118 53.8456C89.0118 53.0686 88.3819 52.4388 87.605 52.4388C86.8281 52.4388 86.1983 53.0686 86.1983 53.8456C86.1983 54.6225 86.8281 55.2523 87.605 55.2523ZM62.2839 79.1667C62.2839 79.9436 61.6541 80.5734 60.8771 80.5734C60.1002 80.5734 59.4704 79.9436 59.4704 79.1667C59.4704 78.3898 60.1002 77.76 60.8771 77.76C61.6541 77.76 62.2839 78.3898 62.2839 79.1667ZM53.8435 87.6071C54.6204 87.6071 55.2502 86.9773 55.2502 86.2004C55.2502 85.4235 54.6204 84.7936 53.8435 84.7936C53.0666 84.7936 52.4368 85.4235 52.4368 86.2004C52.4368 86.9773 53.0666 87.6071 53.8435 87.6071ZM62.2839 86.2004C62.2839 86.9773 61.6541 87.6071 60.8771 87.6071C60.1002 87.6071 59.4704 86.9773 59.4704 86.2004C59.4704 85.4235 60.1002 84.7936 60.8771 84.7936C61.6541 84.7936 62.2839 85.4235 62.2839 86.2004ZM77.7579 93.234C77.7579 94.0109 77.1281 94.6407 76.3512 94.6407C75.5743 94.6407 74.9444 94.0109 74.9444 93.234C74.9444 92.4571 75.5743 91.8273 76.3512 91.8273C77.1281 91.8273 77.7579 92.4571 77.7579 93.234ZM62.2839 93.234C62.2839 94.0109 61.6541 94.6407 60.8771 94.6407C60.1002 94.6407 59.4704 94.0109 59.4704 93.234C59.4704 92.4571 60.1002 91.8273 60.8771 91.8273C61.6541 91.8273 62.2839 92.4571 62.2839 93.234ZM69.3175 103.081C70.0944 103.081 70.7243 102.451 70.7243 101.674C70.7243 100.897 70.0944 100.268 69.3175 100.268C68.5406 100.268 67.9108 100.897 67.9108 101.674C67.9108 102.451 68.5406 103.081 69.3175 103.081ZM77.7579 100.268C77.7579 101.045 77.1281 101.674 76.3512 101.674C75.5743 101.674 74.9444 101.045 74.9444 100.268C74.9444 99.4908 75.5743 98.8609 76.3512 98.8609C77.1281 98.8609 77.7579 99.4908 77.7579 100.268ZM105.893 38.3715C106.669 38.3715 107.299 37.7417 107.299 36.9648C107.299 36.1879 106.669 35.5581 105.893 35.5581C105.116 35.5581 104.486 36.1879 104.486 36.9648C104.486 37.7417 105.116 38.3715 105.893 38.3715ZM67.9108 87.6071C68.6877 87.6071 69.3175 86.9773 69.3175 86.2004C69.3175 85.4235 68.6877 84.7936 67.9108 84.7936C67.1339 84.7936 66.5041 85.4235 66.5041 86.2004C66.5041 86.9773 67.1339 87.6071 67.9108 87.6071ZM67.9108 94.6407C68.6877 94.6407 69.3175 94.0109 69.3175 93.234C69.3175 92.4571 68.6877 91.8273 67.9108 91.8273C67.1339 91.8273 66.5041 92.4571 66.5041 93.234C66.5041 94.0109 67.1339 94.6407 67.9108 94.6407Z" fill="#2395E8"/>
</svg>
