<svg width="150" height="151" viewBox="0 0 150 151" fill="none" xmlns="http://www.w3.org/2000/svg">
<circle cx="75" cy="75.75" r="50" fill="#F3F5F8"/>
<path fill-rule="evenodd" clip-rule="evenodd" d="M51.7741 39.1476C59.3616 37.883 64.9228 31.3182 64.9228 23.626H67.6847C67.6847 32.6683 61.1474 40.3853 52.2281 41.8719L49.9594 42.25C41.0627 43.7328 34.5419 51.4303 34.5419 60.4497V127.402H43.5655C43.7595 124.973 44.5275 122.656 45.4721 120.423C46.021 119.126 46.642 117.829 47.2594 116.546L47.3403 116.378C47.9349 115.142 48.525 113.916 49.0704 112.664C51.3307 107.473 52.736 102.037 49.844 95.2889C44.7849 83.4841 43.5181 71.1862 43.5181 66.4354C43.5181 65.6727 44.1364 65.0545 44.899 65.0545C45.6617 65.0545 46.28 65.6727 46.28 66.4354C46.28 70.891 47.4989 82.8057 52.3826 94.2009C55.7049 101.953 54.0031 108.254 51.6026 113.766C51.036 115.068 50.4256 116.336 49.8367 117.56L49.8362 117.561L49.8361 117.561L49.8359 117.561L49.7482 117.744C49.1277 119.033 48.5349 120.272 48.0157 121.499C47.1515 123.542 46.5252 125.477 46.338 127.402H105.603C105.416 125.477 104.789 123.542 103.925 121.499C103.406 120.272 102.813 119.033 102.193 117.744L102.105 117.561L102.105 117.561L102.104 117.56C101.515 116.336 100.905 115.068 100.338 113.766C97.9377 108.254 96.2359 101.953 99.5582 94.2009C104.442 82.8057 105.661 70.891 105.661 66.4354C105.661 65.6727 106.279 65.0545 107.042 65.0545C107.804 65.0545 108.423 65.6727 108.423 66.4354C108.423 71.1862 107.156 83.4841 102.097 95.2889C99.2048 102.037 100.61 107.473 102.87 112.664C103.416 113.916 104.006 115.142 104.601 116.378L104.681 116.546C105.299 117.829 105.92 119.126 106.469 120.423C107.413 122.656 108.181 124.973 108.375 127.402H117.399V60.4497C117.399 51.4303 110.878 43.7328 101.981 42.25L99.7127 41.8719C90.7934 40.3853 84.2561 32.6683 84.2561 23.626H87.018C87.018 31.3182 92.5792 37.883 100.167 39.1476L102.435 39.5257C112.664 41.2304 120.161 50.0801 120.161 60.4497V127.402H132.717C133.48 127.402 134.098 128.02 134.098 128.783C134.098 129.546 133.48 130.164 132.717 130.164H24.348C23.5853 130.164 22.967 129.546 22.967 128.783C22.967 128.02 23.5853 127.402 24.348 127.402H31.78V60.4497C31.78 50.0801 39.2769 41.2304 49.5053 39.5257L51.7741 39.1476ZM56.6371 74.7211C56.6371 75.4838 56.0188 76.1021 55.2562 76.1021C54.4935 76.1021 53.8752 75.4838 53.8752 74.7211C53.8752 73.9584 54.4935 73.3402 55.2562 73.3402C56.0188 73.3402 56.6371 73.9584 56.6371 74.7211ZM60.78 78.864C61.5426 78.864 62.1609 78.2457 62.1609 77.483C62.1609 76.7203 61.5426 76.1021 60.78 76.1021C60.0173 76.1021 59.399 76.7203 59.399 77.483C59.399 78.2457 60.0173 78.864 60.78 78.864ZM56.6371 81.6259C56.6371 82.3885 56.0188 83.0068 55.2562 83.0068C54.4935 83.0068 53.8752 82.3885 53.8752 81.6259C53.8752 80.8632 54.4935 80.2449 55.2562 80.2449C56.0188 80.2449 56.6371 80.8632 56.6371 81.6259ZM63.5419 71.9592C64.3045 71.9592 64.9228 71.3409 64.9228 70.5783C64.9228 69.8156 64.3045 69.1973 63.5419 69.1973C62.7792 69.1973 62.1609 69.8156 62.1609 70.5783C62.1609 71.3409 62.7792 71.9592 63.5419 71.9592ZM66.3038 83.0068C66.3038 83.7695 65.6855 84.3877 64.9228 84.3877C64.1601 84.3877 63.5419 83.7695 63.5419 83.0068C63.5419 82.2441 64.1601 81.6259 64.9228 81.6259C65.6855 81.6259 66.3038 82.2441 66.3038 83.0068ZM75.9704 62.983C76.7331 62.983 77.3514 63.6013 77.3514 64.364V123.745C77.3514 124.507 76.7331 125.126 75.9704 125.126C75.2077 125.126 74.5895 124.507 74.5895 123.745V64.364C74.5895 63.6013 75.2077 62.983 75.9704 62.983ZM63.5378 50.4486C63.4793 49.6881 62.8154 49.1191 62.055 49.1776C61.2946 49.2361 60.7255 49.9 60.784 50.6604C61.0057 53.5422 60.7646 60.6164 58.1639 65.8178C57.8228 66.5 58.0993 67.3295 58.7814 67.6706C59.4636 68.0117 60.2931 67.7351 60.6342 67.053C63.5573 61.2068 63.7764 53.5509 63.5378 50.4486ZM89.9532 49.1776C89.1928 49.1191 88.5289 49.6881 88.4705 50.4486C88.2318 53.5509 88.451 61.2068 91.3741 67.053C91.7151 67.7351 92.5446 68.0117 93.2268 67.6706C93.909 67.3295 94.1855 66.5 93.8444 65.8178C91.2437 60.6164 91.0025 53.5422 91.2242 50.6604C91.2827 49.9 90.7137 49.2361 89.9532 49.1776Z" fill="#2395E8"/>
</svg>
