<svg width="150" height="151" viewBox="0 0 150 151" fill="none" xmlns="http://www.w3.org/2000/svg">
<circle cx="75" cy="75.75" r="50" fill="#F3F5F8"/>
<path fill-rule="evenodd" clip-rule="evenodd" d="M43.107 29.8139C44.4325 30.4954 46.4958 31.0155 48.9576 31.0155C51.4194 31.0155 53.4827 30.4954 54.8082 29.8139C55.5112 29.4525 55.8286 29.1575 55.9674 28.9887C55.8286 28.82 55.5112 28.5249 54.8082 28.1635C53.4827 27.4821 51.4194 26.9619 48.9576 26.9619C46.4958 26.9619 44.4325 27.4821 43.107 28.1635C42.404 28.5249 42.0867 28.82 41.9478 28.9887C42.0867 29.1575 42.404 29.4525 43.107 29.8139ZM38.503 28.6251H38.5501C38.9137 25.8329 43.4344 23.626 48.9576 23.626C54.7185 23.626 59.3887 26.027 59.3887 28.9887C59.3887 29.147 59.3754 29.3036 59.3492 29.4584C59.2971 36.7602 58.5644 42.603 57.6529 46.9472C60.4601 44.3107 64.0181 41.7936 68.2966 40.0456C76.3179 36.7685 86.7186 36.2609 99.1391 42.4712L99.1219 42.5056C99.2715 42.539 99.4187 42.5837 99.5632 42.6402C102.104 43.6336 102.82 47.8759 101.163 52.1156C99.5054 56.3553 96.1019 58.9869 93.5609 57.9935C93.3397 57.907 93.1323 57.7959 92.9391 57.6624L92.9262 57.6948C89.6327 56.3774 84.433 55.2105 79.5888 55.92C75.0752 56.5811 70.93 58.8395 68.7416 64.2186C72.1399 68.8214 74.4984 73.9287 75.8878 78.27C80.8443 70.0125 89.8856 64.4865 100.218 64.4865C115.878 64.4865 128.573 77.1818 128.573 92.8421C128.573 105.33 120.5 115.933 109.288 119.716V121.041C109.288 126.079 105.204 130.163 100.166 130.163C95.128 130.163 91.0441 126.079 91.0441 121.041V119.681C90.3263 119.436 89.6214 119.162 88.9308 118.862L88.9987 118.918C80.9493 128.756 69.5383 130.226 58.5645 126.966C47.6487 123.724 36.9443 115.777 29.6767 106.372C22.2527 96.7642 19.8909 83.1109 22.3833 71.8407C23.1074 68.5669 24.256 65.4528 25.8322 62.6805C25.6521 61.4688 25.4533 59.7037 25.7827 57.7413C26.2608 54.8929 27.7938 51.649 31.5429 48.2406C35.8596 44.3162 37.5608 40.4669 38.2225 37.1591C38.7326 34.609 38.6397 32.4327 38.5582 30.5211L38.5582 30.521C38.5299 29.8588 38.503 29.2284 38.503 28.6251ZM94.38 120.596V121.041C94.38 124.237 96.9704 126.827 100.166 126.827C103.361 126.827 105.952 124.237 105.952 121.041V120.618C104.1 120.998 102.182 121.198 100.218 121.198C98.2165 121.198 96.2639 120.99 94.38 120.596ZM41.4936 37.8134C41.8394 36.0848 41.9449 34.4293 41.9559 32.9639C43.807 33.8262 46.263 34.3515 48.9576 34.3515C51.6384 34.3515 54.083 33.8316 55.9308 32.9771C55.5379 42.7948 53.8753 49.2146 52.706 52.2295C50.3745 51.5326 47.8652 51.1428 45.1744 51.1428C38.3255 51.1428 32.9737 53.8616 29.101 58.1329C29.4715 56.1366 30.6056 53.6012 33.7869 50.709C38.6438 46.2935 40.6956 41.8029 41.4936 37.8134ZM91.0847 53.564C90.9944 52.0364 91.2735 50.277 91.9611 48.5181C92.6643 46.7195 93.6817 45.2103 94.8142 44.1445C84.51 39.7676 76.0645 40.4756 69.5583 43.1338C63.447 45.6306 58.9341 49.8969 56.1869 53.5481C60.1985 55.4018 63.5961 58.1761 66.403 61.3307C69.2722 55.8102 74.1261 53.3486 79.1053 52.6193C83.3128 52.003 87.6415 52.6053 91.0847 53.564ZM29.3189 63.4684L29.2266 63.4786C27.5841 66.11 26.3851 69.1944 25.6406 72.5611C23.3376 82.9746 25.5627 95.5919 32.3164 104.332C39.2266 113.275 49.3719 120.756 59.5143 123.769C69.3777 126.698 79.0223 125.376 85.9549 117.355C77.5262 112.44 71.862 103.303 71.862 92.8421C71.862 89.3317 72.4999 85.9704 73.666 82.8676C72.6752 78.0962 69.9166 71.0287 65.2419 65.1335C60.4715 59.1177 53.8447 54.4787 45.1744 54.4787C38.0539 54.4787 32.7317 57.9408 29.3056 63.3529C29.3102 63.3914 29.3146 63.4299 29.3189 63.4684ZM101.886 117.807C114.305 116.989 124.249 107.11 125.168 94.7184H120.087C119.166 94.7184 118.419 93.9717 118.419 93.0505C118.419 92.1293 119.166 91.3825 120.087 91.3825H125.195C124.471 78.7965 114.444 68.704 101.886 67.8772V72.9307C101.886 73.8519 101.139 74.5987 100.218 74.5987C99.2968 74.5987 98.55 73.8519 98.55 72.9307V67.8772C85.9914 68.7036 75.9638 78.7963 75.2398 91.3825H80.4894C81.4106 91.3825 82.1574 92.1293 82.1574 93.0505C82.1574 93.9717 81.4106 94.7184 80.4894 94.7184H75.2672C76.186 107.11 86.1304 116.99 98.55 117.807V112.611C98.55 111.69 99.2968 110.943 100.218 110.943C101.139 110.943 101.886 111.69 101.886 112.611V117.807ZM98.056 50.9009C97.4093 52.5551 96.4744 53.7425 95.6527 54.3779C95.2117 54.7188 94.9298 54.8217 94.7893 54.8514C94.7062 54.7343 94.5687 54.4675 94.476 53.9178C94.303 52.8936 94.4214 51.387 95.0681 49.7328C95.7148 48.0786 96.6497 46.8912 97.4714 46.2558C97.9124 45.9149 98.1943 45.812 98.3348 45.7823C98.4179 45.8994 98.5553 46.1662 98.6481 46.7159C98.821 47.7401 98.7027 49.2467 98.056 50.9009ZM94.6823 54.8616C94.6823 54.8613 94.6869 54.8613 94.696 54.8628C94.6867 54.8627 94.6822 54.862 94.6823 54.8616ZM94.8501 54.9231C94.8577 54.9281 94.8612 54.9312 94.861 54.9315C94.8607 54.9318 94.8569 54.9293 94.8501 54.9231ZM98.4418 45.7721C98.4418 45.7724 98.4372 45.7724 98.4281 45.7709C98.4373 45.771 98.4418 45.7717 98.4418 45.7721ZM98.274 45.7106C98.2663 45.7056 98.2629 45.7025 98.2631 45.7022C98.2633 45.7019 98.2672 45.7045 98.274 45.7106ZM103.241 92.8421C103.241 94.5118 101.887 95.8653 100.218 95.8653C98.5479 95.8653 97.1943 94.5118 97.1943 92.8421C97.1943 91.1724 98.5479 89.8189 100.218 89.8189C101.887 89.8189 103.241 91.1724 103.241 92.8421ZM106.577 92.8421C106.577 96.3542 103.73 99.2012 100.218 99.2012C96.7055 99.2012 93.8584 96.3542 93.8584 92.8421C93.8584 89.33 96.7055 86.4829 100.218 86.4829C101.474 86.4829 102.646 86.8475 103.632 87.4767L114.236 76.4649C114.875 75.8013 115.931 75.7814 116.595 76.4204C117.258 77.0593 117.278 78.1153 116.639 78.7788L105.882 89.9495C106.326 90.8173 106.577 91.8004 106.577 92.8421Z" fill="#2395E8" stroke="#F3F5F8" stroke-width="0.7"/>
</svg>
