<svg width="150" height="151" viewBox="0 0 150 151" fill="none" xmlns="http://www.w3.org/2000/svg">
<circle cx="75" cy="75.75" r="50" fill="#F3F5F8"/>
<path fill-rule="evenodd" clip-rule="evenodd" d="M111.18 27.1964C111.18 28.0178 110.514 28.6838 109.693 28.6838C108.871 28.6838 108.205 28.0178 108.205 27.1964C108.205 26.3749 108.871 25.709 109.693 25.709C110.514 25.709 111.18 26.3749 111.18 27.1964ZM116.647 41.6201C122.15 43.6319 126.658 47.3332 129.315 50.3904L129.382 50.4677L129.438 50.5536C136.394 61.2199 136.267 70.6946 133.119 78.1855C130.158 85.2331 124.585 90.3934 120.108 93.1651C118.196 109.147 107.117 119.324 94.9483 124.881C88.765 127.705 82.2483 129.365 76.3862 130.012C70.5546 130.655 65.2401 130.309 61.5097 128.999C55.1505 126.764 52.802 120.446 52.2338 114.171C52.0106 111.705 52.0499 109.157 52.2543 106.703C49.062 107.318 45.7379 107.182 42.8009 106.742C36.9253 105.863 34.5185 99.6799 36.4009 94.5837L39.0188 87.4961C40.3953 83.7697 44.9672 82.4131 48.1534 84.7857L50.4408 86.4891C51.0636 85.8729 51.7103 85.281 52.3753 84.7293C55.7891 81.8975 60.2493 79.6902 64.5274 81.8292C66.7105 82.9208 68.0897 85.0037 68.9531 87.3627C69.3408 88.4221 69.6383 89.5726 69.8613 90.7782C71.0486 88.9367 72.6949 87.2632 74.4929 85.8487C75.4033 85.1325 76.3799 84.4594 77.3993 83.8408C78.0317 80.5959 78.0107 76.5663 76.3386 73.2448C74.5758 69.7433 70.8142 66.7073 63.0644 66.4255C54.4313 66.1116 49.3793 62.5004 46.7243 57.9071C44.1324 53.4229 43.9486 48.2201 44.5482 44.7891C44.6896 43.9799 45.4603 43.4386 46.2695 43.58C47.0787 43.7214 47.62 44.492 47.4786 45.3012C46.9626 48.2537 47.1507 52.7003 49.2999 56.4185C51.386 60.0276 55.4443 63.1717 63.1725 63.4527C71.7842 63.7658 76.6525 67.2528 78.9957 71.9072C80.6514 75.1962 80.9591 78.9002 80.6507 82.1191C82.6437 81.2082 84.6998 80.5214 86.6723 80.1298C85.4571 78.0217 84.6207 75.9395 84.0743 74.0431C83.4835 71.9922 83.8329 70.0395 84.5221 68.302C85.2017 66.5888 86.2567 64.9767 87.199 63.5737C87.9511 62.4541 88.5507 61.1852 88.8008 59.8342C89.1213 58.1034 89.6045 56.1333 90.1081 54.2755C91.2904 49.9141 93.6761 45.5567 97.8624 43.1248C104.494 39.2724 111.101 39.5919 116.647 41.6201ZM88.4565 82.8501C84.5717 83.3457 79.9071 85.3743 76.3323 88.1867C72.4756 91.2208 70.4328 94.7003 71.0802 97.7221C71.4879 99.6247 72.8614 101.201 75.1302 102.477C77.4063 103.757 80.4328 104.643 83.788 105.19C90.4975 106.284 98.1166 105.962 102.635 105.124C103.442 104.974 104.219 105.507 104.368 106.315C104.518 107.123 103.985 107.899 103.177 108.049C98.337 108.946 90.3722 109.277 83.3093 108.126C79.7783 107.55 76.3715 106.588 73.6718 105.07C72.3727 104.339 71.2032 103.458 70.2663 102.405C70.0185 105.856 69.5323 109.099 69.0384 111.53C68.8748 112.335 68.0897 112.856 67.2846 112.692C66.4796 112.528 65.9596 111.743 66.1231 110.938C66.9125 107.052 67.6738 101.018 67.4059 95.5782C67.2718 92.8554 66.8831 90.362 66.1595 88.3852C65.4325 86.399 64.435 85.1089 63.197 84.49C60.6332 83.208 57.5324 84.3164 54.2746 87.0189C51.1072 89.6464 48.3174 93.3761 46.7298 96.0121C46.306 96.7158 45.392 96.9427 44.6883 96.5189C43.9846 96.0951 43.7577 95.181 44.1815 94.4773C45.1875 92.8071 46.6485 90.7133 48.4015 88.6795L46.3766 87.1716C44.7836 85.9853 42.4976 86.6636 41.8094 88.5268L39.1914 95.6144C37.7809 99.4331 39.7176 103.273 43.241 103.8C46.2962 104.257 49.6143 104.329 52.605 103.58C52.9799 100.915 53.5142 98.473 54.0633 96.5159C54.2852 95.7249 55.1063 95.2637 55.8972 95.4856C56.6881 95.7075 57.1494 96.5286 56.9275 97.3195C55.7503 101.515 54.6647 108.028 55.1965 113.903C55.7346 119.846 57.8482 124.559 62.4958 126.192C65.6446 127.298 70.4631 127.673 76.06 127.055C81.6264 126.441 87.834 124.86 93.7126 122.175C105.479 116.802 115.72 107.13 117.23 92.1207L117.306 91.3654L117.962 90.9838C122.126 88.5625 127.58 83.69 130.377 77.0332C133.124 70.4937 133.375 62.0878 127.002 52.2652C124.596 49.521 120.518 46.2027 115.626 44.414C110.733 42.6249 105.076 42.3748 99.3567 45.697C96.101 47.5884 94.0488 51.1084 92.9793 55.0538C92.4858 56.8745 92.0256 58.7577 91.7259 60.3759C91.3832 62.2265 90.5825 63.8716 89.6684 65.2324C88.7149 66.6521 87.8341 68.0204 87.2873 69.3989C86.7502 70.753 86.5824 72.0031 86.9329 73.2196C88.2774 77.8866 91.6214 83.899 98.7527 88.1562C99.7027 88.7232 99.9633 89.7542 99.8343 90.5465C99.7051 91.34 99.1272 92.241 98.0344 92.468C94.5855 93.1844 89.8262 94.6388 87.0039 96.8754C86.36 97.3856 85.4245 97.2773 84.9143 96.6335C84.4041 95.9896 84.5124 95.0541 85.1563 94.5439C88.1035 92.2084 92.5143 90.724 95.9298 89.8936C92.7496 87.7855 90.3083 85.3481 88.4565 82.8501ZM95.7482 70.8565C97.168 70.8565 98.3191 69.7055 98.3191 68.2856C98.3191 66.8658 97.168 65.7148 95.7482 65.7148C94.3283 65.7148 93.1773 66.8658 93.1773 68.2856C93.1773 69.7055 94.3283 70.8565 95.7482 70.8565ZM57.202 39.4674C58.8449 39.4674 60.1768 38.1356 60.1768 36.4926C60.1768 34.8497 58.8449 33.5178 57.202 33.5178C55.559 33.5178 54.2272 34.8497 54.2272 36.4926C54.2272 38.1356 55.559 39.4674 57.202 39.4674ZM28.2576 129.827C30.414 129.827 32.1621 128.079 32.1621 125.922C32.1621 123.766 30.414 122.018 28.2576 122.018C26.1013 122.018 24.3532 123.766 24.3532 125.922C24.3532 128.079 26.1013 129.827 28.2576 129.827ZM28.2576 132.802C32.0569 132.802 35.1369 129.722 35.1369 125.922C35.1369 122.123 32.0569 119.043 28.2576 119.043C24.4583 119.043 21.3784 122.123 21.3784 125.922C21.3784 129.722 24.4583 132.802 28.2576 132.802Z" fill="#2395E8"/>
</svg>
