<svg width="1184" height="1080" viewBox="0 0 1184 1080" fill="none" xmlns="http://www.w3.org/2000/svg">
<path opacity="0.25" fill-rule="evenodd" clip-rule="evenodd" d="M259.684 650.778C-5.9745 581.821 -283.183 620.502 -520.123 759.785L-420.635 929.027C-229.149 816.464 -4.72603 785.389 210.258 841.193C425.242 896.997 606.218 1033.3 718.781 1224.79L888.024 1125.3L888.022 1125.3L888.025 1125.3C655.508 729.753 788.241 218.398 1183.79 -14.1193L1084.3 -183.362C839.621 -39.5312 676.711 190.267 610.543 445.177C580.993 559.018 570.738 677.867 581.249 796.34C484.539 730.418 376.175 681.016 259.684 650.778Z" fill="url(#paint0_linear_145_1120)"/>
<defs>
<linearGradient id="paint0_linear_145_1120" x1="-122.696" y1="782.226" x2="1134.9" y2="-191.761" gradientUnits="userSpaceOnUse">
<stop stop-color="#AADAFC"/>
<stop offset="0.948924" stop-color="#9ACFF5" stop-opacity="0"/>
</linearGradient>
</defs>
</svg>
