<svg width="293" height="59" viewBox="0 0 293 59" fill="none" xmlns="http://www.w3.org/2000/svg">
<path d="M13.7726 23.5346C13.7726 23.6992 13.7726 23.8227 13.7726 23.9462C13.7726 24.0697 13.7726 24.1931 13.7313 24.2755C13.7313 24.3578 13.69 24.4401 13.69 24.5224C13.6487 24.6047 13.6074 24.7282 13.5661 24.8517C13.4835 24.9751 13.3596 25.1809 13.1118 25.469C12.864 25.7572 12.5749 26.0453 12.2032 26.3334C11.8315 26.6215 11.4185 26.8684 10.9642 27.0742C10.51 27.28 9.97306 27.3623 9.43617 27.3623C8.52758 27.3623 7.70161 27.0742 6.99952 26.498C6.25614 25.9218 5.63665 25.0575 5.14106 23.9462C4.64547 22.8349 4.23246 21.4767 3.94337 19.8303C3.65427 18.184 3.53037 16.3319 3.53038 14.2739C3.53038 12.1337 3.69556 10.1992 3.98466 8.51173C4.27375 6.82423 4.68675 5.38369 5.22364 4.19009C5.76053 2.99649 6.42132 2.091 7.16471 1.47362C7.90809 0.856245 8.73408 0.526977 9.64266 0.526977C10.0557 0.526977 10.4686 0.609294 10.8816 0.73277C11.2946 0.897404 11.6663 1.06204 11.9967 1.30899C12.3271 1.55594 12.6575 1.80289 12.9053 2.091C13.1944 2.37911 13.3596 2.62606 13.4422 2.83185C13.5248 2.99649 13.6074 3.16112 13.6487 3.24344C13.69 3.32576 13.69 3.40807 13.69 3.53155C13.69 3.61387 13.7313 3.73734 13.7313 3.86082C13.7313 3.98429 13.7313 4.14893 13.7313 4.31356C13.7313 4.51936 13.7313 4.68399 13.7313 4.80747C13.7313 4.93094 13.69 5.05442 13.69 5.17789C13.69 5.30137 13.6487 5.34253 13.6074 5.42484C13.5661 5.466 13.5248 5.50716 13.4835 5.50716C13.3596 5.50716 13.2357 5.38368 13.0292 5.09557C12.8227 4.80746 12.5749 4.51936 12.2858 4.19009C11.9967 3.86082 11.5837 3.53155 11.1707 3.2846C10.7164 2.99649 10.1796 2.87301 9.60137 2.87301C8.94059 2.87301 8.3211 3.11996 7.74291 3.61387C7.16472 4.10777 6.71043 4.84862 6.29743 5.79527C5.88444 6.74192 5.59535 7.93551 5.34755 9.3349C5.14106 10.7343 5.01714 12.3806 5.01714 14.1916C5.01714 15.9614 5.14106 17.4843 5.34755 18.8425C5.55405 20.2008 5.84312 21.3532 6.25612 22.2587C6.62781 23.2053 7.1234 23.905 7.70159 24.3989C8.27978 24.8928 8.94059 25.1398 9.68398 25.1398C10.2622 25.1398 10.7991 25.0163 11.2533 24.7282C11.7076 24.4401 12.0793 24.152 12.4097 23.8227C12.7401 23.4934 12.9879 23.1642 13.1944 22.9172C13.4009 22.6291 13.5661 22.5056 13.6487 22.5056C13.69 22.5056 13.7313 22.5056 13.7726 22.5468C13.8139 22.588 13.8139 22.6291 13.8552 22.7114C13.8552 22.7937 13.8965 22.9172 13.8965 23.0819C13.7313 23.1642 13.7726 23.3288 13.7726 23.5346Z" fill="#0088EC"/>
<path d="M26.6994 26.292C26.7407 26.4978 26.782 26.6625 26.7407 26.7859C26.7407 26.9094 26.6994 27.0329 26.6581 27.0741C26.6168 27.1564 26.5342 27.1975 26.4516 27.1975C26.369 27.1975 26.2038 27.2387 26.0799 27.2387C25.9147 27.2387 25.7908 27.2387 25.7082 27.1975C25.6256 27.1975 25.543 27.1564 25.5017 27.1152C25.4604 27.0741 25.4191 27.0329 25.3778 26.9506C25.3365 26.8683 25.3365 26.7859 25.2952 26.7036L23.9324 19.6655L17.6136 19.6655L16.292 26.6625C16.292 26.7448 16.2507 26.8271 16.2094 26.9094C16.1681 26.9917 16.1268 27.0329 16.0855 27.0741C16.0442 27.1152 15.9616 27.1564 15.879 27.1975C15.7964 27.2387 15.6725 27.2387 15.5486 27.2387C15.3834 27.2387 15.2595 27.2387 15.1769 27.1975C15.053 27.1564 15.0117 27.1152 14.9291 27.0741C14.8878 26.9917 14.8465 26.9094 14.8465 26.7859C14.8465 26.6625 14.8465 26.4978 14.8878 26.292L19.9263 1.26765C19.9676 1.14418 19.9676 1.06186 20.0089 0.979545C20.0502 0.897228 20.0915 0.85607 20.1741 0.814912C20.2567 0.773753 20.3393 0.732594 20.4219 0.732594C20.5045 0.732594 20.6284 0.691436 20.7523 0.691436C20.8762 0.691436 21.0001 0.691436 21.0827 0.732594C21.1653 0.773753 21.2479 0.773753 21.3305 0.814912C21.4131 0.85607 21.4544 0.897228 21.4957 0.979545C21.537 1.06186 21.5783 1.14418 21.5783 1.26766L26.6994 26.292ZM20.7523 3.49022L18.0265 17.6488L23.5194 17.6488L20.7523 3.49022Z" fill="#0088EC"/>
<path d="M44.293 26.7037C44.293 26.786 44.293 26.8683 44.2517 26.9095C44.2104 26.9918 44.2104 27.033 44.1278 27.0741C44.0865 27.1153 44.0039 27.1564 43.9213 27.1564C43.8387 27.1976 43.7148 27.1976 43.5909 27.1976C43.467 27.1976 43.3844 27.1976 43.2605 27.1564C43.1779 27.1153 43.0953 27.1153 43.054 27.0741C43.0127 27.033 42.9714 26.9918 42.9301 26.9095C42.8888 26.8272 42.8888 26.786 42.8888 26.7037L42.8888 2.99637L42.8475 2.99637L37.1895 26.8683C37.1895 26.9095 37.1482 26.9918 37.1069 27.033C37.0656 27.0741 37.0243 27.1153 36.983 27.1564C36.9417 27.1976 36.8591 27.1976 36.8178 27.2388C36.7352 27.2388 36.6526 27.2799 36.57 27.2799C36.4461 27.2799 36.3635 27.2799 36.3222 27.2388C36.2396 27.2388 36.1983 27.1976 36.157 27.1564C36.1157 27.1153 36.0744 27.0741 36.0331 27.033C35.9918 26.9918 35.9918 26.9506 35.9918 26.8683L30.6229 2.99637L30.6229 26.7449C30.6229 26.8272 30.6229 26.9095 30.5816 26.9506C30.5403 27.033 30.5403 27.0741 30.4577 27.1153C30.4164 27.1564 30.3338 27.1976 30.2512 27.1976C30.1686 27.2388 30.0447 27.2388 29.9208 27.2388C29.7969 27.2388 29.673 27.2388 29.5904 27.1976C29.5078 27.1564 29.4252 27.1564 29.3839 27.1153C29.3426 27.0741 29.3013 27.033 29.26 26.9506C29.26 26.8683 29.2187 26.8272 29.2187 26.7449L29.2187 2.09089C29.2187 1.59698 29.3013 1.26772 29.4252 1.10308C29.5491 0.938447 29.7143 0.814971 29.8382 0.814971L30.5816 0.814971C30.7468 0.814971 30.912 0.856129 31.0772 0.938446C31.2011 1.02076 31.325 1.10308 31.4489 1.26771C31.5728 1.39119 31.6554 1.59698 31.738 1.80278C31.8206 2.00857 31.8619 2.25552 31.9445 2.50247L36.7352 23.3699L36.7765 23.3699L41.7324 2.54363C41.815 2.21436 41.8976 1.92625 41.9802 1.72046C42.0628 1.51467 42.1454 1.30887 42.228 1.1854C42.3106 1.06192 42.4345 0.938448 42.5171 0.897289C42.641 0.856131 42.7236 0.814972 42.8475 0.814972L43.6735 0.814972C43.7561 0.814972 43.7974 0.814971 43.88 0.85613C43.9626 0.897288 44.0039 0.979605 44.0865 1.06192C44.1278 1.14424 44.2104 1.30887 44.2517 1.47351C44.293 1.63814 44.293 1.84393 44.293 2.09089L44.293 26.7037Z" fill="#0088EC"/>
<path d="M60.0278 13.6566C60.0278 15.7557 59.9039 17.649 59.6148 19.3776C59.367 21.0651 58.9541 22.5468 58.4172 23.7404C57.8803 24.934 57.2195 25.8807 56.4348 26.4981C55.6501 27.1566 54.7002 27.4859 53.6264 27.4859C52.5527 27.4859 51.6441 27.1566 50.9007 26.5804C50.1573 26.0042 49.4965 25.0987 49.0009 23.9462C48.5053 22.7938 48.1336 21.3944 47.9271 19.7481C47.6794 18.1017 47.5968 16.2084 47.5968 14.1505C47.5968 12.0926 47.7206 10.1993 47.9684 8.55294C48.2162 6.86544 48.6292 5.42489 49.1661 4.2313C49.703 3.0377 50.3638 2.13221 51.1485 1.47367C51.9332 0.815137 52.8831 0.48587 53.9568 0.48587C54.9893 0.48587 55.8979 0.773979 56.6826 1.39136C57.4673 2.00873 58.0868 2.87306 58.5824 4.0255C59.0779 5.17794 59.4496 6.53617 59.6974 8.18252C59.9452 9.7877 60.0278 11.5987 60.0278 13.6566ZM58.6237 13.9036C58.6237 12.3395 58.5411 10.899 58.3759 9.49959C58.2107 8.14136 57.9629 6.94776 57.5912 5.95996C57.2195 4.93099 56.7239 4.14898 56.1457 3.57276C55.5262 2.99654 54.7828 2.70843 53.8743 2.70843C53.007 2.70843 52.2223 2.99654 51.6441 3.61392C51.0246 4.2313 50.529 5.01331 50.1573 6.04227C49.7856 7.07124 49.4965 8.26483 49.3313 9.58191C49.1661 10.9401 49.0835 12.3807 49.0835 13.8624C49.0835 15.4676 49.1661 16.9493 49.3313 18.3075C49.4965 19.6657 49.7443 20.9005 50.116 21.8883C50.4877 22.9173 50.942 23.6993 51.5615 24.2755C52.181 24.8517 52.9244 25.1398 53.8329 25.1398C54.7415 25.1398 55.4849 24.8517 56.1044 24.2343C56.7239 23.617 57.2195 22.7938 57.5912 21.7648C57.9629 20.7359 58.252 19.5423 58.4172 18.184C58.5411 16.8258 58.6237 15.3853 58.6237 13.9036Z" fill="#0088EC"/>
<path d="M72.2524 26.7038C72.2524 26.7862 72.2524 26.8685 72.2111 26.9096C72.1698 26.9919 72.1698 27.0331 72.0872 27.0743C72.0459 27.1154 71.9633 27.1566 71.8807 27.1566C71.7981 27.1977 71.6742 27.1977 71.5503 27.1977C71.4264 27.1977 71.3026 27.1977 71.22 27.1566C71.1374 27.1154 71.0548 27.1154 71.0135 27.0743C70.9722 27.0331 70.9308 26.9919 70.8895 26.9096C70.8482 26.8273 70.8483 26.7862 70.8483 26.7038L70.8483 3.07884L66.264 3.07884C66.0575 6.20688 65.8923 9.00566 65.6858 11.434C65.4793 13.8624 65.3142 15.9615 65.0664 17.7724C64.8599 19.5834 64.6121 21.1063 64.3643 22.341C64.1165 23.5758 63.8274 24.5636 63.497 25.3044C63.1666 26.0453 62.7949 26.6215 62.3819 26.9508C61.9689 27.2801 61.5146 27.4447 60.9777 27.4447C60.9364 27.4447 60.8538 27.4035 60.8125 27.3624C60.7712 27.3212 60.7299 27.2389 60.6886 27.1154C60.6473 27.0331 60.6473 26.8685 60.606 26.745C60.606 26.5804 60.5647 26.4157 60.5647 26.2511C60.5647 26.0453 60.5647 25.8807 60.606 25.716C60.606 25.5926 60.6473 25.4691 60.6886 25.3456C60.7299 25.2633 60.7712 25.181 60.8125 25.1398C60.8538 25.0987 60.8951 25.0575 60.9364 25.0575C61.2255 25.0575 61.5146 24.934 61.7624 24.7282C62.0102 24.5224 62.258 24.1108 62.5058 23.4935C62.7536 22.9173 62.9601 22.0529 63.1666 20.9828C63.3731 19.9127 63.5796 18.5544 63.7861 16.8258C63.9926 15.1383 64.1991 13.0804 64.3643 10.6932C64.5708 8.30597 64.736 5.46603 64.9425 2.17335C64.9838 1.67944 65.0251 1.30902 65.149 1.10323C65.2316 0.897433 65.3967 0.773956 65.6032 0.773956L71.5916 0.773956C71.7568 0.773956 71.922 0.897433 72.0046 1.10323C72.1285 1.30902 72.1698 1.63829 72.1698 2.04987L72.1698 26.7038L72.2524 26.7038Z" fill="#0088EC"/>
<path d="M77.8276 26.7036C77.8276 26.7859 77.8276 26.8683 77.7863 26.9094C77.745 26.9917 77.745 27.0329 77.6624 27.0741C77.6211 27.1152 77.5385 27.1564 77.4559 27.1564C77.3733 27.1975 77.2494 27.1975 77.1255 27.1975C77.0016 27.1975 76.8778 27.1975 76.7952 27.1564C76.7126 27.1152 76.63 27.1152 76.5887 27.0741C76.5474 27.0329 76.506 26.9917 76.4647 26.9094C76.4234 26.8271 76.4235 26.7859 76.4235 26.7036L76.4235 1.18534C76.4235 1.10302 76.4234 1.0207 76.4647 0.979545C76.506 0.897228 76.5474 0.856071 76.5887 0.814912C76.63 0.773753 76.7126 0.732595 76.7952 0.732595C76.8778 0.691436 77.0016 0.691437 77.0842 0.691437C77.2081 0.691437 77.332 0.691436 77.4146 0.732595C77.4972 0.773753 77.5798 0.773754 77.6211 0.814912C77.6624 0.856071 77.7037 0.897228 77.745 0.979545C77.7863 1.06186 77.7863 1.10302 77.7863 1.18534L77.7863 26.7036L77.8276 26.7036Z" fill="#0088EC"/>
<path d="M90.9614 26.6625C90.9614 26.7448 90.9614 26.8271 90.9201 26.9094C90.8788 26.9917 90.8788 27.0329 90.7962 27.0741C90.7136 27.1152 90.6723 27.1564 90.5897 27.1975C90.5071 27.2387 90.3832 27.2387 90.2593 27.2387C90.0941 27.2387 89.9702 27.2387 89.8876 27.1975C89.805 27.1564 89.7224 27.1152 89.6811 27.0741C89.6398 27.0329 89.5985 26.9506 89.5572 26.8683C89.5159 26.7859 89.5159 26.6625 89.4746 26.539L88.0705 19.789C87.9053 18.9247 87.6988 18.1838 87.451 17.5253C87.2032 16.9079 86.9554 16.3728 86.625 15.9201C86.2946 15.5085 85.9642 15.1792 85.5512 14.9734C85.1382 14.7677 84.6839 14.6853 84.2296 14.6853L83.3623 14.6853L83.3623 26.7448C83.3623 26.8271 83.3624 26.9094 83.3211 26.9506C83.2798 27.0329 83.2798 27.0741 83.1972 27.1152C83.1559 27.1564 83.0733 27.1975 82.9907 27.1975C82.9081 27.2387 82.7842 27.2387 82.6603 27.2387C82.5364 27.2387 82.4125 27.2387 82.3299 27.1975C82.2473 27.1564 82.1647 27.1564 82.1234 27.1152C82.0821 27.0741 82.0408 27.0329 81.9995 26.9506C81.9582 26.8683 81.9582 26.8271 81.9582 26.7448L81.9582 1.2265C81.9582 1.14418 81.9582 1.06186 81.9995 1.0207C82.0408 0.938387 82.0408 0.897228 82.1234 0.856069C82.206 0.814911 82.2473 0.773752 82.3299 0.773752C82.4125 0.732594 82.5364 0.732594 82.6603 0.732594C82.7842 0.732594 82.9081 0.732594 82.9907 0.773752C83.0733 0.814911 83.1559 0.814911 83.1972 0.85607C83.2385 0.897228 83.2798 0.938387 83.3211 1.0207C83.3624 1.10302 83.3623 1.14418 83.3623 1.2265L83.3623 12.4628L84.2296 12.4628C84.7252 12.4628 85.1795 12.3393 85.5512 12.1335C85.9229 11.9277 86.2533 11.5984 86.5424 11.1869C86.8315 10.7753 87.0793 10.2402 87.2858 9.62284C87.4923 9.00546 87.6988 8.26461 87.864 7.44144L89.0204 1.43229C89.0617 1.30881 89.0617 1.18534 89.103 1.10302C89.1443 1.0207 89.1856 0.938387 89.2269 0.85607C89.2682 0.814911 89.3507 0.732595 89.4333 0.732595C89.5159 0.691436 89.6398 0.691437 89.805 0.691437C89.9289 0.691437 90.0528 0.691436 90.1354 0.732595C90.218 0.773753 90.3006 0.814911 90.3419 0.85607C90.3832 0.897228 90.4245 0.979546 90.4245 1.0207C90.4245 1.10302 90.4658 1.18534 90.4658 1.26766C90.4658 1.39113 90.4658 1.55577 90.4245 1.67924C90.4245 1.80272 90.3832 1.96735 90.3419 2.09083L89.103 8.01766C88.9378 8.79967 88.7726 9.49936 88.6074 10.1167C88.4422 10.693 88.2357 11.228 88.0292 11.6396C87.8227 12.0512 87.5749 12.4216 87.3271 12.7097C87.0793 12.9978 86.7902 13.2036 86.4598 13.3683L86.4598 13.4094C86.8315 13.6152 87.1619 13.9033 87.451 14.1914C87.7401 14.5207 87.9879 14.8911 88.2357 15.3439C88.4835 15.7966 88.69 16.3317 88.8965 16.9491C89.103 17.5664 89.2681 18.3073 89.4746 19.1305L90.8788 25.8393C90.9201 26.0863 90.9614 26.2509 90.9614 26.3744C90.9614 26.4978 90.9614 26.5802 90.9614 26.6625Z" fill="#0088EC"/>
<path d="M99.3036 19.7478C98.9319 21.353 98.6428 22.6701 98.3537 23.6579C98.0646 24.6457 97.7755 25.4277 97.4864 25.9628C97.1973 26.4978 96.9082 26.8683 96.5778 27.0741C96.2474 27.2799 95.8757 27.3622 95.4215 27.3622C95.2563 27.3622 95.1324 27.3622 94.9672 27.321C94.802 27.2799 94.6781 27.2387 94.5542 27.1564C94.4303 27.0741 94.3064 26.9917 94.1825 26.9094C94.0586 26.8271 94.0173 26.7448 93.9347 26.6625C93.8934 26.5802 93.8521 26.539 93.8521 26.4567C93.8108 26.3744 93.8108 26.292 93.8108 26.2097C93.8108 26.1274 93.7695 25.9628 93.7695 25.8393C93.7695 25.6747 93.7695 25.51 93.7695 25.3042C93.7695 24.9338 93.8108 24.6457 93.8521 24.4811C93.8934 24.3164 93.976 24.2341 94.0586 24.2341C94.0999 24.2341 94.1825 24.2753 94.2651 24.3576C94.3477 24.4399 94.4303 24.5222 94.5542 24.6457C94.6781 24.728 94.802 24.8515 94.9672 24.9338C95.1324 25.0161 95.2975 25.0573 95.5453 25.0573C95.7518 25.0573 95.9583 25.0161 96.1235 24.9338C96.2887 24.8515 96.4539 24.6869 96.6191 24.3988C96.7843 24.1106 96.9495 23.7402 97.1147 23.2052C97.2799 22.6701 97.4864 22.0116 97.6929 21.1061L92.3653 1.67924C92.324 1.47345 92.2827 1.30881 92.2827 1.18534C92.2827 1.06186 92.2827 0.979546 92.3653 0.897229C92.4066 0.814912 92.4892 0.773752 92.6131 0.773752C92.737 0.732593 92.8609 0.732594 93.0261 0.732594C93.15 0.732594 93.2739 0.732593 93.3565 0.773752C93.4391 0.814911 93.5217 0.85607 93.563 0.897229C93.6043 0.938387 93.6869 1.0207 93.6869 1.06186C93.7282 1.14418 93.7695 1.2265 93.7695 1.30881L96.6191 11.8042C96.9495 12.9978 97.2386 14.1091 97.5277 15.1792C97.8168 16.2494 98.1059 17.3195 98.3537 18.3896L98.395 18.3896C98.6015 17.3195 98.8493 16.2082 99.0971 15.0969C99.3449 13.9856 99.5927 12.7509 99.9231 11.3927L102.029 1.2265C102.071 1.14418 102.071 1.06186 102.112 0.979545C102.153 0.897228 102.195 0.856071 102.236 0.814912C102.277 0.773753 102.36 0.732595 102.484 0.732595C102.566 0.732595 102.69 0.691437 102.855 0.691437C103.021 0.691437 103.144 0.691436 103.227 0.732595C103.31 0.773753 103.392 0.814912 103.434 0.897229C103.475 0.979547 103.516 1.06186 103.516 1.14418C103.516 1.2265 103.516 1.34997 103.475 1.47345L99.3036 19.7478Z" fill="#0088EC"/>
<path d="M114.791 19.7479C114.791 20.5299 114.75 21.2296 114.626 21.8881C114.543 22.5467 114.378 23.1641 114.213 23.6991C114.048 24.2342 113.8 24.7281 113.552 25.1397C113.304 25.5513 112.974 25.9217 112.643 26.2098C112.313 26.4979 111.941 26.7037 111.57 26.8683C111.198 27.033 110.702 27.0741 110.207 27.0741L106.49 27.0741C106.366 27.0741 106.201 26.9918 106.077 26.786C105.953 26.6214 105.87 26.2509 105.87 25.7982L105.87 2.09089C105.87 1.59698 105.953 1.26772 106.077 1.10308C106.201 0.938447 106.366 0.814971 106.49 0.814971L109.587 0.814972C110.413 0.814972 111.115 0.979605 111.611 1.26771C112.148 1.59698 112.561 2.00857 112.891 2.58479C113.222 3.16101 113.469 3.8607 113.635 4.68387C113.8 5.50704 113.882 6.41253 113.882 7.40034C113.882 8.01772 113.841 8.63509 113.759 9.17015C113.676 9.74637 113.552 10.2814 113.428 10.7753C113.263 11.2692 113.098 11.722 112.85 12.0924C112.602 12.504 112.354 12.8333 112.024 13.0802C112.396 13.2037 112.767 13.4506 113.098 13.8622C113.428 14.2327 113.717 14.7266 114.006 15.2616C114.254 15.8378 114.461 16.4964 114.626 17.2372C114.708 18.0604 114.791 18.8836 114.791 19.7479ZM112.396 7.60613C112.396 6.90643 112.354 6.28906 112.23 5.71284C112.107 5.13662 111.983 4.68387 111.735 4.27229C111.528 3.8607 111.198 3.57259 110.868 3.3668C110.496 3.16101 110 3.03753 109.422 3.03753L107.192 3.03753L107.192 12.4628L109.67 12.4628C110.207 12.4628 110.661 12.3394 110.991 12.0513C111.322 11.8043 111.611 11.4339 111.817 10.9811C112.024 10.5284 112.189 10.0345 112.313 9.4171C112.354 8.84089 112.396 8.22351 112.396 7.60613ZM113.346 19.9537C113.346 19.0894 113.263 18.3073 113.098 17.6488C112.933 16.9903 112.726 16.4141 112.437 15.9613C112.148 15.5086 111.776 15.1793 111.363 14.9323C110.95 14.6854 110.413 14.6031 109.753 14.6031L107.151 14.6031L107.151 24.8927L110.289 24.8927C110.744 24.8927 111.157 24.7692 111.487 24.5634C111.817 24.3577 112.148 24.0284 112.437 23.6168C112.726 23.2052 112.933 22.6702 113.098 22.0528C113.263 21.5177 113.346 20.7769 113.346 19.9537Z" fill="#0088EC"/>
<path d="M127.966 26.2923C128.007 26.4981 128.048 26.6627 128.007 26.7862C128.007 26.9097 127.966 27.0332 127.924 27.0743C127.883 27.1566 127.8 27.1978 127.718 27.1978C127.635 27.1978 127.47 27.2389 127.346 27.2389C127.181 27.2389 127.057 27.2389 126.974 27.1978C126.892 27.1978 126.809 27.1566 126.768 27.1155C126.727 27.0743 126.685 27.0332 126.644 26.9508C126.603 26.8685 126.603 26.7862 126.561 26.7039L125.157 19.7069L118.838 19.7069L117.517 26.7039C117.517 26.7862 117.476 26.8685 117.434 26.9508C117.393 27.0332 117.352 27.0743 117.31 27.1155C117.269 27.1566 117.186 27.1978 117.104 27.2389C117.021 27.2801 116.897 27.2801 116.773 27.2801C116.608 27.2801 116.484 27.2801 116.402 27.2389C116.278 27.1978 116.237 27.1566 116.154 27.1155C116.113 27.0332 116.071 26.9508 116.071 26.8274C116.071 26.7039 116.071 26.5392 116.113 26.3335L121.151 1.30907C121.192 1.18559 121.192 1.10328 121.234 1.02096C121.275 0.938642 121.316 0.897483 121.399 0.856324C121.482 0.815165 121.564 0.774007 121.647 0.774007C121.729 0.774007 121.853 0.732849 121.977 0.732849C122.101 0.732849 122.225 0.732848 122.308 0.774007C122.39 0.774007 122.473 0.815166 122.555 0.856324C122.638 0.897483 122.679 0.938642 122.721 1.02096C122.762 1.10328 122.803 1.18559 122.803 1.30907L127.966 26.2923ZM121.977 3.49047L119.251 17.649L124.744 17.649L121.977 3.49047Z" fill="#0088EC"/>
<path d="M140.438 26.7036C140.438 26.7859 140.438 26.8683 140.397 26.9094C140.355 26.9917 140.355 27.0329 140.273 27.0741C140.231 27.1152 140.149 27.1564 140.066 27.1564C139.984 27.1975 139.86 27.1975 139.736 27.1975C139.612 27.1975 139.488 27.1975 139.406 27.1564C139.323 27.1152 139.24 27.1152 139.199 27.0741C139.158 27.0329 139.116 26.9917 139.075 26.9094C139.034 26.8271 139.034 26.7859 139.034 26.7036L139.034 14.4384L131.889 14.4384L131.889 26.7036C131.889 26.7859 131.889 26.8683 131.848 26.9094C131.806 26.9917 131.806 27.0329 131.724 27.0741C131.683 27.1152 131.6 27.1564 131.517 27.1564C131.435 27.1975 131.311 27.1975 131.187 27.1975C131.063 27.1975 130.939 27.1975 130.857 27.1564C130.774 27.1152 130.691 27.1152 130.65 27.0741C130.609 27.0329 130.567 26.9917 130.526 26.9094C130.485 26.8271 130.485 26.7859 130.485 26.7036L130.485 1.18534C130.485 1.10302 130.485 1.0207 130.526 0.979545C130.567 0.897228 130.567 0.85607 130.65 0.814911C130.691 0.773753 130.774 0.732594 130.857 0.732594C130.939 0.691436 131.063 0.691436 131.187 0.691436C131.311 0.691436 131.435 0.691436 131.517 0.732594C131.6 0.773753 131.683 0.773753 131.724 0.814912C131.765 0.85607 131.806 0.897228 131.848 0.979545C131.889 1.06186 131.889 1.10302 131.889 1.18534L131.889 12.257L139.034 12.257L139.034 1.2265C139.034 1.14418 139.034 1.06186 139.075 1.0207C139.116 0.938388 139.116 0.897228 139.199 0.85607C139.24 0.814911 139.323 0.773753 139.406 0.773753C139.488 0.732594 139.612 0.732595 139.736 0.732595C139.86 0.732595 139.984 0.732594 140.066 0.773753C140.149 0.814911 140.231 0.814911 140.273 0.85607C140.314 0.897229 140.355 0.938388 140.397 1.0207C140.438 1.10302 140.438 1.14418 140.438 1.2265L140.438 26.7036Z" fill="#0088EC"/>
<path d="M154.479 26.7036C154.479 26.7859 154.479 26.8683 154.438 26.9094C154.397 26.9917 154.397 27.0329 154.314 27.0741C154.273 27.1152 154.19 27.1564 154.108 27.1564C154.025 27.1975 153.901 27.1975 153.777 27.1975C153.654 27.1975 153.53 27.1975 153.447 27.1564C153.364 27.1152 153.282 27.1152 153.241 27.0741C153.199 27.0329 153.158 26.9917 153.117 26.9094C153.075 26.8271 153.075 26.7859 153.075 26.7036L153.075 14.4384L145.931 14.4384L145.931 26.7036C145.931 26.7859 145.931 26.8683 145.889 26.9094C145.848 26.9917 145.848 27.0329 145.765 27.0741C145.724 27.1152 145.641 27.1564 145.559 27.1564C145.476 27.1975 145.352 27.1975 145.228 27.1975C145.105 27.1975 144.981 27.1975 144.898 27.1564C144.815 27.1152 144.733 27.1152 144.692 27.0741C144.65 27.0329 144.609 26.9917 144.568 26.9094C144.526 26.8271 144.526 26.7859 144.526 26.7036L144.526 1.18534C144.526 1.10302 144.526 1.0207 144.568 0.979545C144.609 0.897228 144.609 0.85607 144.692 0.814911C144.733 0.773753 144.815 0.732594 144.898 0.732594C144.981 0.691436 145.105 0.691436 145.228 0.691436C145.352 0.691436 145.476 0.691436 145.559 0.732594C145.641 0.773753 145.724 0.773753 145.765 0.814912C145.807 0.85607 145.848 0.897228 145.889 0.979545C145.931 1.06186 145.931 1.10302 145.931 1.18534L145.931 12.257L153.075 12.257L153.075 1.2265C153.075 1.14418 153.075 1.06186 153.117 1.0207C153.158 0.938388 153.158 0.897228 153.241 0.85607C153.282 0.814911 153.364 0.773753 153.447 0.773753C153.53 0.732594 153.654 0.732595 153.777 0.732595C153.901 0.732595 154.025 0.732594 154.108 0.773753C154.19 0.814911 154.273 0.814911 154.314 0.85607C154.356 0.897229 154.397 0.938388 154.438 1.0207C154.479 1.10302 154.479 1.14418 154.479 1.2265L154.479 26.7036Z" fill="#0088EC"/>
<path d="M166.87 26.704C166.87 26.7864 166.87 26.8687 166.828 26.9098C166.787 26.9921 166.787 27.0333 166.704 27.0745C166.663 27.1156 166.581 27.1568 166.498 27.1568C166.415 27.1979 166.291 27.1979 166.168 27.1979C166.044 27.1979 165.92 27.1979 165.837 27.1568C165.755 27.1156 165.672 27.1156 165.631 27.0745C165.589 27.0333 165.548 26.9921 165.507 26.9098C165.465 26.8275 165.465 26.7864 165.465 26.704L165.465 15.0973L163.855 15.0973C163.194 15.0973 162.698 15.2208 162.368 15.4678C162.038 15.7147 161.707 16.0851 161.459 16.5379C161.212 16.9906 161.005 17.5257 160.84 18.1431C160.675 18.7604 160.51 19.4601 160.344 20.1598L159.064 26.4159C159.023 26.5806 158.981 26.704 158.94 26.8275C158.899 26.9098 158.858 26.9921 158.816 27.0745C158.775 27.1156 158.692 27.1568 158.61 27.1979C158.527 27.1979 158.445 27.2391 158.279 27.2391C158.114 27.2391 158.032 27.2391 157.908 27.1979C157.825 27.1568 157.742 27.1156 157.701 27.0745C157.66 27.0333 157.619 26.951 157.577 26.9098C157.577 26.8275 157.536 26.7452 157.536 26.6629C157.536 26.5394 157.536 26.3748 157.577 26.2101C157.619 26.0455 157.66 25.7162 157.742 25.3046L158.981 19.5013C159.147 18.8016 159.271 18.1842 159.436 17.6492C159.601 17.0729 159.766 16.6202 159.931 16.1675C160.097 15.7559 160.303 15.3854 160.51 15.0973C160.716 14.8092 160.964 14.5623 161.212 14.3565C160.757 14.1918 160.386 13.9037 160.014 13.5333C159.642 13.1629 159.353 12.7101 159.105 12.2162C158.858 11.6812 158.651 11.0638 158.527 10.4053C158.403 9.70556 158.321 8.96471 158.321 8.14154C158.321 7.11257 158.403 6.16593 158.61 5.26044C158.775 4.35495 159.064 3.6141 159.477 2.95556C159.849 2.29703 160.344 1.80312 160.923 1.4327C161.501 1.06227 162.368 0.856476 163.483 0.856476L166.168 0.856476C166.291 0.856476 166.457 0.938793 166.581 1.14459C166.704 1.30922 166.787 1.67965 166.787 2.13239L166.787 26.704L166.87 26.704ZM165.507 3.03788L163.524 3.03788C162.698 3.03788 162.079 3.16135 161.666 3.40831C161.253 3.65526 160.881 3.98452 160.633 4.43727C160.386 4.89001 160.179 5.38391 160.055 6.00129C159.931 6.61867 159.89 7.23605 159.89 7.93574C159.89 8.59428 159.973 9.25282 160.097 9.87019C160.22 10.4876 160.427 11.0226 160.675 11.4754C160.964 11.9281 161.294 12.2985 161.707 12.5455C162.12 12.7924 162.74 12.9571 163.483 12.9571L165.548 12.9571L165.548 3.03788L165.507 3.03788Z" fill="#0088EC"/>
<path d="M191.195 26.7037C191.195 26.786 191.195 26.8683 191.154 26.9095C191.112 26.9918 191.112 27.033 191.03 27.0741C190.988 27.1153 190.906 27.1564 190.823 27.1564C190.741 27.1976 190.617 27.1976 190.493 27.1976C190.369 27.1976 190.286 27.1976 190.162 27.1564C190.08 27.1153 189.997 27.1153 189.956 27.0741C189.915 27.033 189.873 26.9918 189.832 26.9095C189.791 26.8272 189.791 26.786 189.791 26.7037L189.791 2.99637L189.749 2.99637L184.091 26.8683C184.091 26.9095 184.05 26.9918 184.009 27.033C183.967 27.0741 183.926 27.1153 183.885 27.1564C183.844 27.1976 183.761 27.1976 183.72 27.2388C183.637 27.2388 183.554 27.2799 183.472 27.2799C183.348 27.2799 183.265 27.2799 183.224 27.2388C183.141 27.2388 183.1 27.1976 183.059 27.1564C183.018 27.1153 182.976 27.0741 182.935 27.033C182.894 26.9918 182.894 26.9506 182.894 26.8683L177.525 2.99637L177.525 26.7449C177.525 26.8272 177.525 26.9095 177.483 26.9506C177.442 27.033 177.442 27.0741 177.36 27.1153C177.318 27.1564 177.236 27.1976 177.153 27.1976C177.07 27.2388 176.947 27.2388 176.823 27.2388C176.699 27.2388 176.575 27.2388 176.492 27.1976C176.41 27.1564 176.327 27.1564 176.286 27.1153C176.244 27.0741 176.203 27.033 176.162 26.9506C176.162 26.8683 176.121 26.8272 176.121 26.7449L176.121 2.09089C176.121 1.59698 176.203 1.26772 176.327 1.10308C176.451 0.938447 176.616 0.814971 176.74 0.814971L177.483 0.814971C177.649 0.814971 177.814 0.856129 177.979 0.938446C178.103 1.02076 178.227 1.10308 178.351 1.26771C178.475 1.39119 178.557 1.59698 178.64 1.80278C178.722 2.00857 178.764 2.25552 178.846 2.50247L183.596 23.3699L183.637 23.3699L188.593 2.54363C188.676 2.21436 188.758 1.92625 188.841 1.72046C188.923 1.51467 189.006 1.30887 189.089 1.1854C189.171 1.06192 189.295 0.938448 189.378 0.897289C189.502 0.856131 189.584 0.814972 189.708 0.814972L190.534 0.814972C190.617 0.814972 190.658 0.814971 190.741 0.85613C190.823 0.897288 190.864 0.979605 190.947 1.06192C191.03 1.14424 191.071 1.30887 191.112 1.47351C191.154 1.63814 191.154 1.84393 191.154 2.09089L191.154 26.7037L191.195 26.7037Z" fill="#0088EC"/>
<path d="M206.93 13.6566C206.93 15.7557 206.806 17.649 206.517 19.3776C206.269 21.0651 205.856 22.5468 205.32 23.7404C204.783 24.934 204.122 25.8807 203.337 26.4981C202.552 27.1566 201.603 27.4859 200.529 27.4859C199.455 27.4859 198.546 27.1566 197.803 26.5804C197.06 26.0042 196.399 25.0987 195.903 23.9462C195.408 22.7938 195.036 21.3944 194.829 19.7481C194.582 18.1017 194.499 16.2084 194.499 14.1505C194.499 12.0926 194.623 10.1993 194.871 8.55294C195.119 6.86544 195.532 5.42489 196.068 4.2313C196.605 3.0377 197.266 2.13221 198.051 1.47367C198.836 0.815137 199.785 0.48587 200.859 0.48587C201.892 0.48587 202.8 0.773979 203.585 1.39136C204.37 2.00873 204.989 2.87306 205.485 4.0255C205.98 5.17794 206.352 6.53617 206.6 8.18252C206.806 9.7877 206.93 11.5987 206.93 13.6566ZM205.485 13.9036C205.485 12.3395 205.402 10.899 205.237 9.49959C205.072 8.14136 204.824 6.94776 204.452 5.95996C204.081 4.93099 203.585 4.14898 203.007 3.57276C202.387 2.99654 201.644 2.70843 200.735 2.70843C199.868 2.70843 199.083 2.99654 198.505 3.61392C197.886 4.2313 197.39 5.01331 197.018 6.04227C196.647 7.07124 196.358 8.26483 196.192 9.58191C196.027 10.9401 195.945 12.3807 195.945 13.8624C195.945 15.4676 196.027 16.9493 196.192 18.3075C196.358 19.6657 196.605 20.9005 196.977 21.8883C197.349 22.9173 197.844 23.6993 198.423 24.2755C199.042 24.8517 199.785 25.1398 200.694 25.1398C201.603 25.1398 202.346 24.8517 202.965 24.2343C203.585 23.617 204.081 22.7938 204.452 21.7648C204.824 20.7359 205.113 19.5423 205.278 18.184C205.402 16.8258 205.485 15.3853 205.485 13.9036Z" fill="#0088EC"/>
<path d="M224.275 26.6627C224.275 26.745 224.275 26.8274 224.234 26.9097C224.193 26.992 224.193 27.0332 224.11 27.0743C224.069 27.1155 223.986 27.1566 223.904 27.1978C223.821 27.239 223.697 27.2389 223.573 27.2389C223.408 27.2389 223.284 27.239 223.202 27.1978C223.119 27.1566 223.036 27.1155 222.995 27.0743C222.954 27.0332 222.913 26.9508 222.871 26.8685C222.83 26.7862 222.83 26.6627 222.789 26.5393L221.508 19.5011C221.343 18.678 221.178 17.9783 220.971 17.3609C220.765 16.7435 220.476 16.2496 220.187 15.838C219.898 15.4264 219.526 15.1383 219.154 14.9325C218.741 14.7268 218.328 14.6444 217.833 14.6444L217.131 14.6444L217.131 26.7039C217.131 26.7862 217.131 26.8685 217.089 26.9097C217.048 26.992 217.048 27.0332 216.965 27.0743C216.924 27.1155 216.842 27.1566 216.759 27.1566C216.676 27.1978 216.552 27.1978 216.429 27.1978C216.305 27.1978 216.181 27.1978 216.098 27.1566C216.016 27.1155 215.933 27.1155 215.892 27.0743C215.85 27.0332 215.809 26.992 215.768 26.9097C215.768 26.8274 215.726 26.7862 215.726 26.7039L215.726 14.6856L215.024 14.6856C214.487 14.6856 213.992 14.8091 213.579 15.0149C213.166 15.2618 212.835 15.5911 212.505 16.0027C212.216 16.4143 211.968 16.9493 211.762 17.5255C211.555 18.1429 211.39 18.7603 211.266 19.5011L210.027 26.5393C209.986 26.6627 209.986 26.7862 209.945 26.8685C209.903 26.9508 209.862 27.0332 209.821 27.0743C209.779 27.1155 209.697 27.1978 209.614 27.1978C209.532 27.239 209.408 27.2389 209.242 27.2389C209.119 27.2389 208.995 27.239 208.912 27.1978C208.829 27.1566 208.747 27.1155 208.706 27.0743C208.664 27.0332 208.623 26.9508 208.582 26.9097C208.54 26.8274 208.54 26.745 208.54 26.6627C208.54 26.6216 208.54 26.5804 208.54 26.5393C208.54 26.4981 208.54 26.4158 208.54 26.3335C208.54 26.2511 208.54 26.1688 208.582 26.0865C208.582 26.0042 208.623 25.9219 208.623 25.8396L209.779 19.46C209.945 18.5957 210.11 17.8136 210.316 17.1551C210.523 16.4966 210.729 15.9615 210.936 15.4676C211.184 15.0149 211.431 14.6033 211.72 14.3152C212.01 14.0271 212.381 13.7389 212.753 13.5332C212.422 13.4097 212.133 13.2039 211.886 12.9569C211.638 12.71 211.39 12.3396 211.184 11.8868C210.977 11.4341 210.812 10.899 210.605 10.2405C210.44 9.58194 210.275 8.84108 210.11 7.93559L209.036 2.00876C208.995 1.88529 208.995 1.72065 208.953 1.59718C208.953 1.4737 208.912 1.30907 208.912 1.18559C208.912 1.10328 208.912 1.02096 208.953 0.938642C208.953 0.856325 208.995 0.815166 209.036 0.774007C209.077 0.732849 209.16 0.691691 209.242 0.650532C209.325 0.609373 209.449 0.609374 209.573 0.609374C209.738 0.609374 209.862 0.609374 209.945 0.650532C210.027 0.691691 210.11 0.732849 210.151 0.774007C210.192 0.815166 210.234 0.897484 210.275 1.02096C210.316 1.10328 210.316 1.22675 210.358 1.35023L211.473 7.93559C211.597 8.67645 211.762 9.29383 211.927 9.87005C212.092 10.4051 212.34 10.899 212.588 11.2694C212.835 11.6399 213.166 11.928 213.538 12.1338C213.909 12.3396 214.364 12.4219 214.9 12.4219L215.603 12.4219L215.603 1.22675C215.603 1.14444 215.603 1.06212 215.644 1.02096C215.644 0.938643 215.685 0.897484 215.768 0.856325C215.85 0.815167 215.892 0.774008 215.974 0.774008C216.057 0.732849 216.181 0.73285 216.305 0.73285C216.429 0.73285 216.552 0.732849 216.635 0.774008C216.718 0.815166 216.8 0.815167 216.842 0.856325C216.883 0.897484 216.924 0.938643 216.965 1.02096C217.007 1.10328 217.007 1.14444 217.007 1.22675L217.007 12.463L217.709 12.463C218.204 12.463 218.659 12.3396 219.03 12.1338C219.402 11.928 219.732 11.5987 220.022 11.2283C220.311 10.8167 220.517 10.3639 220.724 9.78773C220.889 9.25267 221.054 8.63529 221.178 7.97675L222.293 1.43255C222.334 1.30907 222.334 1.18559 222.376 1.10328C222.417 1.02096 222.417 0.938643 222.5 0.856326C222.582 0.774008 222.623 0.73285 222.706 0.73285C222.789 0.691692 222.913 0.691692 223.078 0.691692C223.202 0.691692 223.326 0.691692 223.408 0.73285C223.491 0.774009 223.573 0.815167 223.615 0.856326C223.656 0.897484 223.697 0.979802 223.697 1.02096C223.697 1.10328 223.738 1.18559 223.738 1.26791C223.738 1.39139 223.739 1.55602 223.697 1.6795C223.656 1.80297 223.656 1.96761 223.656 2.09108L222.582 7.85328C222.417 8.63529 222.293 9.33499 222.128 9.95236C221.963 10.5697 221.797 11.0636 221.591 11.5164C221.384 11.9691 221.178 12.2984 220.889 12.6277C220.641 12.9158 220.311 13.1627 219.98 13.3685L219.98 13.4097C220.393 13.6566 220.724 13.9036 221.054 14.274C221.343 14.6033 221.632 15.0149 221.839 15.5088C222.087 16.0027 222.293 16.5789 222.458 17.2374C222.623 17.896 222.789 18.678 222.954 19.5423L224.11 25.9219C224.11 26.0042 224.151 26.0865 224.151 26.1688C224.151 26.2511 224.193 26.3335 224.193 26.4158C224.193 26.4981 224.193 26.5393 224.234 26.6216C224.275 26.5804 224.275 26.6216 224.275 26.6627Z" fill="#0088EC"/>
<path d="M235.178 26.0452C235.178 26.2098 235.178 26.3744 235.137 26.4979C235.137 26.6214 235.096 26.7448 235.054 26.8272C235.013 26.9095 234.972 26.9918 234.93 27.033C234.889 27.0741 234.848 27.1153 234.807 27.1153L228.075 27.1153C227.951 27.1153 227.786 27.033 227.662 26.8272C227.538 26.6625 227.455 26.2921 227.455 25.8394L227.455 2.09089C227.455 1.59698 227.538 1.26772 227.662 1.10308C227.786 0.938447 227.951 0.814972 228.075 0.814972L234.683 0.814972C234.724 0.814972 234.765 0.856131 234.807 0.897289C234.848 0.938448 234.889 1.02076 234.93 1.10308C234.972 1.1854 234.972 1.30887 235.013 1.47351C235.013 1.59698 235.054 1.80278 235.054 1.96741C235.054 2.13204 235.054 2.29668 235.013 2.42015C235.013 2.54363 234.972 2.66711 234.93 2.74942C234.889 2.83174 234.848 2.91406 234.807 2.95522C234.765 2.99637 234.724 3.03753 234.683 3.03753L228.818 3.03753L228.818 12.2982L233.898 12.2982C233.939 12.2982 234.022 12.3394 234.063 12.3805C234.104 12.4217 234.146 12.504 234.187 12.5863C234.228 12.6686 234.228 12.7921 234.27 12.9156C234.27 13.0391 234.311 13.2449 234.311 13.4095C234.311 13.5741 234.311 13.7388 234.27 13.8622C234.27 13.9857 234.228 14.1092 234.187 14.1915C234.146 14.2738 234.104 14.315 234.063 14.3561C234.022 14.3973 233.981 14.3973 233.898 14.3973L228.818 14.3973L228.818 24.8927L234.807 24.8927C234.848 24.8927 234.889 24.9339 234.93 24.975C234.972 25.0162 235.013 25.0985 235.054 25.1808C235.096 25.2631 235.096 25.3866 235.137 25.5101C235.178 25.6747 235.178 25.8394 235.178 26.0452Z" fill="#0088EC"/>
<path d="M252.689 19.5009C252.689 20.4064 252.607 21.3531 252.442 22.2586C252.276 23.1641 252.029 23.9872 251.698 24.7281C251.327 25.4689 250.872 26.0452 250.253 26.4979C249.633 26.9506 248.766 27.1976 247.651 27.1976L244.388 27.1976C244.264 27.1976 244.099 27.1153 243.975 26.9095C243.851 26.7448 243.769 26.3744 243.769 25.9217L243.769 2.09089C243.769 1.59698 243.851 1.26772 243.975 1.10308C244.099 0.938447 244.264 0.814971 244.388 0.814971L251.45 0.814972C251.492 0.814972 251.574 0.856131 251.616 0.897289C251.657 0.938448 251.698 1.02076 251.74 1.10308C251.781 1.1854 251.781 1.30887 251.822 1.47351C251.822 1.59698 251.863 1.80278 251.863 1.96741C251.863 2.13204 251.863 2.29668 251.822 2.46131C251.822 2.58479 251.781 2.70826 251.74 2.83174C251.698 2.91406 251.657 2.99637 251.616 3.03753C251.574 3.07869 251.533 3.11985 251.45 3.11985L245.09 3.11985L245.09 12.257L247.816 12.257C248.683 12.257 249.427 12.4217 250.005 12.7509C250.583 13.0802 251.079 13.5741 251.45 14.2327C251.822 14.8912 252.153 15.632 252.318 16.5375C252.566 17.4019 252.689 18.3897 252.689 19.5009ZM251.244 19.6656C251.244 18.8424 251.161 18.1427 251.037 17.4842C250.914 16.8256 250.666 16.2906 250.418 15.8378C250.129 15.3851 249.799 15.0147 249.386 14.8089C248.973 14.5619 248.436 14.4384 247.775 14.4384L245.09 14.4384L245.09 24.9339L247.816 24.9339C248.477 24.9339 249.014 24.8104 249.427 24.5634C249.84 24.3165 250.17 23.9872 250.418 23.4933C250.666 23.0406 250.872 22.4644 251.037 21.847C251.161 21.1884 251.244 20.4476 251.244 19.6656Z" fill="#0088EC"/>
<path d="M260.247 19.7481C259.875 21.3533 259.586 22.6703 259.297 23.6582C259.008 24.646 258.719 25.428 258.43 25.963C258.141 26.4981 257.852 26.8685 257.521 27.0743C257.191 27.2801 256.819 27.3624 256.365 27.3624C256.2 27.3624 256.076 27.3624 255.91 27.3213C255.745 27.2801 255.621 27.2389 255.497 27.1566C255.374 27.0743 255.25 26.992 255.126 26.9097C255.002 26.8274 254.961 26.745 254.878 26.6627C254.837 26.5804 254.795 26.5393 254.795 26.4569C254.754 26.3746 254.754 26.2923 254.754 26.21C254.754 26.1277 254.713 25.963 254.713 25.8396C254.713 25.6749 254.713 25.5103 254.713 25.3045C254.713 24.9341 254.754 24.646 254.795 24.4813C254.837 24.3167 254.919 24.2344 255.002 24.2344C255.043 24.2344 255.126 24.2755 255.208 24.3579C255.291 24.4402 255.374 24.5225 255.497 24.646C255.621 24.7283 255.745 24.8518 255.91 24.9341C256.076 25.0164 256.241 25.0575 256.489 25.0575C256.695 25.0575 256.902 25.0164 257.067 24.9341C257.232 24.8518 257.397 24.6871 257.562 24.399C257.728 24.1109 257.893 23.7405 258.058 23.2054C258.223 22.6703 258.43 22.0118 258.636 21.1063L253.309 1.67949C253.267 1.4737 253.226 1.30907 253.226 1.18559C253.226 1.06212 253.226 0.9798 253.309 0.897483C253.35 0.815166 253.432 0.774006 253.556 0.774006C253.68 0.732848 253.804 0.732848 253.969 0.732849C254.093 0.732849 254.217 0.732848 254.3 0.774006C254.382 0.815165 254.465 0.856325 254.506 0.897483C254.548 0.938642 254.63 1.02096 254.63 1.06212C254.671 1.14443 254.713 1.22675 254.713 1.30907L257.562 11.8045C257.893 12.9981 258.182 14.1094 258.471 15.1795C258.76 16.2496 259.049 17.3197 259.297 18.3899L259.338 18.3899C259.545 17.3197 259.793 16.2085 260.04 15.0972C260.288 13.9859 260.536 12.7511 260.866 11.3929L263.055 1.26791C263.097 1.18559 263.097 1.10328 263.138 1.02096C263.179 0.938642 263.22 0.897483 263.262 0.856324C263.303 0.815166 263.386 0.774007 263.51 0.774007C263.592 0.774007 263.716 0.732849 263.881 0.732849C264.046 0.732849 264.17 0.732848 264.253 0.774007C264.335 0.815166 264.418 0.856325 264.459 0.938642C264.501 1.02096 264.542 1.10328 264.542 1.18559C264.542 1.26791 264.542 1.39139 264.501 1.51486L260.247 19.7481Z" fill="#0088EC"/>
<path d="M275.445 1.92625C275.445 2.09089 275.445 2.25552 275.404 2.379C275.404 2.50247 275.363 2.62595 275.321 2.70826C275.28 2.79058 275.239 2.8729 275.198 2.91406C275.156 2.95522 275.115 2.99637 275.074 2.99637L270.778 2.99637L270.778 26.7037C270.778 26.786 270.778 26.8683 270.737 26.9095C270.696 26.9918 270.696 27.033 270.613 27.0741C270.572 27.1153 270.489 27.1564 270.407 27.1564C270.324 27.1976 270.2 27.1976 270.076 27.1976C269.953 27.1976 269.829 27.1976 269.746 27.1564C269.663 27.1153 269.581 27.1153 269.54 27.0741C269.498 27.033 269.457 26.9918 269.416 26.9095C269.374 26.8272 269.374 26.786 269.374 26.7037L269.374 3.03753L265.079 3.03753C265.038 3.03753 264.955 2.99637 264.914 2.95522C264.873 2.91406 264.831 2.83174 264.79 2.74942C264.749 2.66711 264.749 2.54363 264.708 2.42015C264.708 2.29668 264.666 2.13204 264.666 1.96741C264.666 1.76162 264.666 1.59698 264.708 1.47351C264.708 1.35003 264.749 1.22656 264.79 1.10308C264.831 1.02076 264.873 0.938447 264.914 0.897289C264.955 0.85613 264.997 0.814971 265.079 0.814971L274.991 0.814972C275.032 0.814972 275.074 0.856131 275.115 0.897289C275.156 0.938448 275.198 1.02076 275.239 1.10308C275.28 1.1854 275.28 1.30887 275.321 1.47351C275.445 1.59698 275.445 1.76162 275.445 1.92625Z" fill="#0088EC"/>
<path d="M288 26.7036C288 26.7859 288 26.8683 287.959 26.9094C287.917 26.9917 287.917 27.0329 287.835 27.0741C287.794 27.1152 287.711 27.1564 287.628 27.1564C287.546 27.1975 287.422 27.1975 287.298 27.1975C287.174 27.1975 287.05 27.1975 286.968 27.1564C286.885 27.1152 286.802 27.1152 286.761 27.0741C286.72 27.0329 286.678 26.9917 286.637 26.9094C286.596 26.8271 286.596 26.7859 286.596 26.7036L286.596 7.60607C286.596 7.23564 286.596 6.86522 286.596 6.41247C286.596 6.00089 286.596 5.5893 286.637 5.26003L286.596 5.26003C286.555 5.42467 286.472 5.63046 286.431 5.83625C286.348 6.04205 286.307 6.24784 286.224 6.45363C286.142 6.65942 286.059 6.86522 286.018 7.07101C285.935 7.2768 285.894 7.4826 285.811 7.68839L278.914 26.7448C278.873 26.8271 278.832 26.9094 278.832 26.9506C278.79 27.0329 278.749 27.0741 278.708 27.1152C278.666 27.1564 278.584 27.1975 278.542 27.1975C278.46 27.1975 278.377 27.2387 278.295 27.2387C278.171 27.2387 278.088 27.2387 278.006 27.1975C277.923 27.1564 277.882 27.1152 277.84 27.0741C277.799 27.0329 277.758 26.9506 277.758 26.9094C277.758 26.8271 277.716 26.7448 277.716 26.6213L277.716 1.2265C277.716 1.14418 277.716 1.06186 277.758 1.0207C277.799 0.938387 277.84 0.897228 277.882 0.856069C277.964 0.773752 278.047 0.732594 278.129 0.732594C278.212 0.691436 278.336 0.691436 278.419 0.691436C278.542 0.691436 278.666 0.691436 278.749 0.732594C278.832 0.773753 278.914 0.773753 278.955 0.814912C278.997 0.85607 279.038 0.897228 279.079 0.979545C279.121 1.06186 279.121 1.10302 279.121 1.18534L279.121 20.4475C279.121 20.7768 279.121 21.1472 279.121 21.5177C279.121 21.8881 279.121 22.2585 279.079 22.6289L279.121 22.6289C279.245 22.3408 279.368 21.9704 279.492 21.5177C279.616 21.0649 279.781 20.6533 279.947 20.2006L286.761 1.18534C286.802 1.10302 286.844 1.0207 286.844 0.979545C286.885 0.938387 286.926 0.856071 286.968 0.814912C287.05 0.773753 287.133 0.732595 287.174 0.732595C287.257 0.732595 287.339 0.691437 287.422 0.691437C287.546 0.691437 287.628 0.691436 287.711 0.732595C287.794 0.773753 287.835 0.814911 287.876 0.85607C287.917 0.897229 287.959 0.979546 287.959 1.0207C287.959 1.10302 288 1.18534 288 1.26766L288 26.7036Z" fill="#0088EC"/>
<path d="M12.4717 52.1373C12.4717 52.4508 12.4292 52.7251 12.3444 52.8819C12.2596 53.0386 12.1323 53.117 12.005 53.117L0.46653 53.117C0.339267 53.117 0.212009 53.0386 0.127168 52.8819C0.042326 52.7251 -9.05707e-05 52.49 -9.0554e-05 52.1373L-8.96639e-05 33.3274C-8.96602e-05 33.2491 -9.91951e-05 33.2099 0.0423212 33.1707C0.0423212 33.1315 0.0847473 33.0923 0.127169 33.0531C0.169589 33.0139 0.212021 33.014 0.296863 32.9748C0.381704 32.9356 0.466536 32.9356 0.551378 32.9356C0.67864 32.9356 0.763498 32.9356 0.805919 32.9748C0.890761 33.014 0.933167 33.0139 0.975587 33.0531C1.01801 33.0923 1.06043 33.1315 1.06043 33.1707C1.06043 33.2099 1.10285 33.2883 1.10285 33.3274L1.10284 51.3928L5.68433 51.3928L5.68433 33.3274C5.68433 33.2491 5.68432 33.2099 5.72674 33.1707C5.72674 33.1315 5.76916 33.0923 5.81159 33.0531C5.85401 33.0139 5.89641 33.014 5.98125 32.9748C6.0661 32.9356 6.15095 32.9356 6.2358 32.9356C6.36306 32.9356 6.44789 32.9356 6.49031 32.9748C6.57515 33.014 6.61758 33.0139 6.66 33.0531C6.70243 33.0923 6.74485 33.1315 6.74485 33.1707C6.74485 33.2099 6.78726 33.2883 6.78726 33.3274L6.78726 51.3928L11.3687 51.3928L11.3687 33.3274C11.3687 33.2491 11.3687 33.2099 11.4112 33.1707C11.4112 33.1315 11.4536 33.0923 11.496 33.0531C11.5384 33.0139 11.5808 33.014 11.6657 32.9748C11.7505 32.9356 11.8353 32.9356 11.9202 32.9356C12.0474 32.9356 12.1323 32.9356 12.1747 32.9748C12.2596 33.014 12.302 33.014 12.3444 33.0531C12.3868 33.0923 12.4292 33.1315 12.4292 33.1707C12.4292 33.2099 12.4717 33.2883 12.4717 33.3274L12.4717 52.1373Z" fill="#0088EC"/>
<path d="M23.3315 52.7643C23.3315 52.8427 23.3316 52.8819 23.2891 52.9602C23.2891 52.9994 23.2467 53.0386 23.2043 53.0778C23.1619 53.117 23.1194 53.1562 23.0346 53.1562C22.9497 53.1954 22.8649 53.1954 22.7801 53.1954C22.6528 53.1954 22.568 53.1954 22.4831 53.1562C22.3983 53.117 22.3558 53.0778 22.3134 53.0386C22.271 52.9994 22.2286 52.9211 22.2286 52.8819C22.1862 52.8035 22.1862 52.7251 22.1438 52.6467L20.956 47.474C20.8287 46.8078 20.659 46.22 20.4469 45.7498C20.2348 45.2795 20.0227 44.8485 19.7682 44.535C19.5136 44.2215 19.2167 43.9864 18.8773 43.8296C18.538 43.6729 18.1986 43.5945 17.7744 43.5945L17.0532 43.5945L17.0532 52.8035C17.0532 52.8819 17.0532 52.9211 17.0108 52.9602C17.0108 52.9994 16.9684 53.0386 16.926 53.0778C16.8836 53.117 16.8411 53.117 16.7563 53.1562C16.6715 53.1954 16.5866 53.1954 16.5018 53.1954C16.4169 53.1954 16.2897 53.1954 16.2472 53.1562C16.1624 53.117 16.12 53.117 16.0776 53.0778C16.0351 53.0386 15.9927 52.9994 15.9927 52.9602C15.9927 52.9211 15.9503 52.8427 15.9503 52.8035L15.9503 33.3274C15.9503 33.2491 15.9503 33.2099 15.9927 33.1707C15.9927 33.1315 16.0352 33.0923 16.0776 33.0531C16.12 33.0139 16.1624 33.014 16.2472 32.9748C16.3321 32.9356 16.4169 32.9356 16.5018 32.9356C16.629 32.9356 16.7139 32.9356 16.7563 32.9748C16.8411 33.014 16.8836 33.0139 16.926 33.0531C16.9684 33.0923 17.0108 33.1315 17.0108 33.1707C17.0108 33.2099 17.0532 33.2883 17.0532 33.3274L17.0532 41.9094L17.7744 41.9094C18.1986 41.9094 18.538 41.8311 18.8349 41.6743C19.1319 41.5176 19.4288 41.2825 19.6409 40.9298C19.8954 40.6163 20.0651 40.2244 20.2348 39.7542C20.4045 39.2839 20.5742 38.7353 20.7014 38.1083L21.6347 33.5234C21.6347 33.445 21.6771 33.3666 21.6771 33.2883C21.7195 33.2099 21.7195 33.1707 21.762 33.0923C21.8044 33.0531 21.8892 33.014 21.9317 32.9748C22.0165 32.9356 22.1013 32.9356 22.2286 32.9356C22.3559 32.9356 22.4407 32.9356 22.4831 32.9748C22.568 33.014 22.6104 33.0139 22.6528 33.0531C22.6952 33.0923 22.7376 33.1315 22.7376 33.1707C22.7376 33.2099 22.7376 33.2883 22.7376 33.3666C22.7376 33.4842 22.7376 33.5626 22.6952 33.6801C22.6952 33.7977 22.6528 33.8761 22.6528 33.9936L21.6347 38.5002C21.5074 39.1272 21.3802 39.6366 21.2105 40.1068C21.0832 40.5379 20.9136 40.9298 20.7439 41.2825C20.5742 41.596 20.3621 41.8703 20.15 42.1054C19.9379 42.3405 19.6833 42.4973 19.4288 42.6148L19.4288 42.654C19.7258 42.8108 20.0227 43.0067 20.2348 43.2418C20.4893 43.4769 20.7014 43.7904 20.8711 44.1039C21.0832 44.4566 21.2529 44.8485 21.4226 45.3187C21.5923 45.789 21.7195 46.3376 21.8892 47.0038L23.077 52.1373C23.1194 52.2941 23.1194 52.4508 23.1618 52.5292C23.3315 52.6076 23.3315 52.6859 23.3315 52.7643Z" fill="#0088EC"/>
<path d="M27.022 52.8035C27.022 52.8819 27.022 52.9211 26.9795 52.9602C26.9795 52.9994 26.9371 53.0386 26.8947 53.0778C26.8523 53.117 26.8099 53.117 26.725 53.1562C26.6402 53.1954 26.5553 53.1954 26.4705 53.1954C26.3857 53.1954 26.2584 53.1954 26.216 53.1562C26.1311 53.117 26.0887 53.117 26.0463 53.0778C26.0039 53.0386 25.9614 52.9994 25.9614 52.9602C25.9614 52.9211 25.919 52.8427 25.919 52.8035L25.919 33.3274C25.919 33.2491 25.919 33.2099 25.9614 33.1707C25.9614 33.1315 26.0039 33.0923 26.0463 33.0531C26.0887 33.0139 26.1311 33.014 26.216 32.9748C26.3008 32.9356 26.3857 32.9356 26.4705 32.9356C26.5978 32.9356 26.6826 32.9356 26.725 32.9748C26.8099 33.014 26.8523 33.014 26.8947 33.0531C26.9371 33.0923 26.9795 33.1315 26.9795 33.1707C26.9795 33.2099 27.022 33.2883 27.022 33.3274L27.022 52.8035Z" fill="#0088EC"/>
<path d="M40.0454 58.0939C40.0454 58.1723 40.0454 58.2115 40.0454 58.2507C40.0454 58.2899 40.003 58.3291 39.9606 58.3683C39.9181 58.4074 39.8757 58.4074 39.8333 58.4466C39.7909 58.4466 39.706 58.4858 39.5788 58.4858C39.4939 58.4858 39.4091 58.4858 39.3667 58.4466C39.3242 58.4466 39.2818 58.4074 39.2394 58.3683C39.197 58.3291 39.197 58.2899 39.1546 58.2507C39.1546 58.2115 39.1121 58.1723 39.1121 58.0939L39.1121 53.1172L29.6523 53.1172L29.6523 58.0939C29.6523 58.1723 29.6523 58.2115 29.6098 58.2507C29.6098 58.2899 29.5674 58.3291 29.525 58.3683C29.4826 58.4074 29.4402 58.4074 29.3977 58.4466C29.3553 58.4466 29.2705 58.4858 29.1856 58.4858C29.1008 58.4858 29.016 58.4858 28.9311 58.4466C28.8887 58.4466 28.8039 58.4074 28.8039 58.3683C28.8039 58.3291 28.7614 58.2899 28.719 58.2507C28.719 58.2115 28.719 58.1723 28.719 58.0939L28.719 52.1767C28.719 51.9416 28.719 51.7456 28.7614 51.6281C28.8038 51.5105 28.8887 51.4321 29.016 51.4321L29.7795 51.4321C29.9492 51.0402 30.1189 50.6484 30.2886 50.2565C30.4583 49.8646 30.5855 49.3944 30.7128 48.8458C30.8401 48.2971 31.0097 47.631 31.137 46.8472C31.2643 46.0635 31.3915 45.123 31.5188 43.9474C31.646 42.7717 31.7733 41.4002 31.9006 39.7935C32.0278 38.1868 32.1551 36.2275 32.3248 33.9938C32.3672 33.6803 32.4096 33.406 32.4945 33.2493C32.5793 33.0925 32.6642 33.0141 32.8338 33.0141L37.9668 33.0141C38.094 33.0141 38.2213 33.0925 38.3061 33.2493C38.391 33.406 38.4334 33.6411 38.4334 33.9938L38.4334 51.4321L39.706 51.4321C39.8333 51.4321 39.8757 51.5105 39.9181 51.6281C39.9605 51.7456 40.003 51.9416 40.003 52.1767L40.003 58.0939L40.0454 58.0939ZM37.3729 34.7384L33.4702 34.7384C33.3429 36.8545 33.1732 38.6963 33.046 40.2246C32.9187 41.7921 32.7914 43.1244 32.6642 44.2609C32.5369 45.3973 32.4096 46.3378 32.2824 47.1215C32.1551 47.9053 32.0278 48.5715 31.9006 49.0809C31.7733 49.6295 31.646 50.0606 31.5188 50.4133C31.3915 50.7659 31.2218 51.0794 31.0946 51.3929L37.4153 51.3929L37.4153 34.7384L37.3729 34.7384Z" fill="#0088EC"/>
<path d="M49.9722 52.8037C49.9722 52.882 49.9722 52.9212 49.9298 52.9604C49.9298 52.9996 49.8873 53.0388 49.8449 53.078C49.8025 53.1172 49.7601 53.1172 49.6752 53.1564C49.5904 53.1955 49.5055 53.1955 49.4207 53.1955C49.3359 53.1955 49.2086 53.1955 49.1662 53.1564C49.0813 53.1172 49.0389 53.1172 48.9965 53.078C48.9541 53.0388 48.9116 52.9996 48.9116 52.9604C48.9116 52.9212 48.8692 52.8429 48.8692 52.8037L48.8692 34.7384L45.0938 34.7384C44.9241 37.1288 44.7968 39.2841 44.6271 41.1259C44.4575 42.9677 44.2878 44.6135 44.1181 45.9851C43.9484 47.3567 43.7363 48.5323 43.5242 49.4728C43.3121 50.4132 43.1 51.1578 42.803 51.7456C42.5485 52.3334 42.2516 52.7253 41.9122 52.9996C41.5728 53.2739 41.191 53.3915 40.7668 53.3915C40.7244 53.3915 40.682 53.3523 40.6396 53.3131C40.5971 53.2739 40.5547 53.1955 40.5547 53.1172C40.5123 53.0388 40.5123 52.9604 40.5123 52.8429C40.5123 52.7253 40.5123 52.6077 40.5123 52.451C40.5123 52.2942 40.5123 52.1767 40.5123 52.0591C40.5123 51.9416 40.5547 51.8632 40.5547 51.7848C40.5971 51.7064 40.5971 51.6672 40.6396 51.6281C40.682 51.5889 40.7244 51.5889 40.7668 51.5889C41.0213 51.5889 41.2335 51.5105 41.4456 51.3537C41.6577 51.197 41.8698 50.8835 42.0394 50.4132C42.2515 49.943 42.4213 49.316 42.5909 48.4931C42.7606 47.6701 42.9303 46.6121 43.1 45.3189C43.2697 44.0257 43.4394 42.4582 43.5666 40.6164C43.7363 38.7746 43.8636 36.6194 44.0332 34.1114C44.0757 33.7195 44.1181 33.4452 44.2029 33.2884C44.2878 33.1317 44.415 33.0533 44.5847 33.0533L49.5055 33.0533C49.6328 33.0533 49.7601 33.1317 49.8449 33.2884C49.9298 33.4452 49.9722 33.6803 49.9722 34.033L49.9722 52.8037Z" fill="#0088EC"/>
<path d="M61.8922 52.8036C61.8922 52.882 61.8921 52.9212 61.8497 52.9604C61.8497 52.9996 61.8073 53.0387 61.7649 53.0779C61.7225 53.1171 61.68 53.1171 61.5952 53.1563C61.5104 53.1955 61.4255 53.1955 61.3407 53.1955C61.2558 53.1955 61.1286 53.1955 61.0862 53.1563C61.0013 53.1171 60.9589 53.1171 60.9165 53.0779C60.874 53.0387 60.8316 52.9996 60.8316 52.9604C60.8316 52.9212 60.7892 52.8428 60.7892 52.8036L60.7892 38.226C60.7892 37.9517 60.7892 37.6382 60.7892 37.3247C60.7892 37.0112 60.7892 36.6977 60.8316 36.4234C60.7892 36.5409 60.7468 36.6977 60.7044 36.8544C60.6619 37.0112 60.5771 37.1679 60.5347 37.3247C60.4923 37.4814 60.4074 37.6382 60.365 37.7949C60.3226 37.9517 60.2377 38.1084 60.1953 38.2652L54.5533 52.8036C54.5109 52.882 54.5109 52.9212 54.4685 52.9604C54.4261 52.9996 54.3836 53.0387 54.3412 53.0779C54.2988 53.1171 54.2564 53.1171 54.1715 53.1563C54.1291 53.1563 54.0443 53.1955 53.9594 53.1955C53.8746 53.1955 53.7898 53.1955 53.7473 53.1563C53.7049 53.1171 53.6625 53.1171 53.6201 53.0779C53.5777 53.0387 53.5776 52.9996 53.5352 52.9212C53.5352 52.882 53.4928 52.8036 53.4928 52.7252L53.4928 33.3276C53.4928 33.2492 53.4928 33.21 53.5352 33.1708C53.5352 33.1316 53.5777 33.0925 53.6201 33.0533C53.6625 33.0141 53.7049 33.0141 53.7897 32.9749C53.8746 32.9357 53.9594 32.9357 54.0443 32.9357C54.1715 32.9357 54.2564 32.9357 54.2988 32.9749C54.3836 33.0141 54.4261 33.0141 54.4685 33.0533C54.5109 33.0925 54.5533 33.1316 54.5533 33.1708C54.5533 33.21 54.5958 33.2884 54.5958 33.3276L54.5958 48.0228C54.5958 48.2971 54.5958 48.5714 54.5958 48.8457C54.5958 49.12 54.5957 49.4335 54.5533 49.6686C54.6382 49.4335 54.723 49.1592 54.8503 48.8457C54.9775 48.5322 55.1048 48.1795 55.2321 47.866L60.874 33.2884C60.9165 33.21 60.9165 33.1708 60.9589 33.1316C61.0013 33.0925 61.0437 33.0533 61.0862 33.0141C61.1286 32.9749 61.171 32.9749 61.2558 32.9357C61.2983 32.9357 61.3831 32.8965 61.468 32.8965C61.5528 32.8965 61.6376 32.8965 61.6801 32.9357C61.7225 32.9749 61.7649 32.9749 61.8073 33.0141C61.8497 33.0533 61.8497 33.0925 61.8922 33.1316C61.8922 33.1708 61.9346 33.2492 61.9346 33.3276L61.9346 52.8036L61.8922 52.8036Z" fill="#0088EC"/>
<path d="M72.7095 47.5134C72.7095 48.1012 72.667 48.6498 72.5822 49.1593C72.4973 49.6687 72.3701 50.1389 72.2428 50.5308C72.0731 50.9619 71.9035 51.3146 71.6914 51.6281C71.4793 51.9416 71.2247 52.2159 70.9278 52.451C70.6308 52.6861 70.3339 52.8429 70.0369 52.9604C69.6976 53.078 69.3582 53.1172 68.934 53.1172L65.8797 53.1172C65.7524 53.1172 65.6676 53.0388 65.5403 52.9212C65.4131 52.7645 65.3706 52.5294 65.3706 52.1375L65.3706 33.9938C65.3706 33.6019 65.4131 33.3668 65.5403 33.2101C65.6676 33.0533 65.7524 33.0141 65.8797 33.0141L68.4249 33.0141C69.1037 33.0141 69.6552 33.1317 70.0794 33.3668C70.5036 33.6019 70.8429 33.9546 71.1399 34.3857C71.4368 34.8167 71.6065 35.3654 71.7762 35.9924C71.9035 36.6194 71.9883 37.3247 71.9883 38.0693C71.9883 38.5395 71.9459 39.0098 71.9035 39.4408C71.8186 39.8719 71.7338 40.2638 71.6065 40.6556C71.4792 41.0475 71.3096 41.361 71.1399 41.6745C70.9278 41.988 70.7157 42.2231 70.4611 42.4191C70.7581 42.5366 71.0551 42.7326 71.352 43.0069C71.6489 43.2812 71.8611 43.6339 72.0732 44.1041C72.2853 44.5352 72.4549 45.0446 72.5822 45.6324C72.6246 46.181 72.7095 46.808 72.7095 47.5134ZM70.7581 38.226C70.7581 37.7166 70.7157 37.2072 70.6308 36.7761C70.546 36.345 70.4187 35.9924 70.2066 35.6789C70.0369 35.3654 69.7824 35.1302 69.4855 34.9735C69.1885 34.8167 68.8067 34.7384 68.2977 34.7384L66.4736 34.7384L66.4736 41.9488L68.5098 41.9488C68.934 41.9488 69.3158 41.8313 69.5703 41.6353C69.8248 41.4394 70.0794 41.1651 70.249 40.8124C70.4187 40.4597 70.546 40.0678 70.6308 39.6368C70.7157 39.1665 70.7581 38.6963 70.7581 38.226ZM71.5217 47.631C71.5217 46.9648 71.4793 46.377 71.352 45.8675C71.2247 45.3581 71.0551 44.927 70.8005 44.6135C70.546 44.2609 70.249 44.0257 69.9097 43.8298C69.5703 43.6731 69.1037 43.5555 68.5946 43.5555L66.4736 43.5555L66.4736 51.3929L69.0613 51.3929C69.443 51.3929 69.7824 51.3146 70.0794 51.1578C70.3763 51.0011 70.6308 50.7659 70.8429 50.4524C71.055 50.1389 71.2247 49.7471 71.352 49.2768C71.4793 48.8066 71.5217 48.258 71.5217 47.631Z" fill="#0088EC"/>
<path d="M83.7813 52.8035C83.7813 52.8819 83.7813 52.9211 83.7389 52.9602C83.7389 52.9994 83.6965 53.0386 83.6541 53.0778C83.6116 53.117 83.5692 53.117 83.4844 53.1562C83.3995 53.1954 83.3147 53.1954 83.2299 53.1954C83.145 53.1954 83.0177 53.1954 82.9753 53.1562C82.8905 53.117 82.8481 53.117 82.8056 53.0778C82.7632 53.0386 82.7208 52.9994 82.7208 52.9602C82.7208 52.9211 82.6784 52.8427 82.6784 52.8035L82.6784 38.2259C82.6784 37.9515 82.6784 37.638 82.6784 37.3245C82.6784 37.011 82.6784 36.6975 82.7208 36.4232C82.6784 36.5408 82.636 36.6975 82.5935 36.8543C82.5511 37.011 82.4663 37.1678 82.4238 37.3245C82.3814 37.4813 82.2966 37.638 82.2542 37.7948C82.2118 37.9515 82.1269 38.1083 82.0845 38.265L76.4425 52.8035C76.4001 52.8819 76.4001 52.9211 76.3577 52.9602C76.3152 52.9994 76.2728 53.0386 76.2304 53.0778C76.188 53.117 76.1455 53.117 76.0607 53.1562C76.0183 53.1562 75.9334 53.1954 75.8486 53.1954C75.7638 53.1954 75.6789 53.1954 75.6365 53.1562C75.5941 53.117 75.5517 53.117 75.5092 53.0778C75.4668 53.0386 75.4668 52.9994 75.4244 52.9211C75.4244 52.8819 75.382 52.8035 75.382 52.7251L75.382 33.3274C75.382 33.2491 75.382 33.2099 75.4244 33.1707C75.4244 33.1315 75.4668 33.0923 75.5092 33.0531C75.5517 33.0139 75.5941 33.014 75.6789 32.9748C75.7638 32.9356 75.8486 32.9356 75.9334 32.9356C76.0607 32.9356 76.1455 32.9356 76.188 32.9748C76.2728 33.014 76.3152 33.0139 76.3577 33.0531C76.4001 33.0923 76.4425 33.1315 76.4425 33.1707C76.4425 33.2099 76.4849 33.2883 76.4849 33.3274L76.4849 48.0227C76.4849 48.297 76.4849 48.5713 76.4849 48.8456C76.4849 49.1199 76.4849 49.4334 76.4425 49.6685C76.5273 49.4334 76.6122 49.1591 76.7395 48.8456C76.8667 48.5321 76.994 48.1794 77.1212 47.8659L82.7632 33.3274C82.8056 33.2491 82.8056 33.2099 82.8481 33.1707C82.8905 33.1315 82.9329 33.0923 82.9753 33.0531C83.0177 33.0139 83.0602 33.014 83.145 32.9748C83.1874 32.9748 83.2723 32.9356 83.3571 32.9356C83.442 32.9356 83.5268 32.9356 83.5692 32.9748C83.6116 33.014 83.6541 33.014 83.6965 33.0531C83.7389 33.0923 83.7389 33.1315 83.7813 33.1707C83.7813 33.2099 83.8237 33.2883 83.8237 33.3666L83.8237 52.8035L83.7813 52.8035Z" fill="#0088EC"/>
<path d="M99.562 52.8035C99.562 52.8819 99.562 52.9211 99.5196 52.9602C99.5196 52.9994 99.4772 53.0386 99.4347 53.0778C99.3923 53.117 99.3499 53.117 99.2651 53.1562C99.1802 53.1954 99.0954 53.1954 99.0105 53.1954C98.9257 53.1954 98.8408 53.1954 98.756 53.1562C98.6712 53.117 98.6287 53.117 98.5863 53.0778C98.5439 53.0386 98.5015 52.9994 98.5015 52.9602C98.5015 52.9211 98.4591 52.8427 98.4591 52.8035L98.4591 34.699L93.7928 52.9211C93.7928 52.9602 93.7503 52.9994 93.7503 53.0386C93.7079 53.0778 93.7079 53.117 93.6655 53.117C93.6231 53.1562 93.5806 53.1562 93.4958 53.1954C93.4534 53.1954 93.3685 53.2346 93.2837 53.2346C93.1989 53.2346 93.114 53.2346 93.0716 53.1954C93.0292 53.1562 92.9443 53.1562 92.9019 53.117C92.8595 53.0778 92.8171 53.0778 92.8171 53.0386C92.7746 52.9994 92.7747 52.9602 92.7747 52.9211L88.3629 34.699L88.3629 52.8035C88.3629 52.8819 88.3629 52.9211 88.3205 52.9602C88.3205 52.9994 88.278 53.0386 88.2356 53.0778C88.1932 53.117 88.1508 53.117 88.0659 53.1562C87.9811 53.1954 87.8963 53.1954 87.769 53.1954C87.6842 53.1954 87.5993 53.1954 87.5145 53.1562C87.4296 53.117 87.3872 53.117 87.3448 53.0778C87.3024 53.0386 87.2599 52.9994 87.2599 52.9602C87.2599 52.9211 87.2175 52.8427 87.2175 52.8035L87.2175 33.9936C87.2175 33.6018 87.2599 33.3666 87.3872 33.2099C87.5145 33.0531 87.5993 33.014 87.7266 33.014L88.3205 33.014C88.4901 33.014 88.6174 33.0531 88.7022 33.0923C88.8295 33.1315 88.9143 33.2491 88.9992 33.3274C89.084 33.445 89.1689 33.5626 89.2113 33.7193C89.2537 33.8761 89.3386 34.0328 89.381 34.2288L93.2837 50.178L93.3261 50.178L97.3985 34.2679C97.441 34.0328 97.5258 33.7977 97.6106 33.6409C97.6955 33.4842 97.7379 33.3274 97.8228 33.2491C97.9076 33.1315 97.9924 33.0923 98.0773 33.014C98.1621 32.9748 98.247 32.9356 98.3742 32.9356L99.053 32.9356C99.0954 32.9356 99.1802 32.9356 99.2226 32.9748C99.2651 33.014 99.3499 33.0531 99.3923 33.1315C99.4347 33.2099 99.4772 33.3274 99.5196 33.445C99.562 33.5626 99.562 33.7193 99.562 33.9153L99.562 52.8035Z" fill="#0088EC"/>
<path d="M116.87 58.0939C116.87 58.1723 116.87 58.2115 116.87 58.2507C116.87 58.2899 116.827 58.3291 116.785 58.3683C116.742 58.4074 116.7 58.4074 116.658 58.4466C116.615 58.4858 116.53 58.4858 116.403 58.4858C116.318 58.4858 116.233 58.4858 116.191 58.4466C116.148 58.4466 116.106 58.4074 116.064 58.3683C116.021 58.3291 116.021 58.2899 115.979 58.2507C115.979 58.2115 115.936 58.1723 115.936 58.0939L115.936 53.1172L106.476 53.1172L106.476 58.0939C106.476 58.1723 106.476 58.2115 106.434 58.2507C106.434 58.2899 106.392 58.3291 106.349 58.3683C106.307 58.4074 106.264 58.4074 106.222 58.4466C106.18 58.4466 106.095 58.4858 106.01 58.4858C105.925 58.4858 105.84 58.4858 105.755 58.4466C105.713 58.4466 105.628 58.4074 105.628 58.3683C105.628 58.3291 105.586 58.2899 105.543 58.2507C105.543 58.2115 105.543 58.1723 105.543 58.0939L105.543 52.1767C105.543 51.9416 105.543 51.7456 105.586 51.6281C105.628 51.5105 105.713 51.4321 105.84 51.4321L106.604 51.4321C106.773 51.0402 106.943 50.6484 107.113 50.2565C107.282 49.8646 107.41 49.3944 107.537 48.8458C107.664 48.2971 107.834 47.631 107.961 46.8472C108.088 46.0635 108.216 45.123 108.343 43.9474C108.47 42.7717 108.598 41.4002 108.725 39.7935C108.852 38.1868 108.979 36.2275 109.149 33.9938C109.191 33.6803 109.234 33.406 109.319 33.2493C109.404 33.0925 109.488 33.0141 109.658 33.0141L114.791 33.0141C114.918 33.0141 115.046 33.0925 115.13 33.2493C115.215 33.406 115.258 33.6411 115.258 33.9938L115.258 51.4321L116.53 51.4321C116.658 51.4321 116.7 51.5105 116.742 51.6281C116.785 51.7456 116.827 51.9416 116.827 52.1767L116.827 58.0939L116.87 58.0939ZM114.155 34.7384L110.252 34.7384C110.125 36.8545 109.955 38.6963 109.828 40.2246C109.7 41.7921 109.573 43.1244 109.446 44.2609C109.319 45.3973 109.191 46.3378 109.064 47.1215C108.937 47.9053 108.81 48.5715 108.682 49.0809C108.555 49.6295 108.428 50.0606 108.301 50.4133C108.173 50.7659 108.004 51.0794 107.876 51.3929L114.197 51.3929L114.197 34.7384L114.155 34.7384Z" fill="#0088EC"/>
<path d="M126.796 52.8037C126.796 52.882 126.796 52.9212 126.754 52.9604C126.754 52.9996 126.712 53.0388 126.669 53.078C126.627 53.1172 126.584 53.1172 126.499 53.1564C126.415 53.1955 126.33 53.1955 126.245 53.1955C126.16 53.1955 126.033 53.1955 125.99 53.1564C125.906 53.1172 125.863 53.1172 125.821 53.078C125.778 53.0388 125.736 52.9996 125.736 52.9604C125.736 52.9212 125.693 52.8429 125.693 52.8037L125.693 34.7384L121.918 34.7384C121.748 37.1288 121.621 39.2841 121.451 41.1259C121.282 42.9677 121.112 44.6135 120.942 45.9851C120.773 47.3567 120.561 48.5323 120.348 49.4728C120.136 50.4132 119.924 51.1578 119.627 51.7456C119.373 52.3334 119.076 52.7253 118.736 52.9996C118.397 53.2739 118.015 53.3915 117.591 53.3915C117.549 53.3915 117.506 53.3523 117.464 53.3131C117.421 53.2739 117.379 53.1955 117.379 53.1172C117.337 53.0388 117.337 52.9604 117.337 52.8429C117.337 52.7253 117.337 52.6077 117.337 52.451C117.337 52.2942 117.337 52.1767 117.337 52.0591C117.337 51.9416 117.379 51.8632 117.379 51.7848C117.379 51.7064 117.421 51.6672 117.464 51.6281C117.506 51.5889 117.549 51.5889 117.591 51.5889C117.846 51.5889 118.058 51.5105 118.27 51.3537C118.482 51.197 118.694 50.8835 118.864 50.4132C119.076 49.943 119.245 49.316 119.415 48.4931C119.585 47.6701 119.755 46.6121 119.924 45.3189C120.094 44.0257 120.264 42.4582 120.391 40.6164C120.561 38.7746 120.688 36.6194 120.857 34.1114C120.9 33.7195 120.942 33.4452 121.027 33.2884C121.112 33.1317 121.239 33.0533 121.409 33.0533L126.33 33.0533C126.457 33.0533 126.584 33.1317 126.669 33.2884C126.754 33.4452 126.796 33.6803 126.796 34.033L126.796 52.8037Z" fill="#0088EC"/>
<path d="M136.978 52.8035C136.978 52.8819 136.978 52.921 136.935 52.9602C136.935 52.9994 136.893 53.0386 136.85 53.0778C136.808 53.117 136.765 53.117 136.681 53.1562C136.596 53.1954 136.511 53.1954 136.426 53.1954C136.299 53.1954 136.214 53.1954 136.172 53.1562C136.087 53.117 136.044 53.117 136.002 53.0778C135.959 53.0386 135.917 52.9994 135.917 52.9602C135.917 52.921 135.875 52.8427 135.875 52.8035L135.875 43.9472L134.517 43.9472C133.966 43.9472 133.584 44.0256 133.287 44.2215C132.99 44.4174 132.778 44.6917 132.566 45.0444C132.354 45.3971 132.184 45.789 132.057 46.2592C131.929 46.7295 131.76 47.2389 131.632 47.8267L130.572 52.6076C130.53 52.7251 130.53 52.8427 130.487 52.921C130.445 52.9994 130.402 53.0778 130.36 53.117C130.317 53.1562 130.275 53.1954 130.19 53.1954C130.105 53.1954 130.021 53.2345 129.936 53.2345C129.808 53.2345 129.724 53.2345 129.639 53.1954C129.554 53.1562 129.511 53.1562 129.469 53.117C129.427 53.0778 129.384 53.0386 129.384 52.9994C129.384 52.9602 129.342 52.8819 129.342 52.8035C129.342 52.6859 129.342 52.5684 129.384 52.4508C129.384 52.3332 129.469 52.0981 129.511 51.7846L130.53 47.3565C130.657 46.847 130.784 46.3376 130.911 45.9457C131.039 45.5147 131.166 45.162 131.336 44.8093C131.463 44.4958 131.633 44.2215 131.802 43.9864C131.972 43.7512 132.184 43.5553 132.396 43.4377C132.057 43.3202 131.717 43.0851 131.42 42.8107C131.123 42.5364 130.869 42.1837 130.657 41.7919C130.445 41.4 130.275 40.9298 130.19 40.3811C130.063 39.8717 130.021 39.2839 130.021 38.6569C130.021 37.8732 130.105 37.1286 130.233 36.4624C130.402 35.7962 130.614 35.2084 130.954 34.699C131.251 34.1896 131.675 33.7977 132.142 33.5234C132.608 33.2491 133.329 33.0923 134.263 33.0923L136.468 33.0923C136.596 33.0923 136.681 33.1707 136.808 33.2883C136.935 33.445 136.978 33.6801 136.978 34.072L136.978 52.8035ZM135.875 34.7382L134.22 34.7382C133.541 34.7382 133.032 34.8166 132.693 35.0125C132.354 35.2084 132.057 35.4435 131.845 35.7962C131.632 36.1097 131.463 36.5016 131.378 36.9719C131.293 37.4421 131.251 37.9123 131.251 38.461C131.251 38.9704 131.293 39.4798 131.42 39.9109C131.505 40.3811 131.675 40.773 131.929 41.1257C132.142 41.4784 132.438 41.7527 132.778 41.9486C133.117 42.1446 133.626 42.2621 134.22 42.2621L135.917 42.2621L135.917 34.7382L135.875 34.7382Z" fill="#0088EC"/>
<path d="M152.037 47.5134C152.037 48.1012 151.994 48.6498 151.909 49.1593C151.825 49.6687 151.697 50.1389 151.57 50.5308C151.4 50.9619 151.231 51.3146 151.019 51.6281C150.806 51.9416 150.552 52.2159 150.255 52.451C149.958 52.6861 149.661 52.8429 149.364 52.9604C149.025 53.078 148.685 53.1172 148.261 53.1172L145.207 53.1172C145.08 53.1172 144.995 53.0388 144.867 52.9212C144.74 52.7645 144.698 52.5294 144.698 52.1375L144.698 33.9938C144.698 33.6019 144.74 33.3668 144.867 33.2101C144.995 33.0533 145.08 33.0141 145.207 33.0141L147.752 33.0141C148.431 33.0141 148.982 33.1317 149.407 33.3668C149.831 33.6019 150.17 33.9546 150.467 34.3857C150.764 34.8167 150.934 35.3654 151.103 35.9924C151.231 36.6194 151.315 37.3247 151.315 38.0693C151.315 38.5395 151.273 39.0098 151.231 39.4408C151.146 39.8719 151.061 40.2638 150.934 40.6556C150.806 41.0475 150.637 41.361 150.467 41.6745C150.255 41.988 150.043 42.2231 149.788 42.4191C150.085 42.5366 150.382 42.7326 150.679 43.0069C150.976 43.2812 151.188 43.6339 151.4 44.1041C151.612 44.5352 151.782 45.0446 151.909 45.6324C151.952 46.181 152.037 46.808 152.037 47.5134ZM150.085 38.226C150.085 37.7166 150.043 37.2072 149.958 36.7761C149.873 36.345 149.746 35.9924 149.534 35.6789C149.364 35.3654 149.11 35.1302 148.813 34.9735C148.516 34.8167 148.134 34.7384 147.625 34.7384L145.801 34.7384L145.801 41.9488L147.837 41.9488C148.261 41.9488 148.643 41.8313 148.897 41.6353C149.152 41.4394 149.407 41.1651 149.576 40.8124C149.746 40.4597 149.873 40.0678 149.958 39.6368C150.043 39.1665 150.085 38.6963 150.085 38.226ZM150.849 47.631C150.849 46.9648 150.806 46.377 150.679 45.8675C150.552 45.3581 150.382 44.927 150.128 44.6135C149.873 44.2609 149.576 44.0257 149.237 43.8298C148.897 43.6731 148.431 43.5555 147.922 43.5555L145.801 43.5555L145.801 51.3929L148.388 51.3929C148.77 51.3929 149.11 51.3146 149.407 51.1578C149.703 51.0011 149.958 50.7659 150.17 50.4524C150.382 50.1389 150.552 49.7471 150.679 49.2768C150.764 48.8066 150.849 48.258 150.849 47.631Z" fill="#0088EC"/>
<path d="M162.854 52.4901C162.896 52.6469 162.896 52.7644 162.896 52.882C162.896 52.9996 162.854 53.0387 162.812 53.1171C162.769 53.1563 162.727 53.1955 162.642 53.2347C162.557 53.2347 162.472 53.2739 162.345 53.2739C162.218 53.2739 162.133 53.2739 162.048 53.2347C161.963 53.2347 161.921 53.1955 161.878 53.1563C161.836 53.1171 161.794 53.0779 161.794 53.0387C161.751 52.9996 161.751 52.9212 161.751 52.8428L160.606 47.4742L155.43 47.4742L154.327 52.8036C154.327 52.882 154.285 52.9212 154.285 52.9996C154.243 53.0387 154.243 53.0779 154.2 53.1171C154.158 53.1563 154.115 53.1955 154.031 53.1955C153.946 53.2347 153.861 53.2347 153.734 53.2347C153.606 53.2347 153.479 53.2347 153.394 53.1955C153.309 53.1563 153.267 53.1563 153.225 53.0779C153.182 53.0387 153.182 52.9604 153.14 52.8428C153.14 52.7644 153.14 52.6077 153.182 52.4509L157.297 33.3276C157.297 33.2492 157.339 33.1708 157.382 33.1316C157.424 33.0925 157.467 33.0141 157.509 33.0141C157.551 32.9749 157.636 32.9749 157.721 32.9357C157.806 32.8965 157.891 32.8965 158.018 32.8965C158.145 32.8965 158.23 32.8965 158.315 32.9357C158.4 32.9357 158.485 32.9749 158.527 33.0141C158.57 33.0533 158.612 33.0925 158.654 33.1316C158.697 33.1708 158.697 33.2492 158.739 33.3276L162.854 52.4901ZM157.976 35.0518L155.727 45.8675L160.266 45.8675L157.976 35.0518Z" fill="#0088EC"/>
<path d="M177.489 52.1373C177.489 52.4508 177.447 52.7251 177.362 52.8819C177.277 53.0386 177.15 53.117 177.023 53.117L165.484 53.117C165.357 53.117 165.23 53.0386 165.145 52.8819C165.06 52.7251 165.018 52.49 165.018 52.1373L165.018 33.3274C165.018 33.2491 165.018 33.2099 165.06 33.1707C165.06 33.1315 165.102 33.0923 165.145 33.0531C165.187 33.0139 165.23 33.014 165.314 32.9748C165.399 32.9356 165.484 32.9356 165.569 32.9356C165.696 32.9356 165.781 32.9356 165.823 32.9748C165.908 33.014 165.951 33.0139 165.993 33.0531C166.036 33.0923 166.078 33.1315 166.078 33.1707C166.078 33.2099 166.12 33.2883 166.12 33.3274L166.12 51.3928L170.702 51.3928L170.702 33.3274C170.702 33.2491 170.702 33.2099 170.744 33.1707C170.744 33.1315 170.787 33.0923 170.829 33.0531C170.872 33.0139 170.914 33.014 170.999 32.9748C171.084 32.9356 171.169 32.9356 171.253 32.9356C171.381 32.9356 171.465 32.9356 171.508 32.9748C171.593 33.014 171.635 33.0139 171.678 33.0531C171.72 33.0923 171.762 33.1315 171.762 33.1707C171.762 33.2099 171.805 33.2883 171.805 33.3274L171.805 51.3928L176.386 51.3928L176.386 33.3274C176.386 33.2491 176.386 33.2099 176.429 33.1707C176.429 33.1315 176.471 33.0923 176.514 33.0531C176.556 33.0139 176.598 33.014 176.683 32.9748C176.768 32.9356 176.853 32.9356 176.938 32.9356C177.065 32.9356 177.15 32.9356 177.192 32.9748C177.277 33.014 177.32 33.014 177.362 33.0531C177.404 33.0923 177.447 33.1315 177.447 33.1707C177.447 33.2099 177.489 33.2883 177.489 33.3274L177.489 52.1373Z" fill="#0088EC"/>
<path d="M190.47 42.85C190.47 44.4566 190.343 45.9066 190.131 47.1997C189.919 48.4929 189.579 49.5902 189.155 50.5306C188.731 51.432 188.179 52.1373 187.501 52.6468C186.864 53.1562 186.058 53.3913 185.21 53.3913C184.319 53.3913 183.598 53.1562 182.962 52.6859C182.325 52.2157 181.816 51.5495 181.392 50.6874C180.968 49.8253 180.671 48.728 180.501 47.474C180.289 46.2201 180.204 44.7701 180.204 43.2026C180.204 41.6351 180.332 40.1852 180.544 38.9312C180.756 37.6381 181.095 36.5408 181.519 35.6395C181.944 34.7382 182.495 34.0328 183.174 33.5234C183.81 33.014 184.616 32.7788 185.465 32.7788C186.313 32.7788 187.077 33.014 187.713 33.4842C188.349 33.9545 188.858 34.6206 189.282 35.4828C189.707 36.3449 190.004 37.4029 190.216 38.6569C190.343 39.8717 190.47 41.2825 190.47 42.85ZM189.282 43.0067C189.282 41.8311 189.198 40.6947 189.07 39.6758C188.943 38.6177 188.731 37.7164 188.434 36.9719C188.137 36.1881 187.713 35.6003 187.246 35.1693C186.737 34.7382 186.143 34.5031 185.38 34.5031C184.659 34.5031 184.022 34.7382 183.513 35.2084C183.004 35.6787 182.622 36.3057 182.283 37.0502C181.986 37.834 181.732 38.7353 181.604 39.7542C181.477 40.773 181.392 41.8703 181.392 43.0459C181.392 44.2607 181.435 45.3971 181.562 46.4552C181.689 47.5132 181.901 48.4145 182.198 49.1983C182.495 49.982 182.877 50.5698 183.386 51.0401C183.895 51.4711 184.489 51.7063 185.252 51.7063C186.016 51.7063 186.61 51.4711 187.119 51.0009C187.628 50.5306 188.052 49.9037 188.349 49.1199C188.646 48.3362 188.901 47.3957 189.028 46.3768C189.198 45.2404 189.282 44.1431 189.282 43.0067Z" fill="#0088EC"/>
<path d="M199.336 33.9154C199.336 34.033 199.336 34.1897 199.336 34.2681C199.336 34.3857 199.294 34.4641 199.294 34.5424C199.251 34.6208 199.251 34.66 199.209 34.6992C199.166 34.7384 199.124 34.7384 199.081 34.7384L194.33 34.7384L194.33 52.8037C194.33 52.882 194.33 52.9212 194.288 52.9604C194.288 52.9996 194.245 53.0388 194.203 53.078C194.161 53.1172 194.118 53.1172 194.033 53.1564C193.948 53.1955 193.864 53.1955 193.779 53.1955C193.694 53.1955 193.567 53.1955 193.524 53.1564C193.439 53.1172 193.397 53.1172 193.355 53.078C193.312 53.0388 193.27 52.9996 193.27 52.9604C193.27 52.9212 193.227 52.8429 193.227 52.8037L193.227 33.9938C193.227 33.6803 193.27 33.406 193.397 33.2493C193.482 33.0925 193.609 33.0141 193.779 33.0141L199.124 33.0141C199.209 33.0141 199.294 33.0925 199.336 33.2493C199.336 33.406 199.336 33.6019 199.336 33.9154Z" fill="#0088EC"/>
<path d="M210.069 42.85C210.069 44.4566 209.942 45.9066 209.729 47.1997C209.517 48.4929 209.178 49.5902 208.754 50.5306C208.33 51.4711 207.778 52.1373 207.099 52.6468C206.463 53.1562 205.657 53.3913 204.809 53.3913C203.918 53.3913 203.197 53.1562 202.56 52.6859C201.924 52.2157 201.415 51.5495 200.991 50.6874C200.567 49.8253 200.27 48.728 200.1 47.474C199.888 46.2201 199.803 44.7701 199.803 43.2026C199.803 41.6351 199.93 40.1852 200.142 38.9312C200.354 37.6381 200.694 36.5408 201.118 35.6395C201.542 34.7382 202.094 34.0328 202.772 33.5234C203.409 33.014 204.215 32.7788 205.063 32.7788C205.912 32.7788 206.675 33.014 207.311 33.4842C207.948 33.9545 208.457 34.6206 208.881 35.4828C209.305 36.3449 209.602 37.4029 209.814 38.6569C209.942 39.8717 210.069 41.2825 210.069 42.85ZM208.881 43.0067C208.881 41.8311 208.796 40.6947 208.669 39.6758C208.542 38.6177 208.33 37.7164 208.033 36.9719C207.736 36.1881 207.311 35.6003 206.845 35.1693C206.336 34.7382 205.742 34.5031 204.978 34.5031C204.257 34.5031 203.621 34.7382 203.112 35.2084C202.603 35.6787 202.221 36.3057 201.882 37.0502C201.585 37.834 201.33 38.7353 201.203 39.7542C201.076 40.773 200.991 41.8703 200.991 43.0459C200.991 44.2607 201.033 45.3971 201.16 46.4552C201.288 47.5132 201.5 48.4145 201.797 49.1983C202.094 49.982 202.475 50.5698 202.985 51.0401C203.494 51.4711 204.087 51.7063 204.851 51.7063C205.615 51.7063 206.209 51.4711 206.718 51.0009C207.227 50.5306 207.651 49.9037 207.948 49.1199C208.245 48.3362 208.499 47.3957 208.627 46.3768C208.796 45.2404 208.881 44.1431 208.881 43.0067Z" fill="#0088EC"/>
<path d="M223.134 47.5918C223.134 48.4147 223.049 49.1593 222.88 49.8647C222.71 50.57 222.456 51.197 222.074 51.7064C221.692 52.2159 221.268 52.6469 220.759 52.9213C220.25 53.1956 219.613 53.3523 218.892 53.3523C218.51 53.3523 218.129 53.3131 217.832 53.1956C217.535 53.078 217.238 52.9604 217.026 52.8037C216.814 52.6469 216.644 52.5294 216.517 52.4118C216.389 52.2943 216.305 52.2159 216.262 52.1375C216.22 52.0591 216.177 52.0199 216.177 51.9416C216.135 51.8632 216.135 51.7848 216.135 51.7064C216.135 51.6281 216.092 51.5105 216.092 51.3538C216.092 51.2362 216.092 51.0795 216.092 50.9227C216.092 50.6484 216.092 50.4916 216.135 50.3741C216.177 50.2565 216.22 50.2173 216.262 50.2173C216.347 50.2173 216.432 50.2957 216.559 50.4133C216.686 50.57 216.856 50.7268 217.068 50.8835C217.28 51.0795 217.535 51.2362 217.874 51.3538C218.171 51.5105 218.553 51.5497 219.019 51.5497C219.444 51.5497 219.868 51.4713 220.25 51.2754C220.631 51.0795 220.928 50.8051 221.183 50.4525C221.437 50.0998 221.65 49.7079 221.777 49.1985C221.904 48.7282 221.989 48.1796 221.989 47.5918C221.989 46.9648 221.904 46.4162 221.777 45.8676C221.65 45.3581 221.437 44.8879 221.183 44.5352C220.928 44.1825 220.589 43.869 220.207 43.6731C219.825 43.4771 219.401 43.3596 218.892 43.3596L217.45 43.3596C217.407 43.3596 217.323 43.3596 217.28 43.3204C217.238 43.2812 217.195 43.242 217.195 43.1636C217.153 43.0853 217.153 43.0069 217.153 42.8893C217.153 42.7718 217.153 42.6542 217.153 42.4975C217.153 42.3799 217.153 42.2623 217.153 42.1448C217.153 42.0272 217.195 41.9488 217.195 41.8705C217.238 41.7921 217.238 41.7529 217.28 41.7137C217.323 41.6745 217.365 41.6745 217.407 41.6745L218.723 41.6745C219.147 41.6745 219.528 41.5961 219.868 41.4002C220.207 41.2435 220.547 40.9692 220.801 40.6557C221.056 40.303 221.268 39.9111 221.395 39.4409C221.522 38.9706 221.607 38.3828 221.607 37.7558C221.607 37.2464 221.565 36.7761 221.48 36.3842C221.395 35.9532 221.225 35.6005 221.056 35.3262C220.844 35.0127 220.631 34.8168 220.334 34.66C220.038 34.5033 219.698 34.4249 219.316 34.4249C218.892 34.4249 218.553 34.5033 218.256 34.66C217.959 34.8168 217.704 34.9735 217.45 35.1303C217.238 35.287 217.026 35.4829 216.898 35.6397C216.729 35.7964 216.644 35.8748 216.559 35.8748C216.517 35.8748 216.474 35.8748 216.474 35.8356C216.432 35.7964 216.432 35.7573 216.432 35.7181C216.432 35.6397 216.389 35.5613 216.389 35.4829C216.389 35.3654 216.389 35.2478 216.389 35.0911C216.389 34.9735 216.389 34.8951 216.389 34.7776C216.389 34.66 216.389 34.5816 216.432 34.5033C216.432 34.4249 216.474 34.3465 216.474 34.2681C216.517 34.1898 216.517 34.1114 216.559 34.033C216.601 33.9546 216.729 33.8371 216.898 33.6803C217.068 33.5236 217.28 33.3668 217.535 33.2493C217.789 33.0925 218.086 32.975 218.426 32.8966C218.765 32.779 219.104 32.7398 219.486 32.7398C220.038 32.7398 220.547 32.8574 220.971 33.1317C221.395 33.3668 221.734 33.7195 222.031 34.1506C222.328 34.5816 222.54 35.0911 222.668 35.7181C222.795 36.3059 222.88 36.9721 222.88 37.6774C222.88 38.3828 222.837 39.0098 222.71 39.5584C222.583 40.107 222.413 40.5773 222.201 40.9692C221.989 41.361 221.734 41.6745 221.48 41.9488C221.183 42.184 220.928 42.3407 220.631 42.4191L220.631 42.4583C221.013 42.5366 221.353 42.7326 221.65 43.0069C221.989 43.2812 222.243 43.6731 222.498 44.1041C222.752 44.5352 222.922 45.0838 223.049 45.6716C223.049 46.2594 223.134 46.8864 223.134 47.5918Z" fill="#0088EC"/>
<path d="M235.394 58.0939C235.394 58.1723 235.394 58.2115 235.394 58.2507C235.394 58.2899 235.352 58.3291 235.309 58.3683C235.267 58.4074 235.224 58.4074 235.182 58.4466C235.14 58.4466 235.055 58.4858 234.927 58.4858C234.843 58.4858 234.758 58.4858 234.715 58.4466C234.673 58.4466 234.63 58.4074 234.588 58.3683C234.546 58.3291 234.546 58.2899 234.503 58.2507C234.503 58.2115 234.461 58.1723 234.461 58.0939L234.461 53.1172L225.001 53.1172L225.001 58.0939C225.001 58.1723 225.001 58.2115 224.958 58.2507C224.958 58.2899 224.916 58.3291 224.874 58.3683C224.831 58.4074 224.789 58.4074 224.746 58.4466C224.704 58.4466 224.619 58.4858 224.534 58.4858C224.449 58.4858 224.365 58.4858 224.28 58.4466C224.237 58.4466 224.152 58.4074 224.152 58.3683C224.152 58.3291 224.11 58.2899 224.068 58.2507C224.068 58.2115 224.068 58.1723 224.068 58.0939L224.068 52.1767C224.068 51.9416 224.068 51.7456 224.11 51.6281C224.152 51.5105 224.237 51.4321 224.365 51.4321L225.128 51.4321C225.298 51.0402 225.468 50.6484 225.637 50.2565C225.807 49.8646 225.934 49.3944 226.061 48.8458C226.189 48.2971 226.358 47.631 226.486 46.8472C226.613 46.0635 226.74 45.123 226.867 43.9474C226.995 42.7717 227.122 41.4002 227.249 39.7935C227.376 38.1868 227.504 36.2275 227.673 33.9938C227.716 33.6803 227.758 33.406 227.843 33.2493C227.928 33.0925 228.013 33.0141 228.182 33.0141L233.315 33.0141C233.443 33.0141 233.57 33.0925 233.655 33.2493C233.74 33.406 233.782 33.6411 233.782 33.9938L233.782 51.4321L235.055 51.4321C235.182 51.4321 235.224 51.5105 235.267 51.6281C235.309 51.7456 235.352 51.9416 235.352 52.1767L235.352 58.0939L235.394 58.0939ZM232.679 34.7384L228.776 34.7384C228.649 36.8545 228.479 38.6963 228.352 40.2246C228.225 41.7921 228.098 43.1244 227.97 44.2609C227.843 45.3973 227.716 46.3378 227.589 47.1215C227.461 47.9053 227.334 48.5715 227.207 49.0809C227.08 49.6295 226.952 50.0606 226.825 50.4133C226.698 50.7659 226.528 51.0794 226.401 51.3929L232.679 51.3929L232.679 34.7384Z" fill="#0088EC"/>
<path d="M246.89 42.85C246.89 44.4566 246.763 45.9066 246.551 47.1997C246.339 48.4929 245.999 49.5902 245.575 50.5306C245.151 51.4711 244.599 52.1373 243.921 52.6468C243.284 53.1562 242.478 53.3913 241.63 53.3913C240.739 53.3913 240.018 53.1562 239.382 52.6859C238.745 52.2157 238.236 51.5495 237.812 50.6874C237.388 49.8253 237.091 48.728 236.921 47.474C236.709 46.2201 236.624 44.7701 236.624 43.2026C236.624 41.6351 236.752 40.1852 236.964 38.9312C237.176 37.6381 237.515 36.5408 237.939 35.6395C238.364 34.7382 238.915 34.0328 239.594 33.5234C240.23 33.014 241.036 32.7788 241.884 32.7788C242.733 32.7788 243.496 33.014 244.133 33.4842C244.769 33.9545 245.278 34.6206 245.702 35.4828C246.127 36.3449 246.424 37.4029 246.636 38.6569C246.805 39.8717 246.89 41.2825 246.89 42.85ZM245.702 43.0067C245.702 41.8311 245.618 40.6947 245.49 39.6758C245.363 38.6177 245.151 37.7164 244.854 36.9719C244.557 36.1881 244.133 35.6003 243.666 35.1693C243.157 34.7382 242.563 34.5031 241.8 34.5031C241.078 34.5031 240.442 34.7382 239.933 35.2084C239.424 35.6787 239.042 36.3057 238.703 37.0502C238.406 37.834 238.151 38.7353 238.024 39.7542C237.897 40.773 237.812 41.8703 237.812 43.0459C237.812 44.2607 237.854 45.3971 237.982 46.4552C238.109 47.5132 238.321 48.4145 238.618 49.1983C238.915 49.982 239.297 50.5698 239.806 51.0401C240.315 51.4711 240.909 51.7063 241.672 51.7063C242.436 51.7063 243.03 51.4711 243.539 51.0009C244.048 50.5306 244.472 49.9037 244.769 49.1199C245.066 48.3362 245.321 47.3957 245.448 46.3768C245.618 45.2404 245.702 44.1431 245.702 43.0067Z" fill="#0088EC"/>
<path d="M256.435 38.7746C256.435 39.7151 256.35 40.5773 256.138 41.3218C255.968 42.1056 255.671 42.7717 255.332 43.3204C254.993 43.869 254.569 44.3 254.059 44.6135C253.55 44.927 252.957 45.0838 252.235 45.0838L250.708 45.0838L250.708 52.8037C250.708 52.882 250.708 52.9212 250.666 52.9604C250.666 52.9996 250.623 53.0388 250.581 53.078C250.539 53.1172 250.496 53.1172 250.411 53.1564C250.326 53.1955 250.242 53.1955 250.157 53.1955C250.072 53.1955 249.945 53.1955 249.902 53.1564C249.817 53.1172 249.775 53.1172 249.733 53.078C249.69 53.0388 249.648 52.9996 249.648 52.9604C249.648 52.9212 249.605 52.8429 249.605 52.8037L249.605 33.9938C249.605 33.6019 249.648 33.3668 249.775 33.2101C249.902 33.0533 249.987 33.0141 250.114 33.0141L252.532 33.0141C252.787 33.0141 252.999 33.0141 253.211 33.0533C253.423 33.0925 253.72 33.1709 254.017 33.2884C254.314 33.406 254.611 33.6411 254.95 33.9546C255.247 34.2681 255.544 34.66 255.756 35.1694C255.968 35.6397 256.138 36.1883 256.265 36.7761C256.35 37.4031 256.435 38.0693 256.435 38.7746ZM255.247 38.9706C255.247 38.1085 255.162 37.3639 254.95 36.7761C254.738 36.1883 254.484 35.718 254.229 35.4437C253.932 35.1302 253.635 34.9735 253.338 34.8951C253.041 34.8167 252.744 34.7776 252.447 34.7776L250.751 34.7776L250.751 43.5163L252.363 43.5163C252.872 43.5163 253.296 43.3987 253.678 43.1636C254.017 42.9285 254.314 42.615 254.569 42.2231C254.823 41.8313 254.993 41.361 255.12 40.8124C255.162 40.2246 255.247 39.5976 255.247 38.9706Z" fill="#0088EC"/>
<path d="M268.61 42.85C268.61 44.4566 268.483 45.9066 268.27 47.1997C268.058 48.4929 267.719 49.5902 267.295 50.5306C266.871 51.4711 266.319 52.1373 265.64 52.6468C265.004 53.1562 264.198 53.3913 263.35 53.3913C262.459 53.3913 261.738 53.1562 261.101 52.6859C260.465 52.2157 259.956 51.5495 259.532 50.6874C259.108 49.8253 258.811 48.728 258.641 47.474C258.429 46.2201 258.344 44.7701 258.344 43.2026C258.344 41.6351 258.471 40.1852 258.683 38.9312C258.895 37.6381 259.235 36.5408 259.659 35.6395C260.083 34.7382 260.635 34.0328 261.313 33.5234C261.95 33.014 262.756 32.7788 263.604 32.7788C264.453 32.7788 265.216 33.014 265.853 33.4842C266.489 33.9545 266.998 34.6206 267.422 35.4828C267.846 36.3449 268.143 37.4029 268.355 38.6569C268.525 39.8717 268.61 41.2825 268.61 42.85ZM267.422 43.0067C267.422 41.8311 267.337 40.6947 267.21 39.6758C267.083 38.6177 266.871 37.7164 266.574 36.9719C266.277 36.1881 265.853 35.6003 265.386 35.1693C264.877 34.7382 264.283 34.5031 263.519 34.5031C262.798 34.5031 262.162 34.7382 261.653 35.2084C261.144 35.6787 260.762 36.3057 260.423 37.0502C260.126 37.834 259.871 38.7353 259.744 39.7542C259.617 40.773 259.532 41.8703 259.532 43.0459C259.532 44.2607 259.574 45.3971 259.701 46.4552C259.829 47.5132 260.041 48.4145 260.338 49.1983C260.635 49.982 261.017 50.5698 261.526 51.0401C262.035 51.4711 262.629 51.7063 263.392 51.7063C264.156 51.7063 264.75 51.4711 265.259 51.0009C265.768 50.5306 266.192 49.9037 266.489 49.1199C266.786 48.3362 267.04 47.3957 267.168 46.3768C267.38 45.2404 267.422 44.1431 267.422 43.0067Z" fill="#0088EC"/>
<path d="M278.706 47.5134C278.706 48.1012 278.663 48.6498 278.578 49.1593C278.493 49.6687 278.366 50.1389 278.239 50.5308C278.069 50.9619 277.9 51.3146 277.687 51.6281C277.475 51.9416 277.221 52.2159 276.924 52.451C276.627 52.6861 276.33 52.8429 276.033 52.9604C275.694 53.078 275.354 53.1172 274.93 53.1172L271.876 53.1172C271.749 53.1172 271.664 53.0388 271.536 52.9212C271.409 52.7645 271.367 52.5294 271.367 52.1375L271.367 33.9938C271.367 33.6019 271.409 33.3668 271.536 33.2101C271.664 33.0533 271.749 33.0141 271.876 33.0141L274.421 33.0141C275.1 33.0141 275.651 33.1317 276.075 33.3668C276.5 33.6019 276.839 33.9546 277.136 34.3857C277.433 34.8167 277.603 35.3654 277.772 35.9924C277.9 36.6194 277.984 37.3247 277.984 38.0693C277.984 38.5395 277.942 39.0098 277.9 39.4408C277.815 39.8719 277.73 40.2638 277.603 40.6556C277.475 41.0475 277.306 41.361 277.136 41.6745C276.924 41.988 276.712 42.2231 276.457 42.4191C276.754 42.5366 277.051 42.7326 277.348 43.0069C277.645 43.2812 277.857 43.6339 278.069 44.1041C278.281 44.5352 278.451 45.0446 278.578 45.6324C278.663 46.181 278.706 46.808 278.706 47.5134ZM276.754 38.226C276.754 37.7166 276.712 37.2072 276.627 36.7761C276.542 36.345 276.415 35.9924 276.203 35.6789C276.033 35.3654 275.779 35.1302 275.482 34.9735C275.185 34.8167 274.803 34.7384 274.294 34.7384L272.47 34.7384L272.47 41.9488L274.506 41.9488C274.93 41.9488 275.312 41.8313 275.566 41.6353C275.821 41.4394 276.075 41.1651 276.245 40.8124C276.415 40.4597 276.542 40.0678 276.627 39.6368C276.712 39.1665 276.754 38.6963 276.754 38.226ZM277.518 47.631C277.518 46.9648 277.475 46.377 277.348 45.8675C277.221 45.3581 277.051 44.927 276.797 44.6135C276.542 44.2609 276.245 44.0257 275.906 43.8298C275.566 43.6731 275.1 43.5555 274.591 43.5555L272.47 43.5555L272.47 51.3929L275.057 51.3929C275.439 51.3929 275.779 51.3146 276.075 51.1578C276.372 51.0011 276.627 50.7659 276.839 50.4524C277.051 50.1389 277.221 49.7471 277.348 49.2768C277.475 48.8066 277.518 48.258 277.518 47.631Z" fill="#0088EC"/>
<path d="M282.057 39.2057C282.057 39.2841 282.057 39.3233 282.015 39.3625C282.015 39.4017 281.972 39.4408 281.93 39.48C281.887 39.5192 281.845 39.5192 281.802 39.5584C281.76 39.5976 281.675 39.5976 281.59 39.5976C281.505 39.5976 281.421 39.5976 281.378 39.5584C281.336 39.5192 281.293 39.5192 281.251 39.48C281.209 39.4408 281.209 39.4017 281.166 39.3625C281.166 39.3233 281.124 39.2449 281.124 39.2057L280.912 31.8777C280.912 31.7993 280.912 31.7601 280.954 31.721C280.996 31.6818 281.039 31.6426 281.081 31.6034C281.124 31.5642 281.209 31.525 281.293 31.525C281.378 31.525 281.463 31.4858 281.59 31.4858C281.718 31.4858 281.802 31.4858 281.887 31.525C281.972 31.525 282.057 31.5642 282.099 31.6034C282.142 31.6426 282.184 31.6818 282.227 31.721C282.269 31.7601 282.269 31.8385 282.269 31.8777L282.057 39.2057Z" fill="#0088EC"/>
<path d="M292.068 52.8035C292.068 52.8819 292.068 52.921 292.026 52.9602C292.026 52.9994 291.984 53.0386 291.941 53.0778C291.899 53.117 291.856 53.117 291.771 53.1562C291.687 53.1954 291.602 53.1954 291.517 53.1954C291.39 53.1954 291.305 53.1954 291.262 53.1562C291.178 53.117 291.135 53.117 291.093 53.0778C291.05 53.0386 291.008 52.9994 291.008 52.9602C291.008 52.921 290.965 52.8427 290.965 52.8035L290.965 43.9472L289.608 43.9472C289.056 43.9472 288.675 44.0256 288.378 44.2215C288.081 44.4174 287.869 44.6917 287.657 45.0444C287.444 45.3971 287.275 45.789 287.148 46.2592C287.02 46.7295 286.851 47.2389 286.723 47.8267L285.663 52.6076C285.62 52.7251 285.62 52.8427 285.578 52.921C285.536 52.9994 285.493 53.0778 285.451 53.117C285.408 53.1562 285.366 53.1954 285.281 53.1954C285.196 53.1954 285.111 53.2345 285.026 53.2345C284.899 53.2345 284.814 53.2345 284.73 53.1954C284.645 53.1562 284.602 53.1562 284.56 53.117C284.517 53.0778 284.475 53.0386 284.475 52.9994C284.475 52.9602 284.433 52.8819 284.433 52.8035C284.433 52.6859 284.433 52.5684 284.475 52.4508C284.475 52.3332 284.56 52.0981 284.602 51.7846L285.62 47.3565C285.748 46.847 285.875 46.3376 286.002 45.9457C286.129 45.5147 286.257 45.162 286.426 44.8093C286.554 44.4958 286.723 44.2215 286.893 43.9864C287.063 43.7512 287.275 43.5553 287.487 43.4377C287.148 43.3202 286.808 43.0851 286.511 42.8107C286.214 42.5364 285.96 42.1837 285.748 41.7919C285.536 41.4 285.366 40.9298 285.281 40.3811C285.154 39.8717 285.111 39.2839 285.111 38.6569C285.111 37.8732 285.196 37.1286 285.323 36.4624C285.493 35.7962 285.705 35.2084 286.045 34.699C286.342 34.1896 286.766 33.7977 287.232 33.5234C287.699 33.2491 288.42 33.0923 289.353 33.0923L291.559 33.0923C291.687 33.0923 291.771 33.1707 291.899 33.2883C292.026 33.445 292.068 33.6801 292.068 34.072L292.068 52.8035ZM290.965 34.7382L289.311 34.7382C288.632 34.7382 288.123 34.8166 287.784 35.0125C287.444 35.2084 287.148 35.4435 286.935 35.7962C286.723 36.1097 286.554 36.5016 286.469 36.9719C286.384 37.4421 286.342 37.9123 286.342 38.461C286.342 38.9704 286.384 39.4798 286.511 39.9109C286.596 40.3811 286.766 40.773 287.02 41.1257C287.232 41.4784 287.529 41.7527 287.869 41.9486C288.208 42.1446 288.717 42.2621 289.311 42.2621L291.008 42.2621L291.008 34.7382L290.965 34.7382Z" fill="#0088EC"/>
</svg>
