<svg width="24" height="24" viewBox="0 0 24 24" fill="none" xmlns="http://www.w3.org/2000/svg">
<path fill-rule="evenodd" clip-rule="evenodd" d="M10.9215 0.0426841C9.49163 0.178407 7.89236 0.634441 6.65456 1.25945C5.374 1.90603 4.03356 2.92911 3.11504 3.96095C1.31335 5.98492 0.291008 8.32475 0.0440865 10.9896C-0.149803 13.0821 0.302871 15.4415 1.26336 17.3443C1.90983 18.6251 2.93273 19.9657 3.9644 20.8844C5.98802 22.6864 8.32745 23.7089 10.9919 23.9559C13.084 24.1498 15.4429 23.6971 17.3454 22.7364C18.626 22.0898 19.9664 21.0668 20.885 20.0349C22.6867 18.0109 23.709 15.6711 23.9559 13.0062C24.1498 10.9138 23.6971 8.55441 22.7366 6.65158C22.0902 5.3708 21.0673 4.03013 20.0356 3.11145C18.012 1.30944 15.6726 0.286928 13.0081 0.039964C12.4222 -0.0143437 11.5099 -0.0131713 10.9215 0.0426841ZM12.5725 5.09311C12.8465 5.2143 13.1533 5.5205 13.2815 5.80043C13.3551 5.96115 13.3813 6.11094 13.3813 6.37019C13.3813 6.79696 13.2725 7.06719 12.9847 7.35505C12.6969 7.64291 12.4267 7.75176 12 7.75176C10.4227 7.75176 10.0648 5.57804 11.5542 5.04467C11.8475 4.93962 12.2712 4.95978 12.5725 5.09311ZM12.5725 9.31392C12.8458 9.43483 13.1528 9.74065 13.2825 10.0212C13.383 10.2387 13.3832 10.2486 13.3832 14.1083C13.3832 17.968 13.383 17.9779 13.2825 18.1954C13.1533 18.4748 12.8477 18.7801 12.5697 18.9074C12.2668 19.0461 11.7332 19.0461 11.4303 18.9074C11.1523 18.7801 10.8467 18.4748 10.7175 18.1954C10.6175 17.9791 10.6167 17.9494 10.6021 14.249C10.5919 11.636 10.6031 10.4483 10.6396 10.2789C10.8218 9.43459 11.7725 8.95998 12.5725 9.31392Z" fill="white"/>
</svg>
