<svg width="147" height="20" viewBox="0 0 147 20" fill="none" xmlns="http://www.w3.org/2000/svg">
<path fill-rule="evenodd" clip-rule="evenodd" d="M3.9354 0.285817C2.53847 0.792612 1.42901 2.01309 1.01876 3.49445C0.851902 4.09695 0.749466 5.95795 0.668729 9.85487L0.554688 15.3635H4.17811C6.17098 15.3635 7.9911 15.2915 8.22271 15.2034C8.72766 15.0115 8.9184 14.6756 9.0639 13.7235L9.17306 13.0087H6.05929C2.67438 13.0087 2.84208 13.0637 3.05065 12.0205L3.15577 11.4948H8.48326H13.8109L13.5073 13.8076C13.1297 16.6842 13.0098 17.0479 12.1973 17.7819C11.1299 18.7461 10.3125 18.8953 6.06871 18.8995C2.3733 18.9032 2.35866 18.9047 2.77732 19.2265C3.0086 19.4042 3.51522 19.6296 3.9031 19.7274C4.83057 19.961 18.9465 19.9672 19.7848 19.7343C21.1873 19.3447 22.5899 17.9384 22.9537 16.5569C23.0414 16.2244 23.1662 13.3599 23.2311 10.1913L23.3492 4.43033H19.7019C14.9777 4.43033 14.9106 4.45422 14.6331 6.23851L14.5219 6.95337H17.6485C21.0594 6.95337 20.9385 6.91469 20.669 7.92054L20.5676 8.299H15.2014H9.83544L9.92055 7.92054C9.96748 7.71247 10.1177 6.65633 10.2546 5.57394C10.5338 3.3646 10.7611 2.69953 11.4611 2.04236C12.4761 1.08966 12.9427 0.99866 17.3092 0.902448L21.3284 0.813973L20.6733 0.477568C20.0496 0.15731 19.6467 0.139312 12.2808 0.103149C6.24162 0.0735451 4.41006 0.113577 3.9354 0.285817ZM27.612 5.3134C27.558 5.79917 27.4675 8.12659 27.4108 10.4856C27.3543 12.8447 27.271 14.9072 27.2259 15.0692C27.1528 15.3319 27.2897 15.3635 28.5011 15.3635H29.858V14.3797C29.858 13.8386 29.9069 12.8168 29.9668 12.109L30.0754 10.822H31.3124H32.5492L32.5502 11.7051C32.5522 13.7035 33.3123 14.8382 34.8731 15.1729C36.01 15.4168 41.8512 15.4212 42.9801 15.1792C44.1624 14.9255 44.9084 14.1671 45.1484 12.9745C45.2472 12.4846 45.3479 10.8347 45.3723 9.30821C45.4122 6.81292 45.3827 6.46609 45.0803 5.87099C44.4085 4.54891 44.3049 4.52116 39.812 4.46162C35.211 4.40039 34.5872 4.46229 33.8896 5.04932C33.1726 5.65249 32.888 6.2878 32.7704 7.54679L32.6688 8.6354H31.3733H30.0778L30.1587 6.53287L30.2398 4.43033H28.9749H27.71L27.612 5.3134ZM47.292 7.06758C47.2331 8.53112 47.1359 10.9965 47.0757 12.5461L46.9664 15.3635H48.2292H49.4919L49.5989 14.583C49.6578 14.154 49.7059 13.4349 49.7059 12.9851V12.1677H52.3889C53.8645 12.1677 55.4599 12.0844 55.9344 11.9826C57.6647 11.6116 58.4563 10.3231 58.4487 7.88993C58.4437 6.28376 58.0474 5.42054 57.0774 4.90281C56.3785 4.52974 56.1738 4.51225 51.8744 4.46044L47.399 4.40628L47.292 7.06758ZM60.4078 4.95597C60.3499 5.24511 60.3027 5.77495 60.3027 6.13339V6.78517H61.6483H62.9939V5.60775V4.43033H61.7534H60.5129L60.4078 4.95597ZM67.5651 4.62881C66.5321 4.85975 65.6229 5.81027 65.3511 6.94379C64.8946 8.8465 65.4821 10.6192 66.7918 11.291L67.3946 11.6003L65.9931 13.1885C65.2224 14.0618 64.4879 14.9085 64.3611 15.07C64.1446 15.345 64.2364 15.3635 65.8197 15.3635H67.5093L68.9101 13.595L70.3107 11.8264L72.4133 11.8709L74.5158 11.9154L74.4544 13.6394L74.3932 15.3635H75.7341H77.0748L77.1879 11.2846C77.2499 9.04111 77.3468 6.58131 77.4032 5.81801L77.5056 4.43033L72.899 4.44833C70.3652 4.45825 67.965 4.5395 67.5651 4.62881ZM89.6744 4.82998C89.5755 5.22358 89.5363 5.23081 87.091 5.30684C84.4419 5.38926 83.7414 5.56217 83.0633 6.30091C82.4499 6.96918 82.2974 7.61525 82.2104 9.90937C82.1369 11.8518 82.1662 12.1969 82.4619 12.865C82.9892 14.0574 83.5564 14.2544 86.6684 14.3257L89.2335 14.3844V14.874V15.3635H90.5792H91.9248V14.8589V14.3543L94.2376 14.3533C96.9184 14.3523 97.676 14.1874 98.4196 13.4438C99.1321 12.7313 99.3267 11.9221 99.3617 9.52671C99.3861 7.85477 99.3385 7.43073 99.0638 6.87718C98.4319 5.60304 97.4215 5.27135 94.1726 5.27135H92.2612V4.85084C92.2612 4.44026 92.2319 4.43033 91.0178 4.43033C89.8493 4.43033 89.7686 4.45438 89.6744 4.82998ZM106.152 4.80879C106.017 5.01686 104.62 7.45798 103.049 10.2333L100.191 15.2794L101.553 15.3287C102.301 15.3558 103.005 15.3433 103.115 15.3008C103.226 15.2582 103.632 14.6495 104.017 13.9479L104.717 12.6723H107.968H111.22L111.826 14.0179L112.433 15.3635H113.967C114.818 15.3635 115.476 15.2954 115.445 15.2103C115.414 15.1262 114.222 12.6662 112.796 9.74369L110.202 4.43033H108.3C106.512 4.43033 106.383 4.45304 106.152 4.80879ZM116.773 4.54421C116.728 4.6204 116.642 6.42353 116.582 8.5513C116.523 10.6791 116.428 13.0823 116.372 13.8917L116.271 15.3635H117.638H119.005V13.7834V12.2033L122.243 12.1434C125.412 12.0849 125.498 12.0738 126.258 11.6267C127.42 10.944 127.668 10.3137 127.668 8.04669C127.668 6.40217 127.626 6.13793 127.293 5.67049C126.529 4.59954 126.134 4.52049 121.252 4.4601C118.833 4.43033 116.817 4.46818 116.773 4.54421ZM129.552 4.55194C129.51 4.62376 129.427 6.23431 129.368 8.13079C129.308 10.0273 129.212 12.4306 129.155 13.4712L129.052 15.3635H130.396H131.741L131.862 11.1164C131.928 8.78039 132.05 6.79997 132.132 6.71537C132.308 6.53404 132.437 6.82705 134.326 11.7012L135.742 15.3558L137.613 15.3596L139.483 15.3635L140.754 12.6302C141.453 11.127 142.366 9.15885 142.784 8.25694C143.202 7.35504 143.63 6.61697 143.736 6.61697C143.871 6.61697 143.9 6.97877 143.834 7.83644C143.782 8.50706 143.693 10.4752 143.636 12.2097L143.532 15.3635H144.809C145.511 15.3635 146.096 15.3447 146.108 15.3215C146.207 15.1358 146.519 4.65253 146.429 4.55161C146.364 4.47945 145.265 4.4416 143.986 4.4675L141.661 4.51443L139.711 8.85978C138.407 11.7675 137.715 13.131 137.621 12.9808C137.544 12.8575 136.779 10.9019 135.923 8.6354L134.365 4.51443L131.997 4.46784C130.694 4.44227 129.594 4.48012 129.552 4.55194ZM42.4244 7.02856C42.8447 7.51753 42.8496 7.55621 42.7771 9.82813C42.6671 13.2751 42.7152 13.2381 38.4536 13.1474C35.0773 13.0756 35.187 13.1855 35.2672 9.95546C35.3177 7.92693 35.3671 7.59322 35.6788 7.17557C36.1511 6.54262 36.5719 6.46861 39.5024 6.50326L41.9982 6.53287L42.4244 7.02856ZM74.7425 6.94715C74.7747 7.17506 74.7493 7.91314 74.686 8.58713L74.5711 9.81282H71.631C70.0076 9.81282 68.551 9.73814 68.3787 9.64596C67.8945 9.38676 67.6509 8.44634 67.8635 7.6568C68.1742 6.50309 68.2691 6.47618 71.9087 6.50831L74.684 6.53287L74.7425 6.94715ZM55.1661 6.81292C55.7893 7.09685 56.0569 8.08403 55.7378 8.92235C55.3809 9.86025 55.0049 9.97564 52.2991 9.9785C50.9962 9.97985 49.8986 9.94974 49.8601 9.91172C49.8216 9.87354 49.814 9.11663 49.8436 8.2297L49.8971 6.61697H52.3167C53.7994 6.61697 54.9025 6.69283 55.1661 6.81292ZM109.21 8.49831C109.696 9.52738 110.066 10.398 110.031 10.433C109.996 10.4678 109.064 10.475 107.959 10.449L105.951 10.4015L107.021 8.50925C107.609 7.46858 108.143 6.61932 108.207 6.62201C108.272 6.62487 108.723 7.46908 109.21 8.49831ZM124.925 7.11973C125.421 7.73316 125.275 9.05692 124.652 9.59264C124.224 9.96084 124.071 9.98102 121.687 9.98102H119.174V8.41119C119.174 7.54763 119.229 6.78568 119.297 6.71789C119.365 6.64994 120.583 6.61848 122.003 6.64775C124.523 6.69972 124.595 6.71133 124.925 7.11973ZM60.2359 9.93897C60.1799 11.3034 60.1013 13.0823 60.0611 13.8917L59.9881 15.3635H61.2966H62.605L62.7154 12.8137C62.7761 11.4114 62.8257 9.63268 62.8257 8.86096V7.45798H61.5817H60.3376L60.2359 9.93897ZM89.5121 9.09796C89.4524 9.99986 89.4031 11.0595 89.4026 11.4528L89.4017 12.1677H87.4861C84.8784 12.1677 84.7625 12.0763 84.8122 10.0592C84.8507 8.49075 85.0796 7.89901 85.7531 7.62787C85.9559 7.54612 86.909 7.47447 87.8713 7.46858L89.6207 7.45798L89.5121 9.09796ZM95.9206 7.63712C96.6316 7.88488 96.8538 8.51985 96.7751 10.0789C96.7167 11.2348 96.6636 11.4032 96.2424 11.7653C95.8094 12.1377 95.6348 12.1677 93.8917 12.168L92.0089 12.1683L92.0555 10.0234C92.0812 8.84364 92.1355 7.78396 92.1764 7.66823C92.2706 7.40163 95.1758 7.37741 95.9206 7.63712ZM13.7862 9.02899C14.0292 9.20662 14.0706 9.38104 13.9821 9.85302C13.8107 10.7664 13.623 10.8394 11.5836 10.7859L9.75773 10.7379L9.70609 10.1168C9.66859 9.66598 9.74932 9.40072 10.0005 9.1496C10.3 8.85003 10.5562 8.8036 11.9122 8.8036C12.9554 8.8036 13.5808 8.87879 13.7862 9.02899ZM78.4686 10.1492V11.3266H79.7301H80.9916V10.1492V8.97181H79.7301H78.4686V10.1492Z" fill="#0078CD"/>
</svg>
