<svg width="22" height="26" viewBox="0 0 22 26" fill="none" xmlns="http://www.w3.org/2000/svg">
<path d="M8.66265 8.6313C6.71942 10.5745 4.0387 11.7803 1.07703 11.7803L1.07703 9.73169C5.86487 9.73169 9.76304 5.83352 9.76304 1.04568L11.8116 1.04568C11.8116 4.00735 10.6059 6.68807 8.66265 8.6313Z" fill="white"/>
<path d="M20.4978 11.7807C17.6298 11.7807 14.9315 10.6627 12.9064 8.63756C10.8812 6.61239 9.76324 3.91411 9.76324 1.04608L11.8118 1.04608C11.8118 3.36391 12.7191 5.54712 14.3579 7.18599C15.9968 8.82486 18.18 9.73209 20.4978 9.73209L20.4978 11.7807Z" fill="white"/>
<path d="M8.66265 19.8944C6.71942 21.8376 4.0387 23.0433 1.07703 23.0433L1.07703 20.9947C5.86487 20.9947 9.76304 17.0966 9.76304 12.3087L11.8116 12.3087C11.8116 15.2704 10.6059 17.9511 8.66265 19.8944Z" fill="white"/>
<path d="M20.4978 23.0437C17.6298 23.0437 14.9315 21.9258 12.9064 19.9006C10.8812 17.8754 9.76324 15.1772 9.76324 12.3091L11.8118 12.3091C11.8118 14.627 12.7191 16.8102 14.3579 18.4491C15.9968 20.0879 18.18 20.9952 20.4978 20.9952L20.4978 23.0437Z" fill="white"/>
</svg>
