<svg width="81" height="85" viewBox="0 0 81 85" fill="none" xmlns="http://www.w3.org/2000/svg">
<ellipse cx="40.5" cy="42.3284" rx="32" ry="33.3401" fill="#F3F5F8"/>
<path d="M33.375 47.5989L35 51.1153L38.625 54.3712L51.75 56.5852V61.2736H56.5L57.5 55.6735L56.5 51.8967L53.125 49.4222L44.25 47.5989L53.125 39.2639L54.125 35.6173L53.125 33.5336L68 17.124V14.6495L66.125 13.7379L63.25 16.0821L50.125 29.2358L46.25 27.673L45.375 30.1475L42.875 37.0499L38.625 42.1291L35 45.1245L33.375 47.5989Z" fill="#2395E8" fill-opacity="0.25"/>
<path fill-rule="evenodd" clip-rule="evenodd" d="M68.552 14.1761C67.4386 12.8504 65.4848 12.7716 64.2764 14.0038L55.3445 23.1118C55.4056 22.5668 55.428 22.0345 55.4059 21.5061C55.3504 20.1748 55.0152 18.9147 54.3722 17.5751C53.5505 15.8631 51.8873 15.0792 50.2979 14.7934C49.0002 14.56 47.6363 14.6332 46.5358 14.8753C46.232 14.4205 45.8007 14.0507 45.2691 13.8315L44.7164 13.6036C43.2785 13.0108 41.6516 13.7446 41.0826 15.2427L39.887 18.3904C39.3179 19.8885 40.0223 21.5836 41.4602 22.1765L42.0129 22.4043C42.3034 22.5241 42.6017 22.5898 42.8974 22.6059C43.0971 24.7714 44.0093 26.3245 45.1901 27.4347C44.5655 30.9001 43.1645 34.2695 41.6207 36.9503C40.8163 38.347 39.9814 39.5424 39.2116 40.4564C38.4268 41.3881 37.759 41.968 37.2989 42.2077C36.6965 42.5215 35.8114 43.1518 34.7972 43.9375C34.7912 43.9419 34.7851 43.9464 34.7792 43.9511C34.7735 43.9555 34.7679 43.96 34.7623 43.9646C34.6511 44.0508 34.5385 44.1389 34.4245 44.2286C33.2372 45.1629 31.8528 46.317 30.4489 47.5185C27.6402 49.9222 24.7335 52.533 23.1299 53.9949C21.0289 55.9103 15.7529 59.5543 12.1957 61.9222C10.8537 62.8155 10.3295 64.6014 10.9866 66.1228L13.2193 71.2922H10.8566C10.4148 71.2922 10.0566 71.6653 10.0566 72.1257C10.0566 72.586 10.4148 72.9592 10.8566 72.9592H14.4344C14.4495 72.9596 14.4647 72.9596 14.4798 72.9592H17.2379C17.2498 72.9594 17.2618 72.9594 17.2738 72.9592L49.1445 72.9592H61.5647L70.0566 72.9592C70.4985 72.9592 70.8566 72.586 70.8566 72.1257C70.8566 71.6653 70.4985 71.2922 70.0566 71.2922H60.9969C60.3325 69.794 58.694 67.6074 55.8321 67.1936L58.069 56.3173C58.8081 52.724 56.6173 49.185 53.1706 48.4043L46.1086 46.8048C48.0364 45.5176 50.269 43.7656 52.0011 41.8344C53.1303 40.5754 54.0895 39.1936 54.588 37.772C55.0945 36.3276 55.1354 34.8009 54.3512 33.3711L54.3429 33.3564L68.4409 18.3416C69.5162 17.1964 69.5646 15.3818 68.552 14.1761ZM44.4715 22.2011C44.547 23.4547 44.9054 24.4347 45.4258 25.2149L47.1016 21.3736L47.5135 21.2956C50.3676 20.7549 52.0656 18.9859 52.728 17.9516C52.1712 17.1377 51.2045 16.648 50.0258 16.4361C49.0016 16.2519 47.9171 16.2995 47.0386 16.4706C47.048 16.8516 46.9854 17.2408 46.8423 17.6176L45.6467 20.7652C45.4091 21.3907 44.9871 21.883 44.4715 22.2011ZM45.2566 15.8817C45.2582 15.9584 45.27 16.0361 45.2931 16.113C45.3232 16.2133 45.3698 16.3034 45.4288 16.3812C45.4547 16.5854 45.4325 16.7991 45.3546 17.0041L44.159 20.1518C43.9151 20.7939 43.2179 21.1084 42.6016 20.8543L42.0489 20.6264C41.4327 20.3723 41.1308 19.6459 41.3747 19.0038L42.5703 15.8561C42.8142 15.2141 43.5114 14.8996 44.1277 15.1537L44.6804 15.3815C44.9284 15.4838 45.1255 15.6627 45.2566 15.8817ZM48.2159 22.848C50.7187 22.267 52.4566 20.877 53.4748 19.6648C53.675 20.3139 53.7808 20.9402 53.8074 21.5785C53.8521 22.6499 53.6759 23.8003 53.2917 25.205L50.2759 28.2803C49.1445 27.9369 47.7751 27.4347 46.6443 26.5287L46.619 26.5083L48.2159 22.848ZM46.6124 28.5092C47.4099 28.9955 48.2355 29.3434 48.9775 29.6042L47.0971 31.5218C46.7813 31.8438 46.7759 32.3715 47.0849 32.7004C47.3939 33.0294 47.9005 33.0351 48.2162 32.7131L65.3956 15.1951C65.9473 14.6325 66.8395 14.6685 67.3479 15.2738C67.8103 15.8244 67.7881 16.6529 67.2971 17.1759L50.6848 34.8686C50.3758 35.1977 50.3814 35.7254 50.6972 36.0473C51.013 36.3692 51.5195 36.3634 51.8285 36.0343L53.1563 34.6202C53.4527 35.4096 53.4127 36.2658 53.0852 37.1999C52.6904 38.3256 51.8896 39.5172 50.8321 40.6962C48.7787 42.9857 45.9184 45.0517 43.8393 46.2908L40.2266 45.4726C39.7948 45.3748 39.3688 45.6602 39.2749 46.11C39.181 46.5598 39.455 47.0037 39.8867 47.1015L52.8307 50.0333C55.4158 50.6188 57.0588 53.273 56.5045 55.968L55.5813 60.4566H52.3372L52.9556 55.56L45.3501 54.6278L45.345 54.6272L44.8369 54.5684L44.8368 54.5684C41.5098 54.184 39.7522 53.9809 38.5257 53.5246C37.3515 53.0877 36.669 52.4166 35.4966 50.788C34.6933 49.6721 34.5846 48.5317 34.7719 47.53C34.9557 46.5467 35.4258 45.7094 35.8058 45.2336C36.7866 44.476 37.5531 43.939 38.0144 43.6987C38.7543 43.3132 39.5865 42.5386 40.4142 41.5559C41.2569 40.5554 42.147 39.2764 42.9927 37.8079C44.4983 35.1935 45.889 31.9331 46.6124 28.5092ZM52.1267 62.1236L50.9688 71.2922H59.1766C58.4454 70.1175 57.0446 68.7917 54.8566 68.7917H53.8671L55.2385 62.1236H52.1267ZM31.4645 48.8066C32.0442 48.3105 32.6186 47.8242 33.1754 47.3595C32.9544 48.7147 33.1394 50.2918 34.2166 51.7882C34.9604 52.8214 35.5903 53.5942 36.3328 54.1774L22.8441 61.342L21.3269 57.5481C22.4875 56.6781 23.4913 55.8805 24.1835 55.2495C25.7798 53.7942 28.6731 51.1956 31.4645 48.8066ZM37.62 55.3648C37.7511 55.2952 37.8558 55.1931 37.9299 55.0727L37.9595 55.084L37.9876 55.0945C39.3977 55.6192 41.342 55.8431 44.468 56.2032L44.468 56.2032C44.6943 56.2293 44.9268 56.2561 45.1658 56.2837L45.1683 56.284L51.1577 57.0182L49.355 71.2922H18.0082L17.7533 67.044C17.7136 66.381 18.0555 65.7566 18.6235 65.4549L22.5527 63.3679C22.6238 63.3589 22.695 63.3397 22.7643 63.3096C22.8737 63.2621 22.9675 63.1923 23.0431 63.1074L37.62 55.3648ZM19.9881 58.5345C17.6965 60.1971 15.0721 61.9856 13.0572 63.3269C12.3768 63.7798 12.118 64.6799 12.4457 65.4387L14.9739 71.2922H16.4051L16.1565 67.148C16.0769 65.8219 16.7607 64.5732 17.8968 63.9697L21.4145 62.1013L19.9881 58.5345Z" fill="#2395E8"/>
</svg>
