<svg width="80" height="84" viewBox="0 0 80 84" fill="none" xmlns="http://www.w3.org/2000/svg">
<ellipse cx="40" cy="41.951" rx="32" ry="33.3401" fill="#F3F5F8"/>
<path d="M30.1875 42.6634L27.375 48.5891L27 56.6639L22.625 56.2731L19.875 56.9894L19 57.5755V59.1383L20.5625 61.0918C22.3958 60.9833 26.1375 60.8314 26.4375 61.0918C26.7375 61.3523 29.0625 61.8081 30.1875 62.0035L36.5 64.8035L39.9375 66.0408C41.5833 65.1725 44.9625 63.41 45.3125 63.3058C45.6625 63.2016 49.5833 62.1771 51.5 61.6779L58.25 60.7663L59.25 59.7244V58.2267L58.5625 56.6639L51.9375 56.2731L51.5 49.1102L49.625 43.6404L45.3125 39.7333C44 39.2991 41.3 38.4178 41 38.3657C40.7 38.3136 37.625 38.7347 36.125 38.9517L30.1875 42.6634Z" fill="#BFDDF4"/>
<path fill-rule="evenodd" clip-rule="evenodd" d="M39.6001 14.5756C37.494 14.5756 35.7867 16.3544 35.7867 18.5486C35.7867 19.1139 35.8996 19.6506 36.1032 20.1364C37.1677 19.6272 38.352 19.3433 39.6001 19.3433C40.8481 19.3433 42.0325 19.6272 43.097 20.1364C43.3005 19.6506 43.4134 19.1139 43.4134 18.5486C43.4134 16.3544 41.7061 14.5756 39.6001 14.5756ZM34.2613 18.5486C34.2613 19.4008 34.4457 20.2095 34.7753 20.9325C32.6192 22.5143 31.2106 25.1278 31.2106 28.084C31.2106 28.2898 31.2175 28.4939 31.2309 28.6961C31.1911 28.8711 31.2106 29.0511 31.2794 29.2084C31.6754 32.4213 33.7457 35.0881 36.5494 36.2289V37.9955C30.8608 39.4248 26.6346 44.7622 26.6346 51.1279V55.4983H21.2959C19.611 55.4983 18.2452 56.9213 18.2452 58.6767C18.2452 59.7473 18.7531 60.6942 19.5317 61.2701C18.5794 61.9788 17.8663 63.0134 17.5075 64.4338C16.9633 66.5888 17.3049 68.3423 18.3377 69.6874C18.7258 70.193 19.1994 70.6247 19.7336 70.9933H11.3811C10.9599 70.9933 10.6184 71.349 10.6184 71.7879C10.6184 72.2267 10.9599 72.5825 11.3811 72.5825H67.8191C68.2403 72.5825 68.5817 72.2267 68.5817 71.7879C68.5817 71.349 68.2403 70.9933 67.8191 70.9933H59.4665C60.0007 70.6247 60.4743 70.193 60.8625 69.6874C61.8953 68.3423 62.2369 66.5888 61.6926 64.4338C61.2589 62.7165 60.3071 61.563 59.0409 60.8679C59.7398 60.3246 60.1923 59.4564 60.1923 58.4781C60.1923 56.8324 58.9118 55.4983 57.3323 55.4983H52.5656V51.1279C52.5656 44.7622 48.3394 39.4248 42.6508 37.9955V36.2289C45.7757 34.9574 47.9895 31.7901 47.9895 28.084C47.9895 25.1278 46.5809 22.5143 44.4248 20.9325C44.7544 20.2095 44.9388 19.4008 44.9388 18.5486C44.9388 15.4767 42.5486 12.9863 39.6001 12.9863C36.6516 12.9863 34.2613 15.4767 34.2613 18.5486ZM39.6001 35.2356C36.4737 35.2356 33.8355 33.0579 33.0066 30.079C36.1428 30.8874 41.4049 30.4332 45.5075 24.4401C46.1152 25.5073 46.4641 26.7532 46.4641 28.084C46.4641 32.0337 43.391 35.2356 39.6001 35.2356ZM32.7404 28.3419C35.2179 29.246 40.4806 29.3857 44.5346 23.1129C43.2866 21.7684 41.537 20.9325 39.6001 20.9325C35.8091 20.9325 32.736 24.1343 32.736 28.084C32.736 28.1704 32.7375 28.2563 32.7404 28.3419ZM55.6163 60.0195L57.3323 59.8687C58.0694 59.8687 58.667 59.2461 58.667 58.4781C58.667 57.7101 58.0694 57.0875 57.3323 57.0875H51.0402V56.2929V55.4983V51.1279C51.0402 44.5451 45.9183 39.2086 39.6001 39.2086C33.2819 39.2086 28.1599 44.5451 28.1599 51.1279V56.2929V57.0875H27.3973H21.2959C20.4534 57.0875 19.7705 57.799 19.7705 58.6767C19.7705 59.5544 20.4534 60.266 21.2959 60.266H21.7362C23.4718 59.8411 25.5286 59.9838 27.6103 60.4198C28.6 60.627 29.6122 60.9043 30.6206 61.2302C31.4981 59.9264 31.9733 58.3683 31.9733 56.7656V48.744C31.9733 48.3052 32.3148 47.9494 32.736 47.9494C33.1572 47.9494 33.4987 48.3052 33.4987 48.744V56.7656C33.4987 58.5375 33.0165 60.264 32.1199 61.75C34.947 62.7946 37.639 64.143 39.6001 65.3074C41.5612 64.143 44.2532 62.7946 47.0802 61.75C46.1837 60.264 45.7015 58.5375 45.7015 56.7656V48.744C45.7015 48.3052 46.0429 47.9494 46.4641 47.9494C46.8854 47.9494 47.2268 48.3052 47.2268 48.744V56.7656C47.2268 58.3683 47.702 59.9264 48.5795 61.2302C49.5879 60.9043 50.6001 60.627 51.5899 60.4198C52.9719 60.1304 54.3429 59.9702 55.6163 60.0195ZM34.1341 70.9933H55.8289C55.9194 70.895 56.0353 70.8196 56.1702 70.7796C57.7408 70.3139 58.956 69.6263 59.6713 68.6947C60.3536 67.8061 60.6604 66.5919 60.2175 64.8382C59.807 63.2128 58.8176 62.3163 57.4079 61.8927C55.9436 61.4527 54.0246 61.5309 51.8904 61.9778C47.6453 62.8668 42.8861 65.14 40.0055 66.8987L34.1341 70.9933ZM41.1254 37.7119V36.6807C40.6308 36.7753 40.121 36.8248 39.6001 36.8248C39.0792 36.8248 38.5694 36.7753 38.0747 36.6807V37.7119C38.575 37.6508 39.084 37.6194 39.6001 37.6194C40.1161 37.6194 40.6251 37.6508 41.1254 37.7119ZM27.3097 61.9778C31.0734 62.766 35.2413 64.6423 38.1457 66.2834L31.5491 70.8836C31.5025 70.916 31.4605 70.9529 31.4232 70.9933H23.3713C23.2808 70.895 23.1648 70.8196 23.03 70.7796C21.4594 70.3139 20.2441 69.6263 19.5288 68.6947C18.8466 67.8061 18.5398 66.5919 18.9827 64.8382C19.3932 63.2128 20.3825 62.3163 21.7923 61.8927L22.8212 61.6761C24.1106 61.5049 25.6446 61.6292 27.3097 61.9778Z" fill="#2395E8"/>
</svg>
