<svg width="80" height="84" viewBox="0 0 80 84" fill="none" xmlns="http://www.w3.org/2000/svg">
<ellipse cx="40" cy="41.951" rx="32" ry="33.3401" fill="#F3F5F8"/>
<path d="M37.375 36.7414L30.3125 32.7041L28.25 36.7414V39.6066L29.9375 44.0997L34 48.5928L40.4375 52.63L41.75 54.5185V57.7743L40.4375 66.435L41 69.235L42.0625 71.1885H44L45.8125 70.342L46.9375 68.1931L50 55.0394C49.6875 53.9107 49.0625 51.5882 49.0625 51.3277C49.0625 51.0672 47.2292 48.354 46.3125 47.0299C45.375 45.7493 43.45 43.1229 43.25 42.8624C43.05 42.602 41.6667 40.5833 41 39.6066L37.375 36.7414Z" fill="#2395E8" fill-opacity="0.25"/>
<path fill-rule="evenodd" clip-rule="evenodd" d="M53.763 14.6139L51.3271 15.7656C50.5856 16.1161 50.2573 17.0266 50.5938 17.7992C50.9302 18.5717 51.8041 18.9138 52.5456 18.5633L54.9815 17.4116C55.723 17.0611 56.0513 16.1506 55.7149 15.378C55.3784 14.6055 54.5045 14.2634 53.763 14.6139ZM50.7363 14.4091C49.2758 15.0996 48.6291 16.893 49.2918 18.4147C49.3447 18.5361 49.4043 18.6522 49.47 18.7625C48.8623 19.659 48.4546 20.7139 48.3151 21.8555C47.2637 21.0881 45.807 20.4312 44.0184 20.4231C41.639 20.4124 38.8071 21.5501 35.6919 24.8149C31.9017 28.7873 29.4172 32.1072 28.2335 35.0865C27.0271 38.1229 27.1723 40.8114 28.6103 43.4015C29.3939 44.8129 30.8224 46.3167 32.4583 47.745L34.3434 54.6725C34.5351 55.3771 34.3832 56.135 33.9368 56.7008L28.1291 64.0617C26.8182 65.7232 26.9955 68.1655 28.5313 69.6026C28.9742 70.0171 29.4815 70.304 30.0133 70.4675H17.7971C17.4023 70.4675 17.0823 70.801 17.0823 71.2123C17.0823 71.6237 17.4023 71.9571 17.7971 71.9571H61.4031C61.7979 71.9571 62.118 71.6237 62.118 71.2123C62.118 70.801 61.7979 70.4675 61.4031 70.4675H46.8499C47.3602 69.8913 47.7222 69.1647 47.8667 68.3477L50.1501 55.4328C50.5984 52.8972 49.9739 50.2835 48.4369 48.2628L46.4086 45.5959C46.4619 45.6057 46.5158 45.6142 46.5701 45.6213C47.8661 45.7915 49.0668 45.1666 49.7602 44.1351C50.2403 45.4756 51.4802 46.4267 52.9297 46.4267C54.9818 46.4267 56.5611 44.5381 56.2799 42.4202L54.58 29.6157C54.6776 29.6201 54.7757 29.6224 54.8743 29.6224C58.5262 29.6224 61.4867 26.5379 61.4867 22.7331C61.4867 19.8051 59.7341 17.3051 57.263 16.3072C57.3115 15.7956 57.2354 15.2643 57.0168 14.7625C56.354 13.2408 54.6328 12.567 53.1722 13.2575L50.7363 14.4091ZM40.8258 70.4675C40.0288 69.5664 39.6027 68.3127 39.7803 66.9851L40.7633 59.6392L34.2242 68.9809C33.7016 69.7275 32.983 70.2278 32.1999 70.4675H40.8258ZM49.6916 22.7331C49.6916 21.6534 49.9952 20.6488 50.5187 19.8053C51.2965 20.2577 52.2631 20.3326 53.1364 19.9197L55.5723 18.7681C56.0789 18.5286 56.4876 18.1564 56.7777 17.7089C58.5027 18.4188 59.7741 20.0656 60.0155 22.0463C58.3524 22.2397 56.6664 21.9966 55.1122 21.3352L54.4986 21.074L54.2437 21.1662C53.3317 21.4958 52.4686 21.9296 51.716 22.3079L51.716 22.3079L51.7159 22.308C51.5262 22.4033 51.3434 22.4952 51.1687 22.5809C50.5724 22.8736 50.0963 23.0798 49.7096 23.1857C49.6977 23.0364 49.6916 22.8855 49.6916 22.7331ZM50.1361 24.6076C50.2004 24.8274 50.2624 25.0631 50.3212 25.3146C51.2001 26.9936 52.9095 28.1328 54.8743 28.1328C57.4715 28.1328 59.6226 26.1423 59.9987 23.5457C58.1555 23.7301 56.2928 23.4466 54.5716 22.7142L54.4616 22.6673C53.7303 22.9504 53.0434 23.2953 52.3737 23.6316L52.3728 23.632C52.1734 23.7321 51.9751 23.8317 51.778 23.9284C51.2467 24.1892 50.6873 24.4501 50.1361 24.6076ZM41.2641 55.8963L41.1815 56.5138L33.0691 68.1032C32.2219 69.3134 30.5563 69.4954 29.4866 68.4944C28.5202 67.5901 28.4086 66.0531 29.2335 65.0076L35.0412 57.6467C35.7853 56.7037 36.0384 55.4406 35.7189 54.2662L34.3725 49.3182C36.284 50.8064 38.323 52.1804 40.0067 53.2325C40.906 53.7945 41.405 54.8435 41.2641 55.8963ZM41.8424 39.5926L43.6622 41.9852C43.7398 40.5243 43.826 38.895 43.9078 37.3412C43.8004 37.4489 43.6902 37.5599 43.578 37.6737C43.1568 38.101 42.7267 38.5494 42.3632 38.9618C42.1536 39.1996 41.9782 39.4121 41.8424 39.5926ZM44.0224 35.1577C43.943 35.2406 43.8432 35.342 43.7252 35.4605C43.6167 35.5695 43.4929 35.6928 43.359 35.8262L43.3588 35.8264L43.3576 35.8276L43.3571 35.828C43.1199 36.0643 42.8512 36.332 42.5806 36.6065C42.1528 37.0404 41.7005 37.5113 41.3101 37.9543C41.135 38.1529 40.9641 38.3551 40.8101 38.5525C38.4811 36.8933 34.1835 34.1812 31.1054 32.7061C32.3868 30.7028 34.235 28.4546 36.7059 25.8651C39.6312 22.7992 42.116 21.9041 44.0122 21.9127C45.9006 21.9212 47.339 22.8262 48.1848 23.6606C48.2346 23.7264 48.2975 23.8289 48.3686 23.972C48.4838 24.6329 48.6895 25.2609 48.9718 25.8417C49.0093 26.0117 49.0459 26.1924 49.0812 26.3842C49.3323 27.7501 49.5049 29.6261 49.4479 32.0893C49.377 32.2078 49.3372 32.3484 49.3401 32.4984L49.3684 33.9208C49.1568 37.5253 49.0235 40.2729 48.9439 42.1908C48.8943 43.386 47.8724 44.291 46.7489 44.1434C45.7586 44.0134 45.0344 43.1089 45.0895 42.0716C45.1962 40.0625 45.3196 37.7275 45.4254 35.7081C45.5056 35.5284 45.5111 35.3314 45.4543 35.1562C45.5675 32.9906 45.655 31.2849 45.67 30.9102C45.6864 30.4992 45.38 30.1522 44.9855 30.1351C44.5911 30.1179 44.258 30.4372 44.2415 30.8482C44.2266 31.2208 44.1374 32.9576 44.0224 35.1577ZM50.799 33.9509L50.9778 42.9451C50.9998 44.0519 51.8672 44.9371 52.9297 44.9371C54.1143 44.9371 55.026 43.8469 54.8637 42.6243L53.1044 29.3728C52.2376 29.1225 51.4424 28.693 50.7578 28.1248C50.8993 29.6611 50.941 31.5438 50.8073 33.8109L50.799 33.9509ZM33.7125 46.8928C33.9642 47.1073 34.2225 47.3217 34.4863 47.5357C36.5474 49.207 38.8638 50.7814 40.7421 51.9551C42.1086 52.8091 42.904 54.4283 42.6801 56.102L41.1963 67.1908C40.9728 68.8618 42.2184 70.3531 43.8378 70.3531C45.1244 70.3531 46.2275 69.3961 46.4606 68.0778L48.744 55.163C49.1176 53.05 48.5972 50.8718 47.3164 49.1879L40.3559 40.0365C38.1476 38.4224 33.49 35.4632 30.3473 33.9829C30.0324 34.5604 29.7686 35.1173 29.5545 35.6562C28.5046 38.2987 28.6499 40.4978 29.8479 42.6557C30.447 43.7349 31.549 44.9544 32.9197 46.1967L33.7125 46.8928Z" fill="#2395E8"/>
</svg>
