<svg width="80" height="84" viewBox="0 0 80 84" fill="none" xmlns="http://www.w3.org/2000/svg">
<ellipse cx="40" cy="42.2601" rx="32" ry="33.3401" fill="#F3F5F8"/>
<path fill-rule="evenodd" clip-rule="evenodd" d="M36.0603 16.5948C37.4294 14.707 39.519 13.2853 41.9212 13.2959C44.5296 13.3074 46.9858 13.4483 49.1229 13.6415C53.3918 14.0273 56.2768 17.9854 55.9939 22.3475L54.7913 40.892C54.6251 43.4549 52.4883 45.4932 49.9448 44.9846C49.3199 44.8596 48.6681 44.7151 47.9955 44.5538C47.8723 46.2007 48.1463 49.972 50.2789 54.6935C52.5367 59.6923 54.0952 67.0145 54.7449 70.9075H59.1131C59.5339 70.9075 59.875 71.2629 59.875 71.7013C59.875 72.1397 59.5339 72.4951 59.1131 72.4951H54.8207H53.5008H25.2168H25.2029H22.1615C21.7407 72.4951 21.3996 72.1397 21.3996 71.7013C21.3996 71.2629 21.7407 70.9075 22.1615 70.9075H24.523C24.6319 70.0257 24.8385 68.8797 25.1735 67.6963C25.5589 66.3344 26.1315 64.8607 26.9645 63.6832C23.8673 61.5069 21.2248 57.9732 19.8985 52.4458C18.0351 44.6798 21.7793 38.8582 26.5526 34.9588C26.6237 34.9007 26.7017 34.8579 26.7828 34.8299C26.7807 34.1798 26.9526 33.5183 27.3147 32.9255L27.7376 32.2331C27.9763 31.8422 28.3081 31.541 28.688 31.3472C27.0752 29.0942 26.7467 27.0912 27.4032 25.3247C28.127 23.3776 29.9649 22.0002 31.696 20.9981C33.22 20.116 34.8011 18.331 36.0603 16.5948ZM46.4993 44.1769C40.5574 42.6128 33.4251 39.9822 28.79 37.9703C28.0629 37.6548 27.5187 37.1139 27.1817 36.4665C22.8304 40.1391 19.7538 45.2964 21.3768 52.0607C22.9384 58.5686 26.3968 61.9775 30.1111 63.6818C33.8651 65.4044 37.9449 65.4116 40.7103 64.9634C41.1261 64.8961 41.5156 65.1926 41.5803 65.6258C41.6449 66.059 41.3603 66.4648 40.9445 66.5322C37.9958 67.0101 33.5997 67.0173 29.4969 65.1347C29.0852 64.9458 28.677 64.7381 28.2742 64.5104C27.5528 65.483 27.0138 66.8071 26.635 68.1454C26.3492 69.1552 26.1653 70.1344 26.0606 70.9075H53.1977C52.533 67.0166 51.0233 60.0702 48.9002 55.3695C46.5891 50.2528 46.2993 46.0717 46.4993 44.1769ZM29.0231 33.0854C29.2205 32.7622 29.5984 32.6127 29.952 32.7179L50.1421 38.7281C50.5467 38.8486 50.9684 38.6045 51.084 38.1829C51.1996 37.7614 50.9653 37.3221 50.5607 37.2016L48.4196 36.5642C48.412 36.5358 48.4029 36.5074 48.3921 36.4794C47.2446 33.4903 47.163 29.2853 47.5759 25.1478C47.9583 21.3159 48.7526 17.6509 49.4142 15.277C52.5424 15.793 54.6967 18.8008 54.4736 22.2405L53.271 40.785C53.1579 42.5282 51.7566 43.7303 50.232 43.4254C43.9923 42.1777 34.9069 38.9055 29.376 36.5048C28.3679 36.0673 27.9873 34.7813 28.6002 33.7778L29.0231 33.0854ZM45.3822 14.9744C46.2431 15.0153 47.0748 15.0681 47.8697 15.1293C47.2033 17.585 46.4376 21.2021 46.0603 24.9836C45.6832 28.7626 45.6824 32.8088 46.6279 36.0309L30.581 31.2541C28.5318 28.8492 28.3622 27.1411 28.8242 25.898C29.3218 24.5593 30.6482 23.4435 32.2708 22.4827C33.5455 23.0722 36.2763 23.5857 40.1243 23.2773C42.5059 23.0864 43.8384 21.3864 44.5452 19.5345C45.1205 18.0273 45.3269 16.3257 45.3822 14.9744ZM37.276 17.5519C36.3338 18.8511 35.1486 20.2773 33.8685 21.3602C35.1212 21.6769 37.1953 21.9197 40.0074 21.6944C41.5877 21.5677 42.5409 20.4894 43.1293 18.9479C43.6188 17.6652 43.8078 16.1609 43.8594 14.9162C43.2228 14.8977 42.5736 14.8864 41.9148 14.8835C40.1162 14.8755 38.4394 15.9478 37.276 17.5519Z" fill="#2395E8"/>
<path d="M27.875 63.8141L24.75 71.2374L25.1875 71.8886L53.875 71.563L52.875 66.7443L51.5625 60.6884L47.875 51.4417L47.4375 43.9532L30.8125 38.1578L26.875 35.8787L23 40.0462L19.875 47.0789L21.5 55.8046L25.9375 62.3164L27.875 63.8141Z" fill="#2395E8" fill-opacity="0.25"/>
<path d="M47.875 37.2461L29.6875 31.8414L27.9375 27.6739L28.375 25.3948L28.875 24.3529L31.875 21.6831L35.5625 22.9203H39.75L42.1875 21.6831L43.8125 19.5342L44.5625 14.455H48.75L48.1875 17.5155L46.5625 29.5623L47.875 37.2461Z" fill="#2395E8" fill-opacity="0.25"/>
<path d="M26.5 47.2745L29 46.493H29.75L31.5 48.4466C31.9583 48.1644 32.925 47.5349 33.125 47.2745C33.325 47.014 34.3333 46.645 34.8125 46.493L37.5 47.2745L38.1875 49.5536L37.5 51.3769L31.5 57.4979L28.5625 54.1118L25.8125 50.9861L25.4375 48.8373L26.5 47.2745Z" fill="#F3F5F8"/>
<path fill-rule="evenodd" clip-rule="evenodd" d="M31.1325 46.8021C29.644 45.2618 27.239 45.2651 25.7544 46.8119C24.2667 48.3619 24.2668 50.875 25.7545 52.4249L31.6806 58.5991L31.6921 58.5874L31.7034 58.5991L37.6296 52.4249C39.1173 50.8749 39.1173 48.3619 37.6296 46.8119C36.1451 45.2651 33.74 45.2619 32.2516 46.8022C32.2484 46.8055 32.2453 46.8087 32.2422 46.812L31.6921 47.3851M31.1419 46.8119C31.1387 46.8086 31.1356 46.8054 31.1325 46.8021ZM31.692 56.3658L36.5521 51.3023C37.4447 50.3723 37.4447 48.8645 36.5522 47.9345C35.6595 47.0045 34.2123 47.0045 33.3197 47.9345L31.6921 49.6304L30.0644 47.9345C29.1718 47.0044 27.7245 47.0044 26.8319 47.9345C25.9393 48.8645 25.9393 50.3723 26.8319 51.3023L31.692 56.3658Z" fill="#2395E8"/>
</svg>
